<svg version="1.1" xmlns="http://www.w3.org/2000/svg" xmlns:xlink="http://www.w3.org/1999/xlink" stroke-linecap="round" stroke-linejoin="round" stroke-width="0" fill-rule="evenodd" clip-rule="evenodd" id="no0_-f79qrCfYWbMv2QV_bottom" viewBox="3730.4 12238.2 42539.2 32523.499999999996" width="42.539199999999994mm" height="32.5235mm" class="w-100 h-100"><defs><style>.no0_-f79qrCfYWbMv2QV_fr4 {color: #666666;}
.no0_-f79qrCfYWbMv2QV_cu {color: #cccccc;}
.no0_-f79qrCfYWbMv2QV_cf {color: #cc9933;}
.no0_-f79qrCfYWbMv2QV_sm {color: #004200; opacity: 0.75;}
.no0_-f79qrCfYWbMv2QV_ss {color: #ffffff;}
.no0_-f79qrCfYWbMv2QV_sp {color: #999999;}
.no0_-f79qrCfYWbMv2QV_out {color: #000000;}</style><circle cx="0" cy="0" r="2000" id="EyPlkDqsd0xvl5x91j___pad-22"/><circle cx="0" cy="0" r="300" id="EyPlkDqsd0xvl5x91j___pad-23"/><rect x="-450" y="-800" width="900" height="1600" id="EyPlkDqsd0xvl5x91j___pad-30"/><rect x="-450" y="-650" width="900" height="1300" id="EyPlkDqsd0xvl5x91j___pad-31"/><rect x="-350" y="-575" width="700" height="1150" id="EyPlkDqsd0xvl5x91j___pad-32"/><rect x="-575" y="-350" width="1150" height="700" id="EyPlkDqsd0xvl5x91j___pad-33"/><rect x="-115" y="-300" width="230" height="600" id="EyPlkDqsd0xvl5x91j___pad-34"/><rect x="-300" y="-115" width="600" height="230" id="EyPlkDqsd0xvl5x91j___pad-35"/><rect x="-1650" y="-1650" width="3300" height="3300" id="EyPlkDqsd0xvl5x91j___pad-36"/><circle cx="0" cy="0" r="2101.6" id="fGAbJTawKulHIo3jzrJ5_pad-20"/><rect x="-551.6" y="-901.6" width="1103.2" height="1803.2" id="fGAbJTawKulHIo3jzrJ5_pad-40"/><rect x="-551.6" y="-751.6" width="1103.2" height="1503.2" id="fGAbJTawKulHIo3jzrJ5_pad-41"/><rect x="-451.6" y="-676.6" width="903.2" height="1353.2" id="fGAbJTawKulHIo3jzrJ5_pad-42"/><rect x="-676.6" y="-451.6" width="1353.2" height="903.2" id="fGAbJTawKulHIo3jzrJ5_pad-43"/><rect x="-165.8" y="-350.8" width="331.6" height="701.6" id="fGAbJTawKulHIo3jzrJ5_pad-44"/><rect x="-350.8" y="-165.8" width="701.6" height="331.6" id="fGAbJTawKulHIo3jzrJ5_pad-45"/><rect x="-1700.8" y="-1700.8" width="3401.6" height="3401.6" id="fGAbJTawKulHIo3jzrJ5_pad-46"/><rect x="-450" y="-800" width="900" height="1600" id="vGFUAbQ40x-38XGOxSSM_pad-30"/><rect x="-450" y="-650" width="900" height="1300" id="vGFUAbQ40x-38XGOxSSM_pad-31"/><rect x="-350" y="-575" width="700" height="1150" id="vGFUAbQ40x-38XGOxSSM_pad-32"/><rect x="-575" y="-350" width="1150" height="700" id="vGFUAbQ40x-38XGOxSSM_pad-33"/><rect x="-165.8" y="-350.8" width="331.6" height="701.6" id="vGFUAbQ40x-38XGOxSSM_pad-44"/><rect x="-350.8" y="-165.8" width="701.6" height="331.6" id="vGFUAbQ40x-38XGOxSSM_pad-45"/><rect x="-1700.8" y="-1700.8" width="3401.6" height="3401.6" id="vGFUAbQ40x-38XGOxSSM_pad-46"/><g id="no0_-f79qrCfYWbMv2QV_bottom_copper"><path d="M 34200 21100 32100 21100 32100 22800 34200 22800 34200 21100"/><path d="M 33100 25100 33100 23600 31000 23600 31000 25100 33100 25100"/><path d="M 33000 25900 31000 25900 31000 27400 33000 27400 33000 25900"/><path d="M 33000 29019.8 31100 29019.8 31100 30500 33000 30500 33000 29019.8"/><path d="M 33100 32000 31100 32000 31100 33500 33100 33500 33100 32000"/><path d="M 11900 34900 13850 34900 M 16900 24700 17850 24700 M 29650 24400 29700 24450 M 29500 24250 29650 24400 M 29700 24450 29700 25500 M 27600 26765 27600 26950 M 27585 26750 27600 26765 M 27400 26750 27585 26750 M 27600 26950 27600 26950 27600 30400 M 28199.2 24750 28915.3 25466.1 M 27930.7 25765 28115.3 25949.7 M 28300 26179.9 28300 26600 M 28133.5 25250 28515.3 25631.8 M 27415 25765 27930.7 25765 M 28115.3 25995.2 28300 26179.9 M 28115.3 25949.7 28115.3 25995.2 M 28515.3 25631.8 28515.3 25829.5 M 28915.3 25466.1 28915.3 25663.9 M 28515.3 25829.5 28700 26014.2 M 28915.3 25663.9 29100 25848.5 M 27400 26250 27415 26265 27865 26265 M 27400 25250 28133.5 25250 M 29100 25848.5 29100 25950 M 27400 24750 28199.2 24750 M 28700 26222.2 28850 26372.2 M 28700 26014.2 28700 26222.2 M 29100 25950 29700 26550 M 28850 28098.7 29567.2 28815.9 M 28850 26372.2 28850 28098.7 M 29567.2 28815.9 33838.1 28815.9 M 27250 36600 28300 36600 M 11800 32700 13750 32700 M 29700 17650 29700 17650 32000 17650 M 20500 24700 21100 24100 M 19750 24700 20500 24700 M 29700 26550 29700 28000 M 33955.3 28933.1 33955.3 34344.7 M 33838.1 28815.9 33955.3 28933.1 M 29700 28000 29965.9 28265.9 M 33400 34900 33955.3 34344.7 M 25750 21884.3 25917.2 21717.2 M 25250 21606.5 25250 22600 M 26265 22147.1 26265 22585 M 26250 22600 26265 22585 M 26265 22147.1 27912.1 20500 M 25250 21606.5 25500 21356.5 M 25500 20800 25500 21356.5 M 25400 20700 25500 20800 M 25000 19550 25150 19550 25400 19800 25400 20700 M 25750 21884.3 25750 22600 M 23550 25750 23900 26100 M 23450 25250 23900 25700 M 22600 25250 23450 25250 M 23900 25700 23900 26100 M 22600 25750 23550 25750 M 23250 22008.6 23250 22600 M 22841.4 21600 23250 22008.6 M 20150 27300 21865 27300 22400 26765 M 20050 27400 20150 27300 M 22935 27900 23250 27585 M 23250 27400 23250 27585 M 22800 27900 22935 27900 M 21100 32700 24100 29700 M 26300 27951.5 26300 30075 M 25925 30450 26300 30075 M 25700 30450 25925 30450 M 25450 33517.2 25567.2 33400 M 25350 41000 25450 40900 M 23500 21000 23500 21108.2 M 23750 21358.2 23750 22600 M 23500 21108.2 23750 21358.2 M 24750 21358.2 24750 22600 M 24750 21358.2 24900 21208.2 M 22700 20282.8 22817.2 20400 23800 20400 M 22700 19550 22700 20282.8 M 23800 20400 24250 20850 M 27250 41000 28200 41000 M 11800 27400 13750 27400 M 29650 35100 29700 35150 29700 36600 M 27400 15700 27400 17650 M 23400 29391.8 23700 29091.8 M 23700 28220.1 23750 28170.1 M 23400 29391.8 23400 29500 M 23700 28220.1 23700 29091.8 M 24100 28385.8 24100 29700 M 23750 27400 23750 28170.1 M 15650 34900 19700 34900 24500 30100 M 24500 28551.5 24700 28351.5 M 24700 27785.8 24700 28351.5 M 24735 27415 24750 27400 M 24735 27415 24735 27750.8 M 25100 27951.5 25235 27816.5 M 24500 28551.5 24500 30100 M 24100 28385.8 24250 28235.8 M 24700 27785.8 24735 27750.8 M 24250 27400 24250 28235.8 M 25100 27951.5 25100 28800 M 25235 27415 25250 27400 M 25235 27415 25235 27816.5 M 26250 27901.5 26300 27951.5 M 26250 27400 26250 27901.5 M 25750 27400 25750 27950 M 27400 25750 27415 25765 M 31550 35100 31750 34900 33400 34900 M 27400 24250 29500 24250 M 29550 21900 29550 23050 M 28250 23750 28500 23500 M 27400 23750 28250 23750 M 27400 22200 27400 23250 M 27400 22200 27600 22000 M 29700 19550 30650 19550 M 24900 21100 24900 21208.2 M 24250 20850 24250 22600 M 15650 32700 21100 32700 M 17950 22200 18150 22400 M 17950 20200 17950 22200 M 20050 22400 21700 22400 M 22024.3 23132.9 22141.4 23250 M 22024.3 22724.3 22024.3 23132.9 M 22141.4 23250 22600 23250 M 21700 22400 22024.3 22724.3 M 21608.2 23500 21808.2 23700 M 21500 23500 21608.2 23500 M 22149.2 23735 22585 23735 M 22114.2 23700 22149.2 23735 M 21808.2 23700 22114.2 23700 M 22585 23735 22600 23750 M 21100 24100 21948.5 24100 22098.5 24250 22600 24250 M 21987.3 26523.5 22175.7 26335 M 22283.5 26265 22585 26265 M 22175.7 26335 22213.5 26335 22283.5 26265 M 21750 24750 22600 24750 M 21700 24700 21750 24750 M 22400 26765 22585 26765 M 21576.5 26523.5 21987.3 26523.5 M 21500 26600 21576.5 26523.5 M 22585 26765 22600 26750 M 22585 26265 22600 26250 M 17950 29700 18150 29500 M 18150 27400 18150 29500" fill="none" stroke-width="200"/><path d="M 15650 25650 16300 26300 18350 26300 M 15650 25000 15650 25225 M 18350 26300 19750 24900 M 11800 29700 13750 29700 M 29650 29600 29650 30000 M 28300 29107.1 28592.9 29400 29450 29400 M 28300 26600 28300 29107.1 M 29650 30000 30380.9 30730.9 30380.9 31080.9 30400 31100 M 29450 29400 29650 29600 M 27912.1 20500 28525 20500 M 29475 19550 29700 19550 M 28525 20500 29475 19550 M 28500 17800 28650 17650 M 28300 18691.4 28300 19382.8 M 27450 19500 27500 19450 M 28232.8 19450 28300 19382.8 M 27500 19450 28232.8 19450 M 28300 18691.4 28500 18491.4 M 28500 17800 28500 18491.4 M 28650 17650 29700 17650 32000 17650 M 11800 25000 13750 25000 M 28500 22017.2 28500 23500 M 28500 22017.2 28617.2 21900 29550 21900 M 19750 24700 19750 24900 M 29250 32400 29450 32400 M 29650 32600 29650 32875 M 27600 30400 27600 30750 M 29450 32400 29650 32600 M 27600 30750 29250 32400 M 27350 34175 28450 33075 M 29450 33075 29650 32875 M 28450 33075 29450 33075 M 27350 34175 27350 34400 M 27350 38500 33000 38500 M 27250 38600 27250 38800 M 27250 38600 27350 38500 M 33000 38500 34800 36700 M 34800 28417.2 34800 36700 M 29965.9 28265.9 34648.8 28265.9 34800 28417.2 M 22700 16700 22700 17650 M 32000 19550 33522.9 19550 M 33572.9 19600 33600 19600 M 33522.9 19550 33572.9 19600 M 32000 17650 32000 17650 M 27400 19550 27450 19500 M 27225 19500 27450 19500 M 25917.2 21717.2 26367.9 21266.4 M 26367.9 20357.1 26367.9 21266.4 M 26367.9 20357.1 27225 19500 M 24400 32400 24427.1 32400 M 24477.1 32350 25700 32350 M 24427.1 32400 24477.1 32350 M 25000 16400 25000 17650" fill="none" stroke-width="500"/><use xlink:href="#EyPlkDqsd0xvl5x91j___pad-22" x="5000" y="20000"/><use xlink:href="#EyPlkDqsd0xvl5x91j___pad-22" x="45000" y="20000"/><use xlink:href="#EyPlkDqsd0xvl5x91j___pad-22" x="45000" y="14000"/><use xlink:href="#EyPlkDqsd0xvl5x91j___pad-22" x="45000" y="36000"/><use xlink:href="#EyPlkDqsd0xvl5x91j___pad-22" x="45000" y="30000"/><use xlink:href="#EyPlkDqsd0xvl5x91j___pad-22" x="5000" y="30000"/><use xlink:href="#EyPlkDqsd0xvl5x91j___pad-23" x="13400" y="40900"/><use xlink:href="#EyPlkDqsd0xvl5x91j___pad-23" x="13397.5" y="37092.5"/><use xlink:href="#EyPlkDqsd0xvl5x91j___pad-23" x="11900" y="34900"/><use xlink:href="#EyPlkDqsd0xvl5x91j___pad-23" x="11000" y="13000"/><use xlink:href="#EyPlkDqsd0xvl5x91j___pad-23" x="9500" y="13000"/><use xlink:href="#EyPlkDqsd0xvl5x91j___pad-23" x="9600" y="14200"/><use xlink:href="#EyPlkDqsd0xvl5x91j___pad-23" x="9600" y="15400"/><use xlink:href="#EyPlkDqsd0xvl5x91j___pad-23" x="10500" y="16600"/><use xlink:href="#EyPlkDqsd0xvl5x91j___pad-23" x="9500" y="16600"/><use xlink:href="#EyPlkDqsd0xvl5x91j___pad-23" x="11000" y="14300"/><use xlink:href="#EyPlkDqsd0xvl5x91j___pad-23" x="11100" y="15600"/><use xlink:href="#EyPlkDqsd0xvl5x91j___pad-23" x="9400" y="31200"/><use xlink:href="#EyPlkDqsd0xvl5x91j___pad-23" x="10500" y="32900"/><use xlink:href="#EyPlkDqsd0xvl5x91j___pad-23" x="8300" y="32900"/><use xlink:href="#EyPlkDqsd0xvl5x91j___pad-23" x="9500" y="34400"/><use xlink:href="#EyPlkDqsd0xvl5x91j___pad-23" x="10500" y="35700"/><use xlink:href="#EyPlkDqsd0xvl5x91j___pad-23" x="8200" y="35700"/><use xlink:href="#EyPlkDqsd0xvl5x91j___pad-23" x="9900" y="38400"/><use xlink:href="#EyPlkDqsd0xvl5x91j___pad-23" x="9400" y="37200"/><use xlink:href="#EyPlkDqsd0xvl5x91j___pad-23" x="8300" y="38400"/><use xlink:href="#EyPlkDqsd0xvl5x91j___pad-23" x="9300" y="39900"/><use xlink:href="#EyPlkDqsd0xvl5x91j___pad-23" x="10500" y="41200"/><use xlink:href="#EyPlkDqsd0xvl5x91j___pad-23" x="8300" y="41200"/><use xlink:href="#EyPlkDqsd0xvl5x91j___pad-23" x="11000" y="38500"/><use xlink:href="#EyPlkDqsd0xvl5x91j___pad-23" x="10800" y="39700"/><use xlink:href="#EyPlkDqsd0xvl5x91j___pad-23" x="16900" y="24700"/><use xlink:href="#EyPlkDqsd0xvl5x91j___pad-23" x="33600" y="22200"/><use xlink:href="#EyPlkDqsd0xvl5x91j___pad-23" x="33600" y="21500"/><use xlink:href="#EyPlkDqsd0xvl5x91j___pad-23" x="32500" y="24700"/><use xlink:href="#EyPlkDqsd0xvl5x91j___pad-23" x="32500" y="24000"/><use xlink:href="#EyPlkDqsd0xvl5x91j___pad-23" x="32500" y="27000"/><use xlink:href="#EyPlkDqsd0xvl5x91j___pad-23" x="32500" y="26300"/><use xlink:href="#EyPlkDqsd0xvl5x91j___pad-23" x="32500" y="30100"/><use xlink:href="#EyPlkDqsd0xvl5x91j___pad-23" x="32500" y="29400"/><use xlink:href="#EyPlkDqsd0xvl5x91j___pad-23" x="32500" y="32400"/><use xlink:href="#EyPlkDqsd0xvl5x91j___pad-23" x="32500" y="33100"/><use xlink:href="#EyPlkDqsd0xvl5x91j___pad-23" x="37100" y="21300"/><use xlink:href="#EyPlkDqsd0xvl5x91j___pad-23" x="37100" y="20100"/><use xlink:href="#EyPlkDqsd0xvl5x91j___pad-23" x="37200" y="18800"/><use xlink:href="#EyPlkDqsd0xvl5x91j___pad-23" x="40900" y="18600"/><use xlink:href="#EyPlkDqsd0xvl5x91j___pad-23" x="40900" y="19800"/><use xlink:href="#EyPlkDqsd0xvl5x91j___pad-23" x="40800" y="21200"/><use xlink:href="#EyPlkDqsd0xvl5x91j___pad-23" x="36800" y="31600"/><use xlink:href="#EyPlkDqsd0xvl5x91j___pad-23" x="36800" y="29600"/><use xlink:href="#EyPlkDqsd0xvl5x91j___pad-23" x="37900" y="27900"/><use xlink:href="#EyPlkDqsd0xvl5x91j___pad-23" x="39600" y="28000"/><use xlink:href="#EyPlkDqsd0xvl5x91j___pad-23" x="40700" y="29600"/><use xlink:href="#EyPlkDqsd0xvl5x91j___pad-23" x="40400" y="31500"/><use xlink:href="#EyPlkDqsd0xvl5x91j___pad-23" x="14100" y="19200"/><use xlink:href="#EyPlkDqsd0xvl5x91j___pad-23" x="14100" y="20000"/><use xlink:href="#EyPlkDqsd0xvl5x91j___pad-23" x="14100" y="20800"/><use xlink:href="#EyPlkDqsd0xvl5x91j___pad-23" x="19400" y="43100"/><use xlink:href="#EyPlkDqsd0xvl5x91j___pad-23" x="19400" y="43900"/><use xlink:href="#EyPlkDqsd0xvl5x91j___pad-23" x="19300" y="44800"/><use xlink:href="#EyPlkDqsd0xvl5x91j___pad-23" x="29700" y="25500"/><use xlink:href="#EyPlkDqsd0xvl5x91j___pad-23" x="27865" y="26265"/><use xlink:href="#EyPlkDqsd0xvl5x91j___pad-23" x="28300" y="36600"/><use xlink:href="#EyPlkDqsd0xvl5x91j___pad-23" x="33600" y="19600"/><use xlink:href="#EyPlkDqsd0xvl5x91j___pad-23" x="35900" y="36400"/><use xlink:href="#EyPlkDqsd0xvl5x91j___pad-23" x="35600" y="13500"/><use xlink:href="#EyPlkDqsd0xvl5x91j___pad-23" x="19000" y="37100"/><use xlink:href="#EyPlkDqsd0xvl5x91j___pad-23" x="19000" y="13100"/><use xlink:href="#EyPlkDqsd0xvl5x91j___pad-23" x="13497.5" y="13092.5"/><use xlink:href="#EyPlkDqsd0xvl5x91j___pad-23" x="13497.5" y="16902.5"/><use xlink:href="#EyPlkDqsd0xvl5x91j___pad-23" x="28200" y="41000"/><use xlink:href="#EyPlkDqsd0xvl5x91j___pad-23" x="23800" y="23900"/><use xlink:href="#EyPlkDqsd0xvl5x91j___pad-23" x="26200" y="23900"/><use xlink:href="#EyPlkDqsd0xvl5x91j___pad-23" x="26200" y="26100"/><use xlink:href="#EyPlkDqsd0xvl5x91j___pad-23" x="23900" y="26100"/><use xlink:href="#EyPlkDqsd0xvl5x91j___pad-23" x="24400" y="32400"/><use xlink:href="#EyPlkDqsd0xvl5x91j___pad-23" x="25000" y="16400"/><use xlink:href="#EyPlkDqsd0xvl5x91j___pad-23" x="11800" y="27400"/><use xlink:href="#EyPlkDqsd0xvl5x91j___pad-23" x="29700" y="36600"/><use xlink:href="#EyPlkDqsd0xvl5x91j___pad-23" x="30400" y="31100"/><use xlink:href="#EyPlkDqsd0xvl5x91j___pad-23" x="22700" y="16700"/><use xlink:href="#EyPlkDqsd0xvl5x91j___pad-23" x="27400" y="15700"/><use xlink:href="#EyPlkDqsd0xvl5x91j___pad-23" x="11800" y="29700"/><use xlink:href="#EyPlkDqsd0xvl5x91j___pad-23" x="11800" y="32700"/><use xlink:href="#EyPlkDqsd0xvl5x91j___pad-23" x="19850" y="31350"/><use xlink:href="#EyPlkDqsd0xvl5x91j___pad-23" x="23400" y="29500"/><use xlink:href="#EyPlkDqsd0xvl5x91j___pad-23" x="21800" y="31900"/><use xlink:href="#EyPlkDqsd0xvl5x91j___pad-23" x="25100" y="28800"/><use xlink:href="#EyPlkDqsd0xvl5x91j___pad-23" x="25700" y="28200"/><use xlink:href="#EyPlkDqsd0xvl5x91j___pad-23" x="11800" y="25000"/><use xlink:href="#EyPlkDqsd0xvl5x91j___pad-23" x="29550" y="23050"/><use xlink:href="#EyPlkDqsd0xvl5x91j___pad-23" x="27600" y="22000"/><use xlink:href="#EyPlkDqsd0xvl5x91j___pad-23" x="30650" y="19550"/><use xlink:href="#EyPlkDqsd0xvl5x91j___pad-23" x="24900" y="21100"/><use xlink:href="#EyPlkDqsd0xvl5x91j___pad-23" x="23500" y="21000"/><use xlink:href="#EyPlkDqsd0xvl5x91j___pad-23" x="19850" y="18350"/><use xlink:href="#EyPlkDqsd0xvl5x91j___pad-23" x="21500" y="23500"/><use xlink:href="#EyPlkDqsd0xvl5x91j___pad-23" x="21700" y="24700"/><use xlink:href="#EyPlkDqsd0xvl5x91j___pad-23" x="21500" y="26600"/><use xlink:href="#EyPlkDqsd0xvl5x91j___pad-30" x="32650" y="21900"/><use xlink:href="#EyPlkDqsd0xvl5x91j___pad-30" x="29550" y="21900"/><use xlink:href="#EyPlkDqsd0xvl5x91j___pad-31" x="31550" y="24400"/><use xlink:href="#EyPlkDqsd0xvl5x91j___pad-31" x="29650" y="24400"/><use xlink:href="#EyPlkDqsd0xvl5x91j___pad-31" x="31550" y="26700"/><use xlink:href="#EyPlkDqsd0xvl5x91j___pad-31" x="29650" y="26700"/><use xlink:href="#EyPlkDqsd0xvl5x91j___pad-31" x="31550" y="29800"/><use xlink:href="#EyPlkDqsd0xvl5x91j___pad-31" x="29650" y="29800"/><use xlink:href="#EyPlkDqsd0xvl5x91j___pad-31" x="29650" y="32800"/><use xlink:href="#EyPlkDqsd0xvl5x91j___pad-31" x="31550" y="32800"/><use xlink:href="#EyPlkDqsd0xvl5x91j___pad-31" x="17950" y="20200"/><use xlink:href="#EyPlkDqsd0xvl5x91j___pad-31" x="19850" y="20200"/><use xlink:href="#EyPlkDqsd0xvl5x91j___pad-31" x="19750" y="24700"/><use xlink:href="#EyPlkDqsd0xvl5x91j___pad-31" x="17850" y="24700"/><use xlink:href="#EyPlkDqsd0xvl5x91j___pad-31" x="17950" y="29700"/><use xlink:href="#EyPlkDqsd0xvl5x91j___pad-31" x="19850" y="29700"/><use xlink:href="#EyPlkDqsd0xvl5x91j___pad-32" x="31550" y="35100"/><use xlink:href="#EyPlkDqsd0xvl5x91j___pad-32" x="29650" y="35100"/><use xlink:href="#EyPlkDqsd0xvl5x91j___pad-32" x="15650" y="25000"/><use xlink:href="#EyPlkDqsd0xvl5x91j___pad-32" x="13750" y="25000"/><use xlink:href="#EyPlkDqsd0xvl5x91j___pad-32" x="13750" y="27400"/><use xlink:href="#EyPlkDqsd0xvl5x91j___pad-32" x="15650" y="27400"/><use xlink:href="#EyPlkDqsd0xvl5x91j___pad-32" x="15650" y="29700"/><use xlink:href="#EyPlkDqsd0xvl5x91j___pad-32" x="13750" y="29700"/><use xlink:href="#EyPlkDqsd0xvl5x91j___pad-32" x="15650" y="32700"/><use xlink:href="#EyPlkDqsd0xvl5x91j___pad-32" x="13750" y="32700"/><use xlink:href="#EyPlkDqsd0xvl5x91j___pad-32" x="15750" y="34900"/><use xlink:href="#EyPlkDqsd0xvl5x91j___pad-32" x="13850" y="34900"/><use xlink:href="#EyPlkDqsd0xvl5x91j___pad-32" x="20050" y="22400"/><use xlink:href="#EyPlkDqsd0xvl5x91j___pad-32" x="18150" y="22400"/><use xlink:href="#EyPlkDqsd0xvl5x91j___pad-32" x="20050" y="27400"/><use xlink:href="#EyPlkDqsd0xvl5x91j___pad-32" x="18150" y="27400"/><use xlink:href="#EyPlkDqsd0xvl5x91j___pad-32" x="25350" y="41000"/><use xlink:href="#EyPlkDqsd0xvl5x91j___pad-32" x="27250" y="41000"/><use xlink:href="#EyPlkDqsd0xvl5x91j___pad-32" x="27400" y="38800"/><use xlink:href="#EyPlkDqsd0xvl5x91j___pad-32" x="25500" y="38800"/><use xlink:href="#EyPlkDqsd0xvl5x91j___pad-32" x="27250" y="36600"/><use xlink:href="#EyPlkDqsd0xvl5x91j___pad-32" x="25350" y="36600"/><use xlink:href="#EyPlkDqsd0xvl5x91j___pad-32" x="27350" y="34400"/><use xlink:href="#EyPlkDqsd0xvl5x91j___pad-32" x="25450" y="34400"/><use xlink:href="#EyPlkDqsd0xvl5x91j___pad-33" x="22700" y="19550"/><use xlink:href="#EyPlkDqsd0xvl5x91j___pad-33" x="22700" y="17650"/><use xlink:href="#EyPlkDqsd0xvl5x91j___pad-33" x="25000" y="17650"/><use xlink:href="#EyPlkDqsd0xvl5x91j___pad-33" x="25000" y="19550"/><use xlink:href="#EyPlkDqsd0xvl5x91j___pad-33" x="27400" y="19550"/><use xlink:href="#EyPlkDqsd0xvl5x91j___pad-33" x="27400" y="17650"/><use xlink:href="#EyPlkDqsd0xvl5x91j___pad-33" x="29700" y="17650"/><use xlink:href="#EyPlkDqsd0xvl5x91j___pad-33" x="29700" y="19550"/><use xlink:href="#EyPlkDqsd0xvl5x91j___pad-33" x="32000" y="19550"/><use xlink:href="#EyPlkDqsd0xvl5x91j___pad-33" x="32000" y="17650"/><use xlink:href="#EyPlkDqsd0xvl5x91j___pad-33" x="25700" y="32350"/><use xlink:href="#EyPlkDqsd0xvl5x91j___pad-33" x="25700" y="30450"/><use xlink:href="#EyPlkDqsd0xvl5x91j___pad-34" x="26750" y="22600"/><use xlink:href="#EyPlkDqsd0xvl5x91j___pad-34" x="26750" y="27400"/><use xlink:href="#EyPlkDqsd0xvl5x91j___pad-34" x="26250" y="27400"/><use xlink:href="#EyPlkDqsd0xvl5x91j___pad-34" x="26250" y="22600"/><use xlink:href="#EyPlkDqsd0xvl5x91j___pad-34" x="24750" y="27400"/><use xlink:href="#EyPlkDqsd0xvl5x91j___pad-34" x="24750" y="22600"/><use xlink:href="#EyPlkDqsd0xvl5x91j___pad-34" x="24250" y="22600"/><use xlink:href="#EyPlkDqsd0xvl5x91j___pad-34" x="23750" y="27400"/><use xlink:href="#EyPlkDqsd0xvl5x91j___pad-34" x="23750" y="22600"/><use xlink:href="#EyPlkDqsd0xvl5x91j___pad-34" x="25250" y="27400"/><use xlink:href="#EyPlkDqsd0xvl5x91j___pad-34" x="23250" y="27400"/><use xlink:href="#EyPlkDqsd0xvl5x91j___pad-34" x="25250" y="22600"/><use xlink:href="#EyPlkDqsd0xvl5x91j___pad-34" x="25750" y="27400"/><use xlink:href="#EyPlkDqsd0xvl5x91j___pad-34" x="24250" y="27400"/><use xlink:href="#EyPlkDqsd0xvl5x91j___pad-34" x="25750" y="22600"/><use xlink:href="#EyPlkDqsd0xvl5x91j___pad-34" x="23250" y="22600"/><use xlink:href="#EyPlkDqsd0xvl5x91j___pad-35" x="27400" y="26250"/><use xlink:href="#EyPlkDqsd0xvl5x91j___pad-35" x="27400" y="24250"/><use xlink:href="#EyPlkDqsd0xvl5x91j___pad-35" x="22600" y="25750"/><use xlink:href="#EyPlkDqsd0xvl5x91j___pad-35" x="22600" y="23750"/><use xlink:href="#EyPlkDqsd0xvl5x91j___pad-35" x="22600" y="26750"/><use xlink:href="#EyPlkDqsd0xvl5x91j___pad-35" x="27400" y="24750"/><use xlink:href="#EyPlkDqsd0xvl5x91j___pad-35" x="27400" y="23250"/><use xlink:href="#EyPlkDqsd0xvl5x91j___pad-35" x="27400" y="23750"/><use xlink:href="#EyPlkDqsd0xvl5x91j___pad-35" x="22600" y="24250"/><use xlink:href="#EyPlkDqsd0xvl5x91j___pad-35" x="22600" y="25250"/><use xlink:href="#EyPlkDqsd0xvl5x91j___pad-35" x="22600" y="26250"/><use xlink:href="#EyPlkDqsd0xvl5x91j___pad-35" x="22600" y="24750"/><use xlink:href="#EyPlkDqsd0xvl5x91j___pad-35" x="27400" y="25750"/><use xlink:href="#EyPlkDqsd0xvl5x91j___pad-35" x="22600" y="23250"/><use xlink:href="#EyPlkDqsd0xvl5x91j___pad-35" x="27400" y="25250"/><use xlink:href="#EyPlkDqsd0xvl5x91j___pad-35" x="27400" y="26750"/><use xlink:href="#EyPlkDqsd0xvl5x91j___pad-36" x="25000" y="25000"/><path d="M 25450 38800 25450 40900 M 25450 36600 25450 38800 M 26750 29250 27000 29500 M 25450 34400 25450 36600 M 27000 29500 27000 33100 M 26700 33400 27000 33100 M 25567.2 33400 26700 33400 M 25450 33517.2 25450 34400 M 26750 27400 26750 29250" fill="none" stroke-width="300"/><path d="M 15650 25650 15650 27400 M 15650 25225 15650 25650 M 15650 27400 15650 29700" fill="none" stroke-width="600"/><path d="M 19850 18350 19850 20200 21100 20200 M 22500 21600 22841.4 21600 M 21100 20200 22500 21600 M 19850 29700 19850 31350 M 19850 29500 20100 29250 M 20300 29250 21650 27900 M 19850 29500 19850 29700 M 20100 29250 20300 29250 M 21650 27900 22800 27900" fill="none" stroke-width="400"/></g><g id="no0_-f79qrCfYWbMv2QV_bottom_silkscreen"><path d="M 28800 20700 33400 20700 M 28800 20700 28800 23100 33400 23100 M 33400 20700 33400 23100 M 28800 23400 28800 25400 M 28800 23400 32400 23400 M 28800 25400 32400 25400 M 32400 23400 32400 25400 M 28800 25700 28800 27700 M 28800 25700 32400 25700 M 28800 27700 32400 27700 M 32400 25700 32400 27700 M 28800 28800 28800 30800 M 28800 28800 32400 28800 M 28800 30800 32400 30800 M 32400 28800 32400 30800 M 32400 31800 32400 33800 M 28800 33800 32400 33800 M 28800 31800 32400 31800 M 28800 31800 28800 33800 M 32300 34200 32300 36000 M 28900 34200 28900 36000 M 28900 34200 32300 34200 M 28900 36000 32300 36000 M 21800 20300 23600 20300 M 21800 16900 23600 16900 23600 20300 M 21800 16900 21800 20300 M 24100 16900 25900 16900 M 24100 20300 25900 20300 M 24100 16900 24100 20300 M 25900 16900 25900 20300 M 26500 20300 28300 20300 M 26500 16900 28300 16900 28300 20300 M 26500 16900 26500 20300 M 28800 16900 30600 16900 M 28800 20300 30600 20300 M 28800 16900 28800 20300 M 30600 16900 30600 20300 M 31100 20300 32900 20300 M 31100 16900 32900 16900 32900 20300 M 31100 16900 31100 20300 M 16400 24100 16400 25900 M 13000 24100 13000 25900 M 13000 24100 16400 24100 M 13000 25900 16400 25900 M 13000 26500 13000 28300 M 16400 26500 16400 28300 M 13000 28300 16400 28300 M 13000 26500 16400 26500 M 16400 28800 16400 30600 M 13000 28800 13000 30600 M 13000 28800 16400 28800 M 13000 30600 16400 30600 M 16400 31800 16400 33600 M 13000 31800 13000 33600 M 13000 31800 16400 31800 M 13000 33600 16400 33600 M 16500 34000 16500 35800 M 13100 34000 13100 35800 M 13100 34000 16500 34000 M 13100 35800 16500 35800 M 20700 19200 20700 21200 M 17100 21200 20700 21200 M 17100 19200 20700 19200 M 17100 19200 17100 21200 M 17400 21500 20800 21500 M 17400 23300 20800 23300 M 20800 21500 20800 23300 M 17400 21500 17400 23300 M 17000 23700 17000 25700 M 17000 23700 20600 23700 M 17000 25700 20600 25700 M 20600 23700 20600 25700 M 20800 26500 20800 28300 M 17400 26500 17400 28300 M 17400 26500 20800 26500 M 17400 28300 20800 28300 M 20700 28700 20700 30700 M 17100 30700 20700 30700 M 17100 28700 20700 28700 M 17100 28700 17100 30700 M 24600 41900 28000 41900 M 24600 40100 28000 40100 M 24600 40100 24600 41900 M 28000 40100 28000 41900 M 24750 37900 28150 37900 M 24750 39700 28150 39700 M 28150 37900 28150 39700 M 24750 37900 24750 39700 M 24600 35700 28000 35700 M 24600 37500 28000 37500 M 28000 35700 28000 37500 M 24600 35700 24600 37500 M 24700 33500 28100 33500 M 24700 35300 28100 35300 M 28100 33500 28100 35300 M 24700 33500 24700 35300 M 26600 29700 26600 33100 M 24800 29700 24800 33100 26600 33100 M 24800 29700 26600 29700 M 27600 22400 27600 22800 M 27200 22400 27600 22400 M 22400 22400 22400 22800 M 22400 22400 22800 22400 M 22400 27600 22800 27600 M 22400 27200 22400 27600 M 27200 27600 27400 27600 M 27600 27200 27600 27400 M 27400 27600 27600 27400" fill="none" stroke-width="200"/><path d="M 37400 22807.8 37653.9 23061.8 38161.8 23061.8 38415.7 22807.8 38415.7 21792.2 38161.8 21538.2 37653.9 21538.2 37400 21792.2 M 36892.2 21538.2 36384.3 21538.2 36638.2 21538.2 36638.2 23061.8 36892.2 22807.8 M 37853.9 25107.8 38107.8 25361.7 38615.7 25361.7 38869.6 25107.8 38869.6 24092.2 38615.7 23838.2 38107.8 23838.2 37853.9 24092.2 M 36330.4 23838.2 37346.1 23838.2 36330.4 24853.9 36330.4 25107.8 36584.3 25361.7 37092.2 25361.7 37346.1 25107.8 M 37834.8 27307.8 38088.7 27561.8 38596.5 27561.8 38850.5 27307.8 38850.5 26292.2 38596.5 26038.2 38088.7 26038.2 37834.8 26292.2 M 37327 26038.2 36819.1 26038.2 37073 26038.2 37073 27561.8 37327 27307.8 M 36057.4 26038.2 35549.5 26038.2 35803.5 26038.2 35803.5 27561.8 36057.4 27307.8 M 37853.9 30307.8 38107.8 30561.8 38615.7 30561.8 38869.6 30307.8 38869.6 29292.2 38615.7 29038.2 38107.8 29038.2 37853.9 29292.2 M 36584.3 29038.2 36584.3 30561.8 37346.1 29800 36330.4 29800 M 38535.3 33443 38789.2 33696.9 39297.1 33696.9 39551 33443 39551 32427.3 39297.1 32173.4 38789.2 32173.4 38535.3 32427.3 M 38027.5 32173.4 37519.7 32173.4 37773.6 32173.4 37773.6 33696.9 38027.5 33443 M 35742.2 32173.4 36757.9 32173.4 35742.2 33189.1 35742.2 33443 35996.2 33696.9 36504 33696.9 36757.9 33443 M 38969.6 34538.2 38969.6 36061.7 38207.8 36061.7 37953.9 35807.8 37953.9 35300 38207.8 35046.1 38969.6 35046.1 M 38461.8 35046.1 37953.9 34538.2 M 37446.1 35807.8 37192.2 36061.7 36684.3 36061.7 36430.4 35807.8 36430.4 35553.9 36684.3 35300 36430.4 35046.1 36430.4 34792.2 36684.3 34538.2 37192.2 34538.2 37446.1 34792.2 37446.1 35046.1 37192.2 35300 37446.1 35553.9 37446.1 35807.8 M 37192.2 35300 36684.3 35300 M 21838.2 12295.6 23361.8 12295.6 23361.8 13057.4 23107.8 13311.3 22600 13311.3 22346.1 13057.4 22346.1 12295.6 M 22346.1 12803.4 21838.2 13311.3 M 21838.2 13819.1 21838.2 14327 21838.2 14073 23361.8 14073 23107.8 13819.1 M 21838.2 15088.7 21838.2 15596.5 21838.2 15342.6 23361.8 15342.6 23107.8 15088.7 M 24238.3 12295.6 25761.7 12295.6 25761.7 13057.4 25507.8 13311.3 25000 13311.3 24746.1 13057.4 24746.1 12295.6 M 24746.1 12803.4 24238.3 13311.3 M 25761.7 14834.8 25507.8 14327 25000 13819.1 24492.2 13819.1 24238.3 14073 24238.3 14580.9 24492.2 14834.8 24746.1 14834.8 25000 14580.9 25000 13819.1 M 26438.2 12295.6 27961.8 12295.6 27961.8 13057.4 27707.8 13311.3 27200 13311.3 26946.1 13057.4 26946.1 12295.6 M 26946.1 12803.4 26438.2 13311.3 M 26438.2 13819.1 26438.2 14327 26438.2 14073 27961.8 14073 27707.8 13819.1 M 27707.8 15088.7 27961.8 15342.6 27961.8 15850.5 27707.8 16104.4 27453.9 16104.4 27200 15850.5 27200 15596.5 27200 15850.5 26946.1 16104.4 26692.2 16104.4 26438.2 15850.5 26438.2 15342.6 26692.2 15088.7 M 28838.2 12295.6 30361.8 12295.6 30361.8 13057.4 30107.8 13311.3 29600 13311.3 29346.1 13057.4 29346.1 12295.6 M 29346.1 12803.4 28838.2 13311.3 M 28838.2 13819.1 28838.2 14327 28838.2 14073 30361.8 14073 30107.8 13819.1 M 28838.2 16104.4 28838.2 15088.7 29853.9 16104.4 30107.8 16104.4 30361.8 15850.5 30361.8 15342.6 30107.8 15088.7 M 31238.3 12295.6 32761.7 12295.6 32761.7 13057.4 32507.8 13311.3 32000 13311.3 31746.1 13057.4 31746.1 12295.6 M 31746.1 12803.4 31238.3 13311.3 M 31238.3 13819.1 31238.3 14327 31238.3 14073 32761.7 14073 32507.8 13819.1 M 32761.7 15088.7 32761.7 16104.4 32507.8 16104.4 31492.2 15088.7 31238.3 15088.7 M 10958.4 24274 10958.4 25797.5 10196.6 25797.5 9942.7 25543.6 9942.7 25035.7 10196.6 24781.8 10958.4 24781.8 M 10450.6 24781.8 9942.7 24274 M 9434.9 24274 8927.1 24274 9181 24274 9181 25797.5 9434.9 25543.6 M 10958.4 26661.6 10958.4 28185.1 10196.6 28185.1 9942.7 27931.2 9942.7 27423.3 10196.6 27169.4 10958.4 27169.4 M 10450.6 27169.4 9942.7 26661.6 M 8419.2 26661.6 9434.9 26661.6 8419.2 27677.3 8419.2 27931.2 8673.1 28185.1 9181 28185.1 9434.9 27931.2 M 10958.4 28973 10958.4 30496.5 10196.6 30496.5 9942.7 30242.6 9942.7 29734.8 10196.6 29480.8 10958.4 29480.8 M 10450.6 29480.8 9942.7 28973 M 9434.9 30242.6 9181 30496.5 8673.1 30496.5 8419.2 30242.6 8419.2 29988.7 8673.1 29734.8 8927.1 29734.8 8673.1 29734.8 8419.2 29480.8 8419.2 29226.9 8673.1 28973 9181 28973 9434.9 29226.9 M 10958.4 31970.2 10958.4 33493.7 10196.6 33493.7 9942.7 33239.8 9942.7 32731.9 10196.6 32478 10958.4 32478 M 10450.6 32478 9942.7 31970.2 M 9434.9 31970.2 8927.1 31970.2 9181 31970.2 9181 33493.7 9434.9 33239.8 M 8165.3 33239.8 7911.4 33493.7 7403.6 33493.7 7149.6 33239.8 7149.6 32224.1 7403.6 31970.2 7911.4 31970.2 8165.3 32224.1 8165.3 33239.8 M 11034.6 34154.6 11034.6 35678.1 10272.9 35678.1 10018.9 35424.2 10018.9 34916.4 10272.9 34662.4 11034.6 34662.4 M 10526.8 34662.4 10018.9 34154.6 M 9511.1 34408.5 9257.2 34154.6 8749.3 34154.6 8495.4 34408.5 8495.4 35424.2 8749.3 35678.1 9257.2 35678.1 9511.1 35424.2 9511.1 35170.3 9257.2 34916.4 8495.4 34916.4 M 17236.9 8419.2 17490.9 8673.1 17998.7 8673.1 18252.6 8419.2 18252.6 7403.5 17998.7 7149.6 17490.9 7149.6 17236.9 7403.5 M 16729.1 8673.1 15713.4 8673.1 15713.4 8419.2 16729.1 7403.5 16729.1 7149.6 M 18252.6 9530.9 18252.6 11054.4 17490.9 11054.4 17236.9 10800.4 17236.9 10292.6 17490.9 10038.7 18252.6 10038.7 M 17744.8 10038.7 17236.9 9530.9 M 15967.3 9530.9 15967.3 11054.4 16729.1 10292.6 15713.4 10292.6 M 17236.9 13181.7 17490.9 13435.6 17998.7 13435.6 18252.6 13181.7 18252.6 12166 17998.7 11912.1 17490.9 11912.1 17236.9 12166 M 16729.1 13181.7 16475.2 13435.6 15967.3 13435.6 15713.4 13181.7 15713.4 12927.8 15967.3 12673.9 16221.3 12673.9 15967.3 12673.9 15713.4 12419.9 15713.4 12166 15967.3 11912.1 16475.2 11912.1 16729.1 12166 M 18252.6 14293.4 18252.6 15816.9 17490.9 15816.9 17236.9 15562.9 17236.9 15055.1 17490.9 14801.2 18252.6 14801.2 M 17744.8 14801.2 17236.9 14293.4 M 15713.4 15816.9 16729.1 15816.9 16729.1 15055.1 16221.3 15309 15967.3 15309 15713.4 15055.1 15713.4 14547.3 15967.3 14293.4 16475.2 14293.4 16729.1 14547.3 M 17236.9 17944.2 17490.9 18198.1 17998.7 18198.1 18252.6 17944.2 18252.6 16928.5 17998.7 16674.6 17490.9 16674.6 17236.9 16928.5 M 16729.1 17944.2 16475.2 18198.1 15967.3 18198.1 15713.4 17944.2 15713.4 17690.3 15967.3 17436.3 15713.4 17182.4 15713.4 16928.5 15967.3 16674.6 16475.2 16674.6 16729.1 16928.5 16729.1 17182.4 16475.2 17436.3 16729.1 17690.3 16729.1 17944.2 M 16475.2 17436.3 15967.3 17436.3 M 23704.4 40138.2 23704.4 41661.8 22942.6 41661.8 22688.7 41407.8 22688.7 40900 22942.6 40646.1 23704.4 40646.1 M 23196.6 40646.1 22688.7 40138.2 M 22180.9 40138.2 21673 40138.2 21927 40138.2 21927 41661.8 22180.9 41407.8 M 20911.3 41407.8 20657.4 41661.8 20149.5 41661.8 19895.6 41407.8 19895.6 41153.9 20149.5 40900 19895.6 40646.1 19895.6 40392.2 20149.5 40138.2 20657.4 40138.2 20911.3 40392.2 20911.3 40646.1 20657.4 40900 20911.3 41153.9 20911.3 41407.8 M 20657.4 40900 20149.5 40900 M 23856.8 37953.8 23856.8 39477.3 23095 39477.3 22841.1 39223.4 22841.1 38715.6 23095 38461.7 23856.8 38461.7 M 23348.9 38461.7 22841.1 37953.8 M 22333.3 37953.8 21825.4 37953.8 22079.4 37953.8 22079.4 39477.3 22333.3 39223.4 M 20048 39477.3 21063.7 39477.3 21063.7 38715.6 20555.8 38969.5 20301.9 38969.5 20048 38715.6 20048 38207.8 20301.9 37953.8 20809.8 37953.8 21063.7 38207.8 M 23704.4 35744 23704.4 37267.6 22942.6 37267.6 22688.7 37013.6 22688.7 36505.8 22942.6 36251.9 23704.4 36251.9 M 23196.6 36251.9 22688.7 35744 M 22180.9 35744 21673 35744 21927 35744 21927 37267.6 22180.9 37013.6 M 19895.6 37267.6 20403.5 37013.6 20911.3 36505.8 20911.3 35998 20657.4 35744 20149.5 35744 19895.6 35998 19895.6 36251.9 20149.5 36505.8 20911.3 36505.8 M 23806 33559.7 23806 35083.1 23044.2 35083.1 22790.3 34829.2 22790.3 34321.4 23044.2 34067.5 23806 34067.5 M 23298.1 34067.5 22790.3 33559.7 M 22282.5 33559.7 21774.6 33559.7 22028.6 33559.7 22028.6 35083.1 22282.5 34829.2 M 20251.1 33559.7 20251.1 35083.1 21012.9 34321.4 19997.2 34321.4 M 23869.6 30738.3 23869.6 32261.7 23107.8 32261.7 22853.9 32007.8 22853.9 31500 23107.8 31246.1 23869.6 31246.1 M 23361.7 31246.1 22853.9 30738.3 M 22346.1 32261.7 21330.4 32261.7 21330.4 32007.8 22346.1 30992.2 22346.1 30738.3" fill="none" stroke-width="254"/><path d="M 34000 48061.7 33492.2 48061.7 33746.1 48061.7 33746.1 46538.2 34000 46538.2 33492.2 46538.2 M 31714.7 47807.8 31968.7 48061.7 32476.5 48061.7 32730.4 47807.8 32730.4 47553.9 32476.5 47300 31968.7 47300 31714.7 47046.1 31714.7 46792.2 31968.7 46538.2 32476.5 46538.2 32730.4 46792.2 M 31206.9 48061.7 31206.9 46538.2 30191.2 46538.2 M 28667.7 48061.7 29175.6 47807.8 29683.4 47300 29683.4 46792.2 29429.5 46538.2 28921.6 46538.2 28667.7 46792.2 28667.7 47046.1 28921.6 47300 29683.4 47300 M 27144.2 46538.2 28159.9 46538.2 27144.2 47553.9 27144.2 47807.8 27398.1 48061.7 27906 48061.7 28159.9 47807.8 M 26636.4 47807.8 26382.5 48061.7 25874.6 48061.7 25620.7 47807.8 25620.7 47553.9 25874.6 47300 26128.5 47300 25874.6 47300 25620.7 47046.1 25620.7 46792.2 25874.6 46538.2 26382.5 46538.2 26636.4 46792.2 M 24097.2 48061.7 24605 47807.8 25112.9 47300 25112.9 46792.2 24859 46538.2 24351.1 46538.2 24097.2 46792.2 24097.2 47046.1 24351.1 47300 25112.9 47300 M 23589.4 46538.2 23589.4 47553.9 23081.5 48061.7 22573.7 47553.9 22573.7 46538.2 22573.7 47300 23589.4 47300 M 20542.4 48061.7 20542.4 47046.1 20034.5 46538.2 19526.7 47046.1 19526.7 48061.7 M 19018.9 46538.2 18511 46538.2 18764.9 46538.2 18764.9 48061.7 19018.9 47807.8" fill="none" stroke-width="400"/></g><g id="no0_-f79qrCfYWbMv2QV_bottom_soldermask"><use xlink:href="#fGAbJTawKulHIo3jzrJ5_pad-20" x="5000" y="20000"/><use xlink:href="#fGAbJTawKulHIo3jzrJ5_pad-20" x="45000" y="20000"/><use xlink:href="#fGAbJTawKulHIo3jzrJ5_pad-20" x="45000" y="14000"/><use xlink:href="#fGAbJTawKulHIo3jzrJ5_pad-20" x="45000" y="36000"/><use xlink:href="#fGAbJTawKulHIo3jzrJ5_pad-20" x="45000" y="30000"/><use xlink:href="#fGAbJTawKulHIo3jzrJ5_pad-20" x="5000" y="30000"/><use xlink:href="#fGAbJTawKulHIo3jzrJ5_pad-40" x="32650" y="21900"/><use xlink:href="#fGAbJTawKulHIo3jzrJ5_pad-40" x="29550" y="21900"/><use xlink:href="#fGAbJTawKulHIo3jzrJ5_pad-41" x="31550" y="24400"/><use xlink:href="#fGAbJTawKulHIo3jzrJ5_pad-41" x="29650" y="24400"/><use xlink:href="#fGAbJTawKulHIo3jzrJ5_pad-41" x="31550" y="26700"/><use xlink:href="#fGAbJTawKulHIo3jzrJ5_pad-41" x="29650" y="26700"/><use xlink:href="#fGAbJTawKulHIo3jzrJ5_pad-41" x="31550" y="29800"/><use xlink:href="#fGAbJTawKulHIo3jzrJ5_pad-41" x="29650" y="29800"/><use xlink:href="#fGAbJTawKulHIo3jzrJ5_pad-41" x="29650" y="32800"/><use xlink:href="#fGAbJTawKulHIo3jzrJ5_pad-41" x="31550" y="32800"/><use xlink:href="#fGAbJTawKulHIo3jzrJ5_pad-41" x="17950" y="20200"/><use xlink:href="#fGAbJTawKulHIo3jzrJ5_pad-41" x="19850" y="20200"/><use xlink:href="#fGAbJTawKulHIo3jzrJ5_pad-41" x="19750" y="24700"/><use xlink:href="#fGAbJTawKulHIo3jzrJ5_pad-41" x="17850" y="24700"/><use xlink:href="#fGAbJTawKulHIo3jzrJ5_pad-41" x="17950" y="29700"/><use xlink:href="#fGAbJTawKulHIo3jzrJ5_pad-41" x="19850" y="29700"/><use xlink:href="#fGAbJTawKulHIo3jzrJ5_pad-42" x="31550" y="35100"/><use xlink:href="#fGAbJTawKulHIo3jzrJ5_pad-42" x="29650" y="35100"/><use xlink:href="#fGAbJTawKulHIo3jzrJ5_pad-42" x="15650" y="25000"/><use xlink:href="#fGAbJTawKulHIo3jzrJ5_pad-42" x="13750" y="25000"/><use xlink:href="#fGAbJTawKulHIo3jzrJ5_pad-42" x="13750" y="27400"/><use xlink:href="#fGAbJTawKulHIo3jzrJ5_pad-42" x="15650" y="27400"/><use xlink:href="#fGAbJTawKulHIo3jzrJ5_pad-42" x="15650" y="29700"/><use xlink:href="#fGAbJTawKulHIo3jzrJ5_pad-42" x="13750" y="29700"/><use xlink:href="#fGAbJTawKulHIo3jzrJ5_pad-42" x="15650" y="32700"/><use xlink:href="#fGAbJTawKulHIo3jzrJ5_pad-42" x="13750" y="32700"/><use xlink:href="#fGAbJTawKulHIo3jzrJ5_pad-42" x="15750" y="34900"/><use xlink:href="#fGAbJTawKulHIo3jzrJ5_pad-42" x="13850" y="34900"/><use xlink:href="#fGAbJTawKulHIo3jzrJ5_pad-42" x="20050" y="22400"/><use xlink:href="#fGAbJTawKulHIo3jzrJ5_pad-42" x="18150" y="22400"/><use xlink:href="#fGAbJTawKulHIo3jzrJ5_pad-42" x="20050" y="27400"/><use xlink:href="#fGAbJTawKulHIo3jzrJ5_pad-42" x="18150" y="27400"/><use xlink:href="#fGAbJTawKulHIo3jzrJ5_pad-42" x="25350" y="41000"/><use xlink:href="#fGAbJTawKulHIo3jzrJ5_pad-42" x="27250" y="41000"/><use xlink:href="#fGAbJTawKulHIo3jzrJ5_pad-42" x="27400" y="38800"/><use xlink:href="#fGAbJTawKulHIo3jzrJ5_pad-42" x="25500" y="38800"/><use xlink:href="#fGAbJTawKulHIo3jzrJ5_pad-42" x="27250" y="36600"/><use xlink:href="#fGAbJTawKulHIo3jzrJ5_pad-42" x="25350" y="36600"/><use xlink:href="#fGAbJTawKulHIo3jzrJ5_pad-42" x="27350" y="34400"/><use xlink:href="#fGAbJTawKulHIo3jzrJ5_pad-42" x="25450" y="34400"/><use xlink:href="#fGAbJTawKulHIo3jzrJ5_pad-43" x="22700" y="19550"/><use xlink:href="#fGAbJTawKulHIo3jzrJ5_pad-43" x="22700" y="17650"/><use xlink:href="#fGAbJTawKulHIo3jzrJ5_pad-43" x="25000" y="17650"/><use xlink:href="#fGAbJTawKulHIo3jzrJ5_pad-43" x="25000" y="19550"/><use xlink:href="#fGAbJTawKulHIo3jzrJ5_pad-43" x="27400" y="19550"/><use xlink:href="#fGAbJTawKulHIo3jzrJ5_pad-43" x="27400" y="17650"/><use xlink:href="#fGAbJTawKulHIo3jzrJ5_pad-43" x="29700" y="17650"/><use xlink:href="#fGAbJTawKulHIo3jzrJ5_pad-43" x="29700" y="19550"/><use xlink:href="#fGAbJTawKulHIo3jzrJ5_pad-43" x="32000" y="19550"/><use xlink:href="#fGAbJTawKulHIo3jzrJ5_pad-43" x="32000" y="17650"/><use xlink:href="#fGAbJTawKulHIo3jzrJ5_pad-43" x="25700" y="32350"/><use xlink:href="#fGAbJTawKulHIo3jzrJ5_pad-43" x="25700" y="30450"/><use xlink:href="#fGAbJTawKulHIo3jzrJ5_pad-44" x="26750" y="22600"/><use xlink:href="#fGAbJTawKulHIo3jzrJ5_pad-44" x="26750" y="27400"/><use xlink:href="#fGAbJTawKulHIo3jzrJ5_pad-44" x="26250" y="27400"/><use xlink:href="#fGAbJTawKulHIo3jzrJ5_pad-44" x="26250" y="22600"/><use xlink:href="#fGAbJTawKulHIo3jzrJ5_pad-44" x="24750" y="27400"/><use xlink:href="#fGAbJTawKulHIo3jzrJ5_pad-44" x="24750" y="22600"/><use xlink:href="#fGAbJTawKulHIo3jzrJ5_pad-44" x="24250" y="22600"/><use xlink:href="#fGAbJTawKulHIo3jzrJ5_pad-44" x="23750" y="27400"/><use xlink:href="#fGAbJTawKulHIo3jzrJ5_pad-44" x="23750" y="22600"/><use xlink:href="#fGAbJTawKulHIo3jzrJ5_pad-44" x="25250" y="27400"/><use xlink:href="#fGAbJTawKulHIo3jzrJ5_pad-44" x="23250" y="27400"/><use xlink:href="#fGAbJTawKulHIo3jzrJ5_pad-44" x="25250" y="22600"/><use xlink:href="#fGAbJTawKulHIo3jzrJ5_pad-44" x="25750" y="27400"/><use xlink:href="#fGAbJTawKulHIo3jzrJ5_pad-44" x="24250" y="27400"/><use xlink:href="#fGAbJTawKulHIo3jzrJ5_pad-44" x="25750" y="22600"/><use xlink:href="#fGAbJTawKulHIo3jzrJ5_pad-44" x="23250" y="22600"/><use xlink:href="#fGAbJTawKulHIo3jzrJ5_pad-45" x="27400" y="26250"/><use xlink:href="#fGAbJTawKulHIo3jzrJ5_pad-45" x="27400" y="24250"/><use xlink:href="#fGAbJTawKulHIo3jzrJ5_pad-45" x="22600" y="25750"/><use xlink:href="#fGAbJTawKulHIo3jzrJ5_pad-45" x="22600" y="23750"/><use xlink:href="#fGAbJTawKulHIo3jzrJ5_pad-45" x="22600" y="26750"/><use xlink:href="#fGAbJTawKulHIo3jzrJ5_pad-45" x="27400" y="24750"/><use xlink:href="#fGAbJTawKulHIo3jzrJ5_pad-45" x="27400" y="23250"/><use xlink:href="#fGAbJTawKulHIo3jzrJ5_pad-45" x="27400" y="23750"/><use xlink:href="#fGAbJTawKulHIo3jzrJ5_pad-45" x="22600" y="24250"/><use xlink:href="#fGAbJTawKulHIo3jzrJ5_pad-45" x="22600" y="25250"/><use xlink:href="#fGAbJTawKulHIo3jzrJ5_pad-45" x="22600" y="26250"/><use xlink:href="#fGAbJTawKulHIo3jzrJ5_pad-45" x="22600" y="24750"/><use xlink:href="#fGAbJTawKulHIo3jzrJ5_pad-45" x="27400" y="25750"/><use xlink:href="#fGAbJTawKulHIo3jzrJ5_pad-45" x="22600" y="23250"/><use xlink:href="#fGAbJTawKulHIo3jzrJ5_pad-45" x="27400" y="25250"/><use xlink:href="#fGAbJTawKulHIo3jzrJ5_pad-45" x="27400" y="26750"/><use xlink:href="#fGAbJTawKulHIo3jzrJ5_pad-46" x="25000" y="25000"/></g><g id="no0_-f79qrCfYWbMv2QV_bottom_solderpaste"><use xlink:href="#vGFUAbQ40x-38XGOxSSM_pad-30" x="32650" y="21900"/><use xlink:href="#vGFUAbQ40x-38XGOxSSM_pad-30" x="29550" y="21900"/><use xlink:href="#vGFUAbQ40x-38XGOxSSM_pad-31" x="31550" y="24400"/><use xlink:href="#vGFUAbQ40x-38XGOxSSM_pad-31" x="29650" y="24400"/><use xlink:href="#vGFUAbQ40x-38XGOxSSM_pad-31" x="31550" y="26700"/><use xlink:href="#vGFUAbQ40x-38XGOxSSM_pad-31" x="29650" y="26700"/><use xlink:href="#vGFUAbQ40x-38XGOxSSM_pad-31" x="31550" y="29800"/><use xlink:href="#vGFUAbQ40x-38XGOxSSM_pad-31" x="29650" y="29800"/><use xlink:href="#vGFUAbQ40x-38XGOxSSM_pad-31" x="29650" y="32800"/><use xlink:href="#vGFUAbQ40x-38XGOxSSM_pad-31" x="31550" y="32800"/><use xlink:href="#vGFUAbQ40x-38XGOxSSM_pad-31" x="17950" y="20200"/><use xlink:href="#vGFUAbQ40x-38XGOxSSM_pad-31" x="19850" y="20200"/><use xlink:href="#vGFUAbQ40x-38XGOxSSM_pad-31" x="19750" y="24700"/><use xlink:href="#vGFUAbQ40x-38XGOxSSM_pad-31" x="17850" y="24700"/><use xlink:href="#vGFUAbQ40x-38XGOxSSM_pad-31" x="17950" y="29700"/><use xlink:href="#vGFUAbQ40x-38XGOxSSM_pad-31" x="19850" y="29700"/><use xlink:href="#vGFUAbQ40x-38XGOxSSM_pad-32" x="31550" y="35100"/><use xlink:href="#vGFUAbQ40x-38XGOxSSM_pad-32" x="29650" y="35100"/><use xlink:href="#vGFUAbQ40x-38XGOxSSM_pad-32" x="15650" y="25000"/><use xlink:href="#vGFUAbQ40x-38XGOxSSM_pad-32" x="13750" y="25000"/><use xlink:href="#vGFUAbQ40x-38XGOxSSM_pad-32" x="13750" y="27400"/><use xlink:href="#vGFUAbQ40x-38XGOxSSM_pad-32" x="15650" y="27400"/><use xlink:href="#vGFUAbQ40x-38XGOxSSM_pad-32" x="15650" y="29700"/><use xlink:href="#vGFUAbQ40x-38XGOxSSM_pad-32" x="13750" y="29700"/><use xlink:href="#vGFUAbQ40x-38XGOxSSM_pad-32" x="15650" y="32700"/><use xlink:href="#vGFUAbQ40x-38XGOxSSM_pad-32" x="13750" y="32700"/><use xlink:href="#vGFUAbQ40x-38XGOxSSM_pad-32" x="15750" y="34900"/><use xlink:href="#vGFUAbQ40x-38XGOxSSM_pad-32" x="13850" y="34900"/><use xlink:href="#vGFUAbQ40x-38XGOxSSM_pad-32" x="20050" y="22400"/><use xlink:href="#vGFUAbQ40x-38XGOxSSM_pad-32" x="18150" y="22400"/><use xlink:href="#vGFUAbQ40x-38XGOxSSM_pad-32" x="20050" y="27400"/><use xlink:href="#vGFUAbQ40x-38XGOxSSM_pad-32" x="18150" y="27400"/><use xlink:href="#vGFUAbQ40x-38XGOxSSM_pad-32" x="25350" y="41000"/><use xlink:href="#vGFUAbQ40x-38XGOxSSM_pad-32" x="27250" y="41000"/><use xlink:href="#vGFUAbQ40x-38XGOxSSM_pad-32" x="27400" y="38800"/><use xlink:href="#vGFUAbQ40x-38XGOxSSM_pad-32" x="25500" y="38800"/><use xlink:href="#vGFUAbQ40x-38XGOxSSM_pad-32" x="27250" y="36600"/><use xlink:href="#vGFUAbQ40x-38XGOxSSM_pad-32" x="25350" y="36600"/><use xlink:href="#vGFUAbQ40x-38XGOxSSM_pad-32" x="27350" y="34400"/><use xlink:href="#vGFUAbQ40x-38XGOxSSM_pad-32" x="25450" y="34400"/><use xlink:href="#vGFUAbQ40x-38XGOxSSM_pad-33" x="22700" y="19550"/><use xlink:href="#vGFUAbQ40x-38XGOxSSM_pad-33" x="22700" y="17650"/><use xlink:href="#vGFUAbQ40x-38XGOxSSM_pad-33" x="25000" y="17650"/><use xlink:href="#vGFUAbQ40x-38XGOxSSM_pad-33" x="25000" y="19550"/><use xlink:href="#vGFUAbQ40x-38XGOxSSM_pad-33" x="27400" y="19550"/><use xlink:href="#vGFUAbQ40x-38XGOxSSM_pad-33" x="27400" y="17650"/><use xlink:href="#vGFUAbQ40x-38XGOxSSM_pad-33" x="29700" y="17650"/><use xlink:href="#vGFUAbQ40x-38XGOxSSM_pad-33" x="29700" y="19550"/><use xlink:href="#vGFUAbQ40x-38XGOxSSM_pad-33" x="32000" y="19550"/><use xlink:href="#vGFUAbQ40x-38XGOxSSM_pad-33" x="32000" y="17650"/><use xlink:href="#vGFUAbQ40x-38XGOxSSM_pad-33" x="25700" y="32350"/><use xlink:href="#vGFUAbQ40x-38XGOxSSM_pad-33" x="25700" y="30450"/><use xlink:href="#vGFUAbQ40x-38XGOxSSM_pad-44" x="26750" y="22600"/><use xlink:href="#vGFUAbQ40x-38XGOxSSM_pad-44" x="26750" y="27400"/><use xlink:href="#vGFUAbQ40x-38XGOxSSM_pad-44" x="26250" y="27400"/><use xlink:href="#vGFUAbQ40x-38XGOxSSM_pad-44" x="26250" y="22600"/><use xlink:href="#vGFUAbQ40x-38XGOxSSM_pad-44" x="24750" y="27400"/><use xlink:href="#vGFUAbQ40x-38XGOxSSM_pad-44" x="24750" y="22600"/><use xlink:href="#vGFUAbQ40x-38XGOxSSM_pad-44" x="24250" y="22600"/><use xlink:href="#vGFUAbQ40x-38XGOxSSM_pad-44" x="23750" y="27400"/><use xlink:href="#vGFUAbQ40x-38XGOxSSM_pad-44" x="23750" y="22600"/><use xlink:href="#vGFUAbQ40x-38XGOxSSM_pad-44" x="25250" y="27400"/><use xlink:href="#vGFUAbQ40x-38XGOxSSM_pad-44" x="23250" y="27400"/><use xlink:href="#vGFUAbQ40x-38XGOxSSM_pad-44" x="25250" y="22600"/><use xlink:href="#vGFUAbQ40x-38XGOxSSM_pad-44" x="25750" y="27400"/><use xlink:href="#vGFUAbQ40x-38XGOxSSM_pad-44" x="24250" y="27400"/><use xlink:href="#vGFUAbQ40x-38XGOxSSM_pad-44" x="25750" y="22600"/><use xlink:href="#vGFUAbQ40x-38XGOxSSM_pad-44" x="23250" y="22600"/><use xlink:href="#vGFUAbQ40x-38XGOxSSM_pad-45" x="27400" y="26250"/><use xlink:href="#vGFUAbQ40x-38XGOxSSM_pad-45" x="27400" y="24250"/><use xlink:href="#vGFUAbQ40x-38XGOxSSM_pad-45" x="22600" y="25750"/><use xlink:href="#vGFUAbQ40x-38XGOxSSM_pad-45" x="22600" y="23750"/><use xlink:href="#vGFUAbQ40x-38XGOxSSM_pad-45" x="22600" y="26750"/><use xlink:href="#vGFUAbQ40x-38XGOxSSM_pad-45" x="27400" y="24750"/><use xlink:href="#vGFUAbQ40x-38XGOxSSM_pad-45" x="27400" y="23250"/><use xlink:href="#vGFUAbQ40x-38XGOxSSM_pad-45" x="27400" y="23750"/><use xlink:href="#vGFUAbQ40x-38XGOxSSM_pad-45" x="22600" y="24250"/><use xlink:href="#vGFUAbQ40x-38XGOxSSM_pad-45" x="22600" y="25250"/><use xlink:href="#vGFUAbQ40x-38XGOxSSM_pad-45" x="22600" y="26250"/><use xlink:href="#vGFUAbQ40x-38XGOxSSM_pad-45" x="22600" y="24750"/><use xlink:href="#vGFUAbQ40x-38XGOxSSM_pad-45" x="27400" y="25750"/><use xlink:href="#vGFUAbQ40x-38XGOxSSM_pad-45" x="22600" y="23250"/><use xlink:href="#vGFUAbQ40x-38XGOxSSM_pad-45" x="27400" y="25250"/><use xlink:href="#vGFUAbQ40x-38XGOxSSM_pad-45" x="27400" y="26750"/><use xlink:href="#vGFUAbQ40x-38XGOxSSM_pad-46" x="25000" y="25000"/></g><clipPath id="no0_-f79qrCfYWbMv2QV_bottom_outline"><path d="M 4746.1 20761.7 4238.2 20761.7 4492.2 20761.7 4492.2 19492.2 4238.2 19238.3 3984.3 19238.3 3730.4 19492.2 M 6269.6 19238.3 5253.9 19238.3 6269.6 20253.9 6269.6 20507.8 6015.7 20761.7 5507.8 20761.7 5253.9 20507.8 M 26284.3 13761.8 26284.3 12238.2 27300 12238.2 M 27807.8 12238.2 28315.7 12238.2 28061.8 12238.2 28061.8 13761.8 27807.8 13507.8 M 44746.1 20761.7 44238.3 20761.7 44492.2 20761.7 44492.2 19492.2 44238.3 19238.3 43984.3 19238.3 43730.4 19492.2 M 46269.6 20761.7 45253.9 20761.7 45253.9 20000 45761.7 20253.9 46015.7 20253.9 46269.6 20000 46269.6 19492.2 46015.7 19238.3 45507.8 19238.3 45253.9 19492.2 M 44746.1 14761.8 44238.3 14761.8 44492.2 14761.8 44492.2 13492.2 44238.3 13238.2 43984.3 13238.2 43730.4 13492.2 M 45253.9 14507.8 45507.8 14761.8 46015.7 14761.8 46269.6 14507.8 46269.6 14253.9 46015.7 14000 45761.7 14000 M 46015.7 14000 46269.6 13746.1 46269.6 13492.2 46015.7 13238.2 45507.8 13238.2 45253.9 13492.2 M 44746.1 36761.7 44238.3 36761.7 44492.2 36761.7 44492.2 35492.2 44238.3 35238.3 43984.3 35238.3 43730.4 35492.2 M 46015.7 35238.3 46015.7 36761.7 45253.9 36000 46269.6 36000 M 44746.1 30761.7 44238.3 30761.7 44492.2 30761.7 44492.2 29492.2 44238.3 29238.3 43984.3 29238.3 43730.4 29492.2 M 46269.6 30761.7 45761.7 30507.8 45253.9 30000 45253.9 29492.2 45507.8 29238.3 46015.7 29238.3 46269.6 29492.2 46269.6 29746.1 46015.7 30000 45253.9 30000 M 5000 30761.7 4492.2 30761.7 4746.1 30761.7 4746.1 29492.2 4492.2 29238.3 4238.2 29238.3 3984.3 29492.2 M 5507.8 29238.3 6015.7 29238.3 5761.8 29238.3 5761.8 30761.7 5507.8 30507.8 M 14800 14492.2 14800 15507.8 14546.1 15761.8 14038.2 15761.8 13784.3 15507.8 13784.3 14492.2 14038.2 14238.2 14546.1 14238.2 14800 14492.2 M 14292.2 14746.1 14800 14238.2 M 15307.8 14238.2 15815.7 14238.2 15561.8 14238.2 15561.8 15761.8 15307.8 15507.8 M 14446.1 38492.2 14446.1 39507.8 14192.2 39761.7 13684.3 39761.7 13430.4 39507.8 13430.4 38492.2 13684.3 38238.3 14192.2 38238.3 14446.1 38492.2 M 13938.2 38746.1 14446.1 38238.3 M 15969.6 38238.3 14953.9 38238.3 15969.6 39253.9 15969.6 39507.8 15715.7 39761.7 15207.8 39761.7 14953.9 39507.8 M 26030.4 37761.7 26030.4 36238.3 27046.1 36238.3 M 28569.6 36238.3 27553.9 36238.3 28569.6 37253.9 28569.6 37507.8 28315.7 37761.7 27807.8 37761.7 27553.9 37507.8 M 16346.1 44507.8 16092.2 44761.7 15584.3 44761.7 15330.4 44507.8 15330.4 43492.2 15584.3 43238.3 16092.2 43238.3 16346.1 43492.2 M 17869.6 44761.7 17361.7 44507.8 16853.9 44000 16853.9 43492.2 17107.8 43238.3 17615.7 43238.3 17869.6 43492.2 17869.6 43746.1 17615.7 44000 16853.9 44000 M 38092.2 32361.3 37838.2 32107.4 37838.2 31599.5 38092.2 31345.6 39107.8 31345.6 39361.8 31599.5 39361.8 32107.4 39107.8 32361.3 M 39361.8 32869.1 39361.8 33377 39361.8 33123 37838.2 33123 38092.2 32869.1 M 38092.2 34138.7 37838.2 34392.6 37838.2 34900.5 38092.2 35154.4 39107.8 35154.4 39361.8 34900.5 39361.8 34392.6 39107.8 34138.7 38092.2 34138.7 M 38392.2 16596.1 38138.2 16342.2 38138.2 15834.3 38392.2 15580.4 39407.8 15580.4 39661.8 15834.3 39661.8 16342.2 39407.8 16596.1 M 39407.8 17103.9 39661.8 17357.8 39661.8 17865.7 39407.8 18119.6 38392.2 18119.6 38138.2 17865.7 38138.2 17357.8 38392.2 17103.9 38646.1 17103.9 38900 17357.8 38900 18119.6 M 16346.1 20507.8 16092.2 20761.7 15584.3 20761.7 15330.4 20507.8 15330.4 19492.2 15584.3 19238.3 16092.2 19238.3 16346.1 19492.2 M 17869.6 20761.7 16853.9 20761.7 16853.9 20000 17361.7 20253.9 17615.7 20253.9 17869.6 20000 17869.6 19492.2 17615.7 19238.3 17107.8 19238.3 16853.9 19492.2" fill="none" stroke-width="254"/></clipPath><mask id="no0_-f79qrCfYWbMv2QV_bottom_mech-mask"><g fill="#000" stroke="#000"><rect x="3730.4" y="12238.2" width="42539.2" height="32523.5" fill="#fff"/></g></mask><mask id="no0_-f79qrCfYWbMv2QV_bottom_cf-mask"><g fill="#fff" stroke="#fff"><use xlink:href="#no0_-f79qrCfYWbMv2QV_bottom_soldermask"/></g></mask><mask id="no0_-f79qrCfYWbMv2QV_bottom_sm-mask"><g fill="#000" stroke="#000"><rect x="3730.4" y="12238.2" width="42539.2" height="32523.5" fill="#fff"/><use xlink:href="#no0_-f79qrCfYWbMv2QV_bottom_soldermask"/></g></mask></defs><g transform="translate(0,56999.899999999994) scale(1,-1)"><g mask="url(#no0_-f79qrCfYWbMv2QV_bottom_mech-mask)" clip-path="url(#no0_-f79qrCfYWbMv2QV_bottom_outline)" transform="translate(50000,0) scale(-1,1)"><rect x="3730.4" y="12238.2" width="42539.2" height="32523.5" fill="currentColor" class="no0_-f79qrCfYWbMv2QV_fr4"/><use xlink:href="#no0_-f79qrCfYWbMv2QV_bottom_copper" fill="currentColor" stroke="currentColor" class="no0_-f79qrCfYWbMv2QV_cu"/><use xlink:href="#no0_-f79qrCfYWbMv2QV_bottom_copper" fill="currentColor" stroke="currentColor" class="no0_-f79qrCfYWbMv2QV_cf" mask="url(#no0_-f79qrCfYWbMv2QV_bottom_cf-mask)"/><g mask="url(#no0_-f79qrCfYWbMv2QV_bottom_sm-mask)"><rect x="3730.4" y="12238.2" width="42539.2" height="32523.5" fill="currentColor" class="no0_-f79qrCfYWbMv2QV_sm"/><use xlink:href="#no0_-f79qrCfYWbMv2QV_bottom_silkscreen" fill="currentColor" stroke="currentColor" class="no0_-f79qrCfYWbMv2QV_ss"/></g><use xlink:href="#no0_-f79qrCfYWbMv2QV_bottom_solderpaste" fill="currentColor" stroke="currentColor" class="no0_-f79qrCfYWbMv2QV_sp"/></g></g></svg>