<svg version="1.1" xmlns="http://www.w3.org/2000/svg" xmlns:xlink="http://www.w3.org/1999/xlink" stroke-linecap="round" stroke-linejoin="round" stroke-width="0" fill-rule="evenodd" width="44mm" height="33.1mm" viewBox="3000 12000 44000 33100" id="EyPlkDqsd0xvl5x91j__"><defs><circle cx="0" cy="0" r="2000" id="EyPlkDqsd0xvl5x91j___pad-22"/><circle cx="0" cy="0" r="300" id="EyPlkDqsd0xvl5x91j___pad-23"/><rect x="-450" y="-800" width="900" height="1600" id="EyPlkDqsd0xvl5x91j___pad-30"/><rect x="-450" y="-650" width="900" height="1300" id="EyPlkDqsd0xvl5x91j___pad-31"/><rect x="-350" y="-575" width="700" height="1150" id="EyPlkDqsd0xvl5x91j___pad-32"/><rect x="-575" y="-350" width="1150" height="700" id="EyPlkDqsd0xvl5x91j___pad-33"/><rect x="-115" y="-300" width="230" height="600" id="EyPlkDqsd0xvl5x91j___pad-34"/><rect x="-300" y="-115" width="600" height="230" id="EyPlkDqsd0xvl5x91j___pad-35"/><rect x="-1650" y="-1650" width="3300" height="3300" id="EyPlkDqsd0xvl5x91j___pad-36"/></defs><g transform="translate(0,57100) scale(1,-1)" fill="currentColor" stroke="currentColor"><path d="M 34200 21100 32100 21100 32100 22800 34200 22800 34200 21100"/><path d="M 33100 25100 33100 23600 31000 23600 31000 25100 33100 25100"/><path d="M 33000 25900 31000 25900 31000 27400 33000 27400 33000 25900"/><path d="M 33000 29019.8 31100 29019.8 31100 30500 33000 30500 33000 29019.8"/><path d="M 33100 32000 31100 32000 31100 33500 33100 33500 33100 32000"/><path d="M 11900 34900 13850 34900 M 16900 24700 17850 24700 M 29650 24400 29700 24450 M 29500 24250 29650 24400 M 29700 24450 29700 25500 M 27600 26765 27600 26950 M 27585 26750 27600 26765 M 27400 26750 27585 26750 M 27600 26950 27600 26950 27600 30400 M 28199.2 24750 28915.3 25466.1 M 27930.7 25765 28115.3 25949.7 M 28300 26179.9 28300 26600 M 28133.5 25250 28515.3 25631.8 M 27415 25765 27930.7 25765 M 28115.3 25995.2 28300 26179.9 M 28115.3 25949.7 28115.3 25995.2 M 28515.3 25631.8 28515.3 25829.5 M 28915.3 25466.1 28915.3 25663.9 M 28515.3 25829.5 28700 26014.2 M 28915.3 25663.9 29100 25848.5 M 27400 26250 27415 26265 27865 26265 M 27400 25250 28133.5 25250 M 29100 25848.5 29100 25950 M 27400 24750 28199.2 24750 M 28700 26222.2 28850 26372.2 M 28700 26014.2 28700 26222.2 M 29100 25950 29700 26550 M 28850 28098.7 29567.2 28815.9 M 28850 26372.2 28850 28098.7 M 29567.2 28815.9 33838.1 28815.9 M 27250 36600 28300 36600 M 11800 32700 13750 32700 M 29700 17650 29700 17650 32000 17650 M 20500 24700 21100 24100 M 19750 24700 20500 24700 M 29700 26550 29700 28000 M 33955.3 28933.1 33955.3 34344.7 M 33838.1 28815.9 33955.3 28933.1 M 29700 28000 29965.9 28265.9 M 33400 34900 33955.3 34344.7 M 25750 21884.3 25917.2 21717.2 M 25250 21606.5 25250 22600 M 26265 22147.1 26265 22585 M 26250 22600 26265 22585 M 26265 22147.1 27912.1 20500 M 25250 21606.5 25500 21356.5 M 25500 20800 25500 21356.5 M 25400 20700 25500 20800 M 25000 19550 25150 19550 25400 19800 25400 20700 M 25750 21884.3 25750 22600 M 23550 25750 23900 26100 M 23450 25250 23900 25700 M 22600 25250 23450 25250 M 23900 25700 23900 26100 M 22600 25750 23550 25750 M 23250 22008.6 23250 22600 M 22841.4 21600 23250 22008.6 M 20150 27300 21865 27300 22400 26765 M 20050 27400 20150 27300 M 22935 27900 23250 27585 M 23250 27400 23250 27585 M 22800 27900 22935 27900 M 21100 32700 24100 29700 M 26300 27951.5 26300 30075 M 25925 30450 26300 30075 M 25700 30450 25925 30450 M 25450 33517.2 25567.2 33400 M 25350 41000 25450 40900 M 23500 21000 23500 21108.2 M 23750 21358.2 23750 22600 M 23500 21108.2 23750 21358.2 M 24750 21358.2 24750 22600 M 24750 21358.2 24900 21208.2 M 22700 20282.8 22817.2 20400 23800 20400 M 22700 19550 22700 20282.8 M 23800 20400 24250 20850 M 27250 41000 28200 41000 M 11800 27400 13750 27400 M 29650 35100 29700 35150 29700 36600 M 27400 15700 27400 17650 M 23400 29391.8 23700 29091.8 M 23700 28220.1 23750 28170.1 M 23400 29391.8 23400 29500 M 23700 28220.1 23700 29091.8 M 24100 28385.8 24100 29700 M 23750 27400 23750 28170.1 M 15650 34900 19700 34900 24500 30100 M 24500 28551.5 24700 28351.5 M 24700 27785.8 24700 28351.5 M 24735 27415 24750 27400 M 24735 27415 24735 27750.8 M 25100 27951.5 25235 27816.5 M 24500 28551.5 24500 30100 M 24100 28385.8 24250 28235.8 M 24700 27785.8 24735 27750.8 M 24250 27400 24250 28235.8 M 25100 27951.5 25100 28800 M 25235 27415 25250 27400 M 25235 27415 25235 27816.5 M 26250 27901.5 26300 27951.5 M 26250 27400 26250 27901.5 M 25750 27400 25750 27950 M 27400 25750 27415 25765 M 31550 35100 31750 34900 33400 34900 M 27400 24250 29500 24250 M 29550 21900 29550 23050 M 28250 23750 28500 23500 M 27400 23750 28250 23750 M 27400 22200 27400 23250 M 27400 22200 27600 22000 M 29700 19550 30650 19550 M 24900 21100 24900 21208.2 M 24250 20850 24250 22600 M 15650 32700 21100 32700 M 17950 22200 18150 22400 M 17950 20200 17950 22200 M 20050 22400 21700 22400 M 22024.3 23132.9 22141.4 23250 M 22024.3 22724.3 22024.3 23132.9 M 22141.4 23250 22600 23250 M 21700 22400 22024.3 22724.3 M 21608.2 23500 21808.2 23700 M 21500 23500 21608.2 23500 M 22149.2 23735 22585 23735 M 22114.2 23700 22149.2 23735 M 21808.2 23700 22114.2 23700 M 22585 23735 22600 23750 M 21100 24100 21948.5 24100 22098.5 24250 22600 24250 M 21987.3 26523.5 22175.7 26335 M 22283.5 26265 22585 26265 M 22175.7 26335 22213.5 26335 22283.5 26265 M 21750 24750 22600 24750 M 21700 24700 21750 24750 M 22400 26765 22585 26765 M 21576.5 26523.5 21987.3 26523.5 M 21500 26600 21576.5 26523.5 M 22585 26765 22600 26750 M 22585 26265 22600 26250 M 17950 29700 18150 29500 M 18150 27400 18150 29500" fill="none" stroke-width="200"/><path d="M 15650 25650 16300 26300 18350 26300 M 15650 25000 15650 25225 M 18350 26300 19750 24900 M 11800 29700 13750 29700 M 29650 29600 29650 30000 M 28300 29107.1 28592.9 29400 29450 29400 M 28300 26600 28300 29107.1 M 29650 30000 30380.9 30730.9 30380.9 31080.9 30400 31100 M 29450 29400 29650 29600 M 27912.1 20500 28525 20500 M 29475 19550 29700 19550 M 28525 20500 29475 19550 M 28500 17800 28650 17650 M 28300 18691.4 28300 19382.8 M 27450 19500 27500 19450 M 28232.8 19450 28300 19382.8 M 27500 19450 28232.8 19450 M 28300 18691.4 28500 18491.4 M 28500 17800 28500 18491.4 M 28650 17650 29700 17650 32000 17650 M 11800 25000 13750 25000 M 28500 22017.2 28500 23500 M 28500 22017.2 28617.2 21900 29550 21900 M 19750 24700 19750 24900 M 29250 32400 29450 32400 M 29650 32600 29650 32875 M 27600 30400 27600 30750 M 29450 32400 29650 32600 M 27600 30750 29250 32400 M 27350 34175 28450 33075 M 29450 33075 29650 32875 M 28450 33075 29450 33075 M 27350 34175 27350 34400 M 27350 38500 33000 38500 M 27250 38600 27250 38800 M 27250 38600 27350 38500 M 33000 38500 34800 36700 M 34800 28417.2 34800 36700 M 29965.9 28265.9 34648.8 28265.9 34800 28417.2 M 22700 16700 22700 17650 M 32000 19550 33522.9 19550 M 33572.9 19600 33600 19600 M 33522.9 19550 33572.9 19600 M 32000 17650 32000 17650 M 27400 19550 27450 19500 M 27225 19500 27450 19500 M 25917.2 21717.2 26367.9 21266.4 M 26367.9 20357.1 26367.9 21266.4 M 26367.9 20357.1 27225 19500 M 24400 32400 24427.1 32400 M 24477.1 32350 25700 32350 M 24427.1 32400 24477.1 32350 M 25000 16400 25000 17650" fill="none" stroke-width="500"/><use xlink:href="#EyPlkDqsd0xvl5x91j___pad-22" x="5000" y="20000"/><use xlink:href="#EyPlkDqsd0xvl5x91j___pad-22" x="45000" y="20000"/><use xlink:href="#EyPlkDqsd0xvl5x91j___pad-22" x="45000" y="14000"/><use xlink:href="#EyPlkDqsd0xvl5x91j___pad-22" x="45000" y="36000"/><use xlink:href="#EyPlkDqsd0xvl5x91j___pad-22" x="45000" y="30000"/><use xlink:href="#EyPlkDqsd0xvl5x91j___pad-22" x="5000" y="30000"/><use xlink:href="#EyPlkDqsd0xvl5x91j___pad-23" x="13400" y="40900"/><use xlink:href="#EyPlkDqsd0xvl5x91j___pad-23" x="13397.5" y="37092.5"/><use xlink:href="#EyPlkDqsd0xvl5x91j___pad-23" x="11900" y="34900"/><use xlink:href="#EyPlkDqsd0xvl5x91j___pad-23" x="11000" y="13000"/><use xlink:href="#EyPlkDqsd0xvl5x91j___pad-23" x="9500" y="13000"/><use xlink:href="#EyPlkDqsd0xvl5x91j___pad-23" x="9600" y="14200"/><use xlink:href="#EyPlkDqsd0xvl5x91j___pad-23" x="9600" y="15400"/><use xlink:href="#EyPlkDqsd0xvl5x91j___pad-23" x="10500" y="16600"/><use xlink:href="#EyPlkDqsd0xvl5x91j___pad-23" x="9500" y="16600"/><use xlink:href="#EyPlkDqsd0xvl5x91j___pad-23" x="11000" y="14300"/><use xlink:href="#EyPlkDqsd0xvl5x91j___pad-23" x="11100" y="15600"/><use xlink:href="#EyPlkDqsd0xvl5x91j___pad-23" x="9400" y="31200"/><use xlink:href="#EyPlkDqsd0xvl5x91j___pad-23" x="10500" y="32900"/><use xlink:href="#EyPlkDqsd0xvl5x91j___pad-23" x="8300" y="32900"/><use xlink:href="#EyPlkDqsd0xvl5x91j___pad-23" x="9500" y="34400"/><use xlink:href="#EyPlkDqsd0xvl5x91j___pad-23" x="10500" y="35700"/><use xlink:href="#EyPlkDqsd0xvl5x91j___pad-23" x="8200" y="35700"/><use xlink:href="#EyPlkDqsd0xvl5x91j___pad-23" x="9900" y="38400"/><use xlink:href="#EyPlkDqsd0xvl5x91j___pad-23" x="9400" y="37200"/><use xlink:href="#EyPlkDqsd0xvl5x91j___pad-23" x="8300" y="38400"/><use xlink:href="#EyPlkDqsd0xvl5x91j___pad-23" x="9300" y="39900"/><use xlink:href="#EyPlkDqsd0xvl5x91j___pad-23" x="10500" y="41200"/><use xlink:href="#EyPlkDqsd0xvl5x91j___pad-23" x="8300" y="41200"/><use xlink:href="#EyPlkDqsd0xvl5x91j___pad-23" x="11000" y="38500"/><use xlink:href="#EyPlkDqsd0xvl5x91j___pad-23" x="10800" y="39700"/><use xlink:href="#EyPlkDqsd0xvl5x91j___pad-23" x="16900" y="24700"/><use xlink:href="#EyPlkDqsd0xvl5x91j___pad-23" x="33600" y="22200"/><use xlink:href="#EyPlkDqsd0xvl5x91j___pad-23" x="33600" y="21500"/><use xlink:href="#EyPlkDqsd0xvl5x91j___pad-23" x="32500" y="24700"/><use xlink:href="#EyPlkDqsd0xvl5x91j___pad-23" x="32500" y="24000"/><use xlink:href="#EyPlkDqsd0xvl5x91j___pad-23" x="32500" y="27000"/><use xlink:href="#EyPlkDqsd0xvl5x91j___pad-23" x="32500" y="26300"/><use xlink:href="#EyPlkDqsd0xvl5x91j___pad-23" x="32500" y="30100"/><use xlink:href="#EyPlkDqsd0xvl5x91j___pad-23" x="32500" y="29400"/><use xlink:href="#EyPlkDqsd0xvl5x91j___pad-23" x="32500" y="32400"/><use xlink:href="#EyPlkDqsd0xvl5x91j___pad-23" x="32500" y="33100"/><use xlink:href="#EyPlkDqsd0xvl5x91j___pad-23" x="37100" y="21300"/><use xlink:href="#EyPlkDqsd0xvl5x91j___pad-23" x="37100" y="20100"/><use xlink:href="#EyPlkDqsd0xvl5x91j___pad-23" x="37200" y="18800"/><use xlink:href="#EyPlkDqsd0xvl5x91j___pad-23" x="40900" y="18600"/><use xlink:href="#EyPlkDqsd0xvl5x91j___pad-23" x="40900" y="19800"/><use xlink:href="#EyPlkDqsd0xvl5x91j___pad-23" x="40800" y="21200"/><use xlink:href="#EyPlkDqsd0xvl5x91j___pad-23" x="36800" y="31600"/><use xlink:href="#EyPlkDqsd0xvl5x91j___pad-23" x="36800" y="29600"/><use xlink:href="#EyPlkDqsd0xvl5x91j___pad-23" x="37900" y="27900"/><use xlink:href="#EyPlkDqsd0xvl5x91j___pad-23" x="39600" y="28000"/><use xlink:href="#EyPlkDqsd0xvl5x91j___pad-23" x="40700" y="29600"/><use xlink:href="#EyPlkDqsd0xvl5x91j___pad-23" x="40400" y="31500"/><use xlink:href="#EyPlkDqsd0xvl5x91j___pad-23" x="14100" y="19200"/><use xlink:href="#EyPlkDqsd0xvl5x91j___pad-23" x="14100" y="20000"/><use xlink:href="#EyPlkDqsd0xvl5x91j___pad-23" x="14100" y="20800"/><use xlink:href="#EyPlkDqsd0xvl5x91j___pad-23" x="19400" y="43100"/><use xlink:href="#EyPlkDqsd0xvl5x91j___pad-23" x="19400" y="43900"/><use xlink:href="#EyPlkDqsd0xvl5x91j___pad-23" x="19300" y="44800"/><use xlink:href="#EyPlkDqsd0xvl5x91j___pad-23" x="29700" y="25500"/><use xlink:href="#EyPlkDqsd0xvl5x91j___pad-23" x="27865" y="26265"/><use xlink:href="#EyPlkDqsd0xvl5x91j___pad-23" x="28300" y="36600"/><use xlink:href="#EyPlkDqsd0xvl5x91j___pad-23" x="33600" y="19600"/><use xlink:href="#EyPlkDqsd0xvl5x91j___pad-23" x="35900" y="36400"/><use xlink:href="#EyPlkDqsd0xvl5x91j___pad-23" x="35600" y="13500"/><use xlink:href="#EyPlkDqsd0xvl5x91j___pad-23" x="19000" y="37100"/><use xlink:href="#EyPlkDqsd0xvl5x91j___pad-23" x="19000" y="13100"/><use xlink:href="#EyPlkDqsd0xvl5x91j___pad-23" x="13497.5" y="13092.5"/><use xlink:href="#EyPlkDqsd0xvl5x91j___pad-23" x="13497.5" y="16902.5"/><use xlink:href="#EyPlkDqsd0xvl5x91j___pad-23" x="28200" y="41000"/><use xlink:href="#EyPlkDqsd0xvl5x91j___pad-23" x="23800" y="23900"/><use xlink:href="#EyPlkDqsd0xvl5x91j___pad-23" x="26200" y="23900"/><use xlink:href="#EyPlkDqsd0xvl5x91j___pad-23" x="26200" y="26100"/><use xlink:href="#EyPlkDqsd0xvl5x91j___pad-23" x="23900" y="26100"/><use xlink:href="#EyPlkDqsd0xvl5x91j___pad-23" x="24400" y="32400"/><use xlink:href="#EyPlkDqsd0xvl5x91j___pad-23" x="25000" y="16400"/><use xlink:href="#EyPlkDqsd0xvl5x91j___pad-23" x="11800" y="27400"/><use xlink:href="#EyPlkDqsd0xvl5x91j___pad-23" x="29700" y="36600"/><use xlink:href="#EyPlkDqsd0xvl5x91j___pad-23" x="30400" y="31100"/><use xlink:href="#EyPlkDqsd0xvl5x91j___pad-23" x="22700" y="16700"/><use xlink:href="#EyPlkDqsd0xvl5x91j___pad-23" x="27400" y="15700"/><use xlink:href="#EyPlkDqsd0xvl5x91j___pad-23" x="11800" y="29700"/><use xlink:href="#EyPlkDqsd0xvl5x91j___pad-23" x="11800" y="32700"/><use xlink:href="#EyPlkDqsd0xvl5x91j___pad-23" x="19850" y="31350"/><use xlink:href="#EyPlkDqsd0xvl5x91j___pad-23" x="23400" y="29500"/><use xlink:href="#EyPlkDqsd0xvl5x91j___pad-23" x="21800" y="31900"/><use xlink:href="#EyPlkDqsd0xvl5x91j___pad-23" x="25100" y="28800"/><use xlink:href="#EyPlkDqsd0xvl5x91j___pad-23" x="25700" y="28200"/><use xlink:href="#EyPlkDqsd0xvl5x91j___pad-23" x="11800" y="25000"/><use xlink:href="#EyPlkDqsd0xvl5x91j___pad-23" x="29550" y="23050"/><use xlink:href="#EyPlkDqsd0xvl5x91j___pad-23" x="27600" y="22000"/><use xlink:href="#EyPlkDqsd0xvl5x91j___pad-23" x="30650" y="19550"/><use xlink:href="#EyPlkDqsd0xvl5x91j___pad-23" x="24900" y="21100"/><use xlink:href="#EyPlkDqsd0xvl5x91j___pad-23" x="23500" y="21000"/><use xlink:href="#EyPlkDqsd0xvl5x91j___pad-23" x="19850" y="18350"/><use xlink:href="#EyPlkDqsd0xvl5x91j___pad-23" x="21500" y="23500"/><use xlink:href="#EyPlkDqsd0xvl5x91j___pad-23" x="21700" y="24700"/><use xlink:href="#EyPlkDqsd0xvl5x91j___pad-23" x="21500" y="26600"/><use xlink:href="#EyPlkDqsd0xvl5x91j___pad-30" x="32650" y="21900"/><use xlink:href="#EyPlkDqsd0xvl5x91j___pad-30" x="29550" y="21900"/><use xlink:href="#EyPlkDqsd0xvl5x91j___pad-31" x="31550" y="24400"/><use xlink:href="#EyPlkDqsd0xvl5x91j___pad-31" x="29650" y="24400"/><use xlink:href="#EyPlkDqsd0xvl5x91j___pad-31" x="31550" y="26700"/><use xlink:href="#EyPlkDqsd0xvl5x91j___pad-31" x="29650" y="26700"/><use xlink:href="#EyPlkDqsd0xvl5x91j___pad-31" x="31550" y="29800"/><use xlink:href="#EyPlkDqsd0xvl5x91j___pad-31" x="29650" y="29800"/><use xlink:href="#EyPlkDqsd0xvl5x91j___pad-31" x="29650" y="32800"/><use xlink:href="#EyPlkDqsd0xvl5x91j___pad-31" x="31550" y="32800"/><use xlink:href="#EyPlkDqsd0xvl5x91j___pad-31" x="17950" y="20200"/><use xlink:href="#EyPlkDqsd0xvl5x91j___pad-31" x="19850" y="20200"/><use xlink:href="#EyPlkDqsd0xvl5x91j___pad-31" x="19750" y="24700"/><use xlink:href="#EyPlkDqsd0xvl5x91j___pad-31" x="17850" y="24700"/><use xlink:href="#EyPlkDqsd0xvl5x91j___pad-31" x="17950" y="29700"/><use xlink:href="#EyPlkDqsd0xvl5x91j___pad-31" x="19850" y="29700"/><use xlink:href="#EyPlkDqsd0xvl5x91j___pad-32" x="31550" y="35100"/><use xlink:href="#EyPlkDqsd0xvl5x91j___pad-32" x="29650" y="35100"/><use xlink:href="#EyPlkDqsd0xvl5x91j___pad-32" x="15650" y="25000"/><use xlink:href="#EyPlkDqsd0xvl5x91j___pad-32" x="13750" y="25000"/><use xlink:href="#EyPlkDqsd0xvl5x91j___pad-32" x="13750" y="27400"/><use xlink:href="#EyPlkDqsd0xvl5x91j___pad-32" x="15650" y="27400"/><use xlink:href="#EyPlkDqsd0xvl5x91j___pad-32" x="15650" y="29700"/><use xlink:href="#EyPlkDqsd0xvl5x91j___pad-32" x="13750" y="29700"/><use xlink:href="#EyPlkDqsd0xvl5x91j___pad-32" x="15650" y="32700"/><use xlink:href="#EyPlkDqsd0xvl5x91j___pad-32" x="13750" y="32700"/><use xlink:href="#EyPlkDqsd0xvl5x91j___pad-32" x="15750" y="34900"/><use xlink:href="#EyPlkDqsd0xvl5x91j___pad-32" x="13850" y="34900"/><use xlink:href="#EyPlkDqsd0xvl5x91j___pad-32" x="20050" y="22400"/><use xlink:href="#EyPlkDqsd0xvl5x91j___pad-32" x="18150" y="22400"/><use xlink:href="#EyPlkDqsd0xvl5x91j___pad-32" x="20050" y="27400"/><use xlink:href="#EyPlkDqsd0xvl5x91j___pad-32" x="18150" y="27400"/><use xlink:href="#EyPlkDqsd0xvl5x91j___pad-32" x="25350" y="41000"/><use xlink:href="#EyPlkDqsd0xvl5x91j___pad-32" x="27250" y="41000"/><use xlink:href="#EyPlkDqsd0xvl5x91j___pad-32" x="27400" y="38800"/><use xlink:href="#EyPlkDqsd0xvl5x91j___pad-32" x="25500" y="38800"/><use xlink:href="#EyPlkDqsd0xvl5x91j___pad-32" x="27250" y="36600"/><use xlink:href="#EyPlkDqsd0xvl5x91j___pad-32" x="25350" y="36600"/><use xlink:href="#EyPlkDqsd0xvl5x91j___pad-32" x="27350" y="34400"/><use xlink:href="#EyPlkDqsd0xvl5x91j___pad-32" x="25450" y="34400"/><use xlink:href="#EyPlkDqsd0xvl5x91j___pad-33" x="22700" y="19550"/><use xlink:href="#EyPlkDqsd0xvl5x91j___pad-33" x="22700" y="17650"/><use xlink:href="#EyPlkDqsd0xvl5x91j___pad-33" x="25000" y="17650"/><use xlink:href="#EyPlkDqsd0xvl5x91j___pad-33" x="25000" y="19550"/><use xlink:href="#EyPlkDqsd0xvl5x91j___pad-33" x="27400" y="19550"/><use xlink:href="#EyPlkDqsd0xvl5x91j___pad-33" x="27400" y="17650"/><use xlink:href="#EyPlkDqsd0xvl5x91j___pad-33" x="29700" y="17650"/><use xlink:href="#EyPlkDqsd0xvl5x91j___pad-33" x="29700" y="19550"/><use xlink:href="#EyPlkDqsd0xvl5x91j___pad-33" x="32000" y="19550"/><use xlink:href="#EyPlkDqsd0xvl5x91j___pad-33" x="32000" y="17650"/><use xlink:href="#EyPlkDqsd0xvl5x91j___pad-33" x="25700" y="32350"/><use xlink:href="#EyPlkDqsd0xvl5x91j___pad-33" x="25700" y="30450"/><use xlink:href="#EyPlkDqsd0xvl5x91j___pad-34" x="26750" y="22600"/><use xlink:href="#EyPlkDqsd0xvl5x91j___pad-34" x="26750" y="27400"/><use xlink:href="#EyPlkDqsd0xvl5x91j___pad-34" x="26250" y="27400"/><use xlink:href="#EyPlkDqsd0xvl5x91j___pad-34" x="26250" y="22600"/><use xlink:href="#EyPlkDqsd0xvl5x91j___pad-34" x="24750" y="27400"/><use xlink:href="#EyPlkDqsd0xvl5x91j___pad-34" x="24750" y="22600"/><use xlink:href="#EyPlkDqsd0xvl5x91j___pad-34" x="24250" y="22600"/><use xlink:href="#EyPlkDqsd0xvl5x91j___pad-34" x="23750" y="27400"/><use xlink:href="#EyPlkDqsd0xvl5x91j___pad-34" x="23750" y="22600"/><use xlink:href="#EyPlkDqsd0xvl5x91j___pad-34" x="25250" y="27400"/><use xlink:href="#EyPlkDqsd0xvl5x91j___pad-34" x="23250" y="27400"/><use xlink:href="#EyPlkDqsd0xvl5x91j___pad-34" x="25250" y="22600"/><use xlink:href="#EyPlkDqsd0xvl5x91j___pad-34" x="25750" y="27400"/><use xlink:href="#EyPlkDqsd0xvl5x91j___pad-34" x="24250" y="27400"/><use xlink:href="#EyPlkDqsd0xvl5x91j___pad-34" x="25750" y="22600"/><use xlink:href="#EyPlkDqsd0xvl5x91j___pad-34" x="23250" y="22600"/><use xlink:href="#EyPlkDqsd0xvl5x91j___pad-35" x="27400" y="26250"/><use xlink:href="#EyPlkDqsd0xvl5x91j___pad-35" x="27400" y="24250"/><use xlink:href="#EyPlkDqsd0xvl5x91j___pad-35" x="22600" y="25750"/><use xlink:href="#EyPlkDqsd0xvl5x91j___pad-35" x="22600" y="23750"/><use xlink:href="#EyPlkDqsd0xvl5x91j___pad-35" x="22600" y="26750"/><use xlink:href="#EyPlkDqsd0xvl5x91j___pad-35" x="27400" y="24750"/><use xlink:href="#EyPlkDqsd0xvl5x91j___pad-35" x="27400" y="23250"/><use xlink:href="#EyPlkDqsd0xvl5x91j___pad-35" x="27400" y="23750"/><use xlink:href="#EyPlkDqsd0xvl5x91j___pad-35" x="22600" y="24250"/><use xlink:href="#EyPlkDqsd0xvl5x91j___pad-35" x="22600" y="25250"/><use xlink:href="#EyPlkDqsd0xvl5x91j___pad-35" x="22600" y="26250"/><use xlink:href="#EyPlkDqsd0xvl5x91j___pad-35" x="22600" y="24750"/><use xlink:href="#EyPlkDqsd0xvl5x91j___pad-35" x="27400" y="25750"/><use xlink:href="#EyPlkDqsd0xvl5x91j___pad-35" x="22600" y="23250"/><use xlink:href="#EyPlkDqsd0xvl5x91j___pad-35" x="27400" y="25250"/><use xlink:href="#EyPlkDqsd0xvl5x91j___pad-35" x="27400" y="26750"/><use xlink:href="#EyPlkDqsd0xvl5x91j___pad-36" x="25000" y="25000"/><path d="M 25450 38800 25450 40900 M 25450 36600 25450 38800 M 26750 29250 27000 29500 M 25450 34400 25450 36600 M 27000 29500 27000 33100 M 26700 33400 27000 33100 M 25567.2 33400 26700 33400 M 25450 33517.2 25450 34400 M 26750 27400 26750 29250" fill="none" stroke-width="300"/><path d="M 15650 25650 15650 27400 M 15650 25225 15650 25650 M 15650 27400 15650 29700" fill="none" stroke-width="600"/><path d="M 19850 18350 19850 20200 21100 20200 M 22500 21600 22841.4 21600 M 21100 20200 22500 21600 M 19850 29700 19850 31350 M 19850 29500 20100 29250 M 20300 29250 21650 27900 M 19850 29500 19850 29700 M 20100 29250 20300 29250 M 21650 27900 22800 27900" fill="none" stroke-width="400"/></g></svg>