<svg version="1.1" xmlns="http://www.w3.org/2000/svg" xmlns:xlink="http://www.w3.org/1999/xlink" stroke-linecap="round" stroke-linejoin="round" stroke-width="0" fill-rule="evenodd" width="32.6554mm" height="41.2391mm" viewBox="7022.6 7022.6 32655.4 41239.1" id="Fj0yaxVpt7SgmxzTCRuQ"><g transform="translate(0,55284.3) scale(1,-1)" fill="currentColor" stroke="currentColor"><path d="M 28800 20700 33400 20700 M 28800 20700 28800 23100 33400 23100 M 33400 20700 33400 23100 M 28800 23400 28800 25400 M 28800 23400 32400 23400 M 28800 25400 32400 25400 M 32400 23400 32400 25400 M 28800 25700 28800 27700 M 28800 25700 32400 25700 M 28800 27700 32400 27700 M 32400 25700 32400 27700 M 28800 28800 28800 30800 M 28800 28800 32400 28800 M 28800 30800 32400 30800 M 32400 28800 32400 30800 M 32400 31800 32400 33800 M 28800 33800 32400 33800 M 28800 31800 32400 31800 M 28800 31800 28800 33800 M 32300 34200 32300 36000 M 28900 34200 28900 36000 M 28900 34200 32300 34200 M 28900 36000 32300 36000 M 21800 20300 23600 20300 M 21800 16900 23600 16900 23600 20300 M 21800 16900 21800 20300 M 24100 16900 25900 16900 M 24100 20300 25900 20300 M 24100 16900 24100 20300 M 25900 16900 25900 20300 M 26500 20300 28300 20300 M 26500 16900 28300 16900 28300 20300 M 26500 16900 26500 20300 M 28800 16900 30600 16900 M 28800 20300 30600 20300 M 28800 16900 28800 20300 M 30600 16900 30600 20300 M 31100 20300 32900 20300 M 31100 16900 32900 16900 32900 20300 M 31100 16900 31100 20300 M 16400 24100 16400 25900 M 13000 24100 13000 25900 M 13000 24100 16400 24100 M 13000 25900 16400 25900 M 13000 26500 13000 28300 M 16400 26500 16400 28300 M 13000 28300 16400 28300 M 13000 26500 16400 26500 M 16400 28800 16400 30600 M 13000 28800 13000 30600 M 13000 28800 16400 28800 M 13000 30600 16400 30600 M 16400 31800 16400 33600 M 13000 31800 13000 33600 M 13000 31800 16400 31800 M 13000 33600 16400 33600 M 16500 34000 16500 35800 M 13100 34000 13100 35800 M 13100 34000 16500 34000 M 13100 35800 16500 35800 M 20700 19200 20700 21200 M 17100 21200 20700 21200 M 17100 19200 20700 19200 M 17100 19200 17100 21200 M 17400 21500 20800 21500 M 17400 23300 20800 23300 M 20800 21500 20800 23300 M 17400 21500 17400 23300 M 17000 23700 17000 25700 M 17000 23700 20600 23700 M 17000 25700 20600 25700 M 20600 23700 20600 25700 M 20800 26500 20800 28300 M 17400 26500 17400 28300 M 17400 26500 20800 26500 M 17400 28300 20800 28300 M 20700 28700 20700 30700 M 17100 30700 20700 30700 M 17100 28700 20700 28700 M 17100 28700 17100 30700 M 24600 41900 28000 41900 M 24600 40100 28000 40100 M 24600 40100 24600 41900 M 28000 40100 28000 41900 M 24750 37900 28150 37900 M 24750 39700 28150 39700 M 28150 37900 28150 39700 M 24750 37900 24750 39700 M 24600 35700 28000 35700 M 24600 37500 28000 37500 M 28000 35700 28000 37500 M 24600 35700 24600 37500 M 24700 33500 28100 33500 M 24700 35300 28100 35300 M 28100 33500 28100 35300 M 24700 33500 24700 35300 M 26600 29700 26600 33100 M 24800 29700 24800 33100 26600 33100 M 24800 29700 26600 29700 M 27600 22400 27600 22800 M 27200 22400 27600 22400 M 22400 22400 22400 22800 M 22400 22400 22800 22400 M 22400 27600 22800 27600 M 22400 27200 22400 27600 M 27200 27600 27400 27600 M 27600 27200 27600 27400 M 27400 27600 27600 27400" fill="none" stroke-width="200"/><path d="M 37400 22807.8 37653.9 23061.8 38161.8 23061.8 38415.7 22807.8 38415.7 21792.2 38161.8 21538.2 37653.9 21538.2 37400 21792.2 M 36892.2 21538.2 36384.3 21538.2 36638.2 21538.2 36638.2 23061.8 36892.2 22807.8 M 37853.9 25107.8 38107.8 25361.7 38615.7 25361.7 38869.6 25107.8 38869.6 24092.2 38615.7 23838.2 38107.8 23838.2 37853.9 24092.2 M 36330.4 23838.2 37346.1 23838.2 36330.4 24853.9 36330.4 25107.8 36584.3 25361.7 37092.2 25361.7 37346.1 25107.8 M 37834.8 27307.8 38088.7 27561.8 38596.5 27561.8 38850.5 27307.8 38850.5 26292.2 38596.5 26038.2 38088.7 26038.2 37834.8 26292.2 M 37327 26038.2 36819.1 26038.2 37073 26038.2 37073 27561.8 37327 27307.8 M 36057.4 26038.2 35549.5 26038.2 35803.5 26038.2 35803.5 27561.8 36057.4 27307.8 M 37853.9 30307.8 38107.8 30561.8 38615.7 30561.8 38869.6 30307.8 38869.6 29292.2 38615.7 29038.2 38107.8 29038.2 37853.9 29292.2 M 36584.3 29038.2 36584.3 30561.8 37346.1 29800 36330.4 29800 M 38535.3 33443 38789.2 33696.9 39297.1 33696.9 39551 33443 39551 32427.3 39297.1 32173.4 38789.2 32173.4 38535.3 32427.3 M 38027.5 32173.4 37519.7 32173.4 37773.6 32173.4 37773.6 33696.9 38027.5 33443 M 35742.2 32173.4 36757.9 32173.4 35742.2 33189.1 35742.2 33443 35996.2 33696.9 36504 33696.9 36757.9 33443 M 38969.6 34538.2 38969.6 36061.7 38207.8 36061.7 37953.9 35807.8 37953.9 35300 38207.8 35046.1 38969.6 35046.1 M 38461.8 35046.1 37953.9 34538.2 M 37446.1 35807.8 37192.2 36061.7 36684.3 36061.7 36430.4 35807.8 36430.4 35553.9 36684.3 35300 36430.4 35046.1 36430.4 34792.2 36684.3 34538.2 37192.2 34538.2 37446.1 34792.2 37446.1 35046.1 37192.2 35300 37446.1 35553.9 37446.1 35807.8 M 37192.2 35300 36684.3 35300 M 21838.2 12295.6 23361.8 12295.6 23361.8 13057.4 23107.8 13311.3 22600 13311.3 22346.1 13057.4 22346.1 12295.6 M 22346.1 12803.4 21838.2 13311.3 M 21838.2 13819.1 21838.2 14327 21838.2 14073 23361.8 14073 23107.8 13819.1 M 21838.2 15088.7 21838.2 15596.5 21838.2 15342.6 23361.8 15342.6 23107.8 15088.7 M 24238.3 12295.6 25761.7 12295.6 25761.7 13057.4 25507.8 13311.3 25000 13311.3 24746.1 13057.4 24746.1 12295.6 M 24746.1 12803.4 24238.3 13311.3 M 25761.7 14834.8 25507.8 14327 25000 13819.1 24492.2 13819.1 24238.3 14073 24238.3 14580.9 24492.2 14834.8 24746.1 14834.8 25000 14580.9 25000 13819.1 M 26438.2 12295.6 27961.8 12295.6 27961.8 13057.4 27707.8 13311.3 27200 13311.3 26946.1 13057.4 26946.1 12295.6 M 26946.1 12803.4 26438.2 13311.3 M 26438.2 13819.1 26438.2 14327 26438.2 14073 27961.8 14073 27707.8 13819.1 M 27707.8 15088.7 27961.8 15342.6 27961.8 15850.5 27707.8 16104.4 27453.9 16104.4 27200 15850.5 27200 15596.5 27200 15850.5 26946.1 16104.4 26692.2 16104.4 26438.2 15850.5 26438.2 15342.6 26692.2 15088.7 M 28838.2 12295.6 30361.8 12295.6 30361.8 13057.4 30107.8 13311.3 29600 13311.3 29346.1 13057.4 29346.1 12295.6 M 29346.1 12803.4 28838.2 13311.3 M 28838.2 13819.1 28838.2 14327 28838.2 14073 30361.8 14073 30107.8 13819.1 M 28838.2 16104.4 28838.2 15088.7 29853.9 16104.4 30107.8 16104.4 30361.8 15850.5 30361.8 15342.6 30107.8 15088.7 M 31238.3 12295.6 32761.7 12295.6 32761.7 13057.4 32507.8 13311.3 32000 13311.3 31746.1 13057.4 31746.1 12295.6 M 31746.1 12803.4 31238.3 13311.3 M 31238.3 13819.1 31238.3 14327 31238.3 14073 32761.7 14073 32507.8 13819.1 M 32761.7 15088.7 32761.7 16104.4 32507.8 16104.4 31492.2 15088.7 31238.3 15088.7 M 10958.4 24274 10958.4 25797.5 10196.6 25797.5 9942.7 25543.6 9942.7 25035.7 10196.6 24781.8 10958.4 24781.8 M 10450.6 24781.8 9942.7 24274 M 9434.9 24274 8927.1 24274 9181 24274 9181 25797.5 9434.9 25543.6 M 10958.4 26661.6 10958.4 28185.1 10196.6 28185.1 9942.7 27931.2 9942.7 27423.3 10196.6 27169.4 10958.4 27169.4 M 10450.6 27169.4 9942.7 26661.6 M 8419.2 26661.6 9434.9 26661.6 8419.2 27677.3 8419.2 27931.2 8673.1 28185.1 9181 28185.1 9434.9 27931.2 M 10958.4 28973 10958.4 30496.5 10196.6 30496.5 9942.7 30242.6 9942.7 29734.8 10196.6 29480.8 10958.4 29480.8 M 10450.6 29480.8 9942.7 28973 M 9434.9 30242.6 9181 30496.5 8673.1 30496.5 8419.2 30242.6 8419.2 29988.7 8673.1 29734.8 8927.1 29734.8 8673.1 29734.8 8419.2 29480.8 8419.2 29226.9 8673.1 28973 9181 28973 9434.9 29226.9 M 10958.4 31970.2 10958.4 33493.7 10196.6 33493.7 9942.7 33239.8 9942.7 32731.9 10196.6 32478 10958.4 32478 M 10450.6 32478 9942.7 31970.2 M 9434.9 31970.2 8927.1 31970.2 9181 31970.2 9181 33493.7 9434.9 33239.8 M 8165.3 33239.8 7911.4 33493.7 7403.6 33493.7 7149.6 33239.8 7149.6 32224.1 7403.6 31970.2 7911.4 31970.2 8165.3 32224.1 8165.3 33239.8 M 11034.6 34154.6 11034.6 35678.1 10272.9 35678.1 10018.9 35424.2 10018.9 34916.4 10272.9 34662.4 11034.6 34662.4 M 10526.8 34662.4 10018.9 34154.6 M 9511.1 34408.5 9257.2 34154.6 8749.3 34154.6 8495.4 34408.5 8495.4 35424.2 8749.3 35678.1 9257.2 35678.1 9511.1 35424.2 9511.1 35170.3 9257.2 34916.4 8495.4 34916.4 M 17236.9 8419.2 17490.9 8673.1 17998.7 8673.1 18252.6 8419.2 18252.6 7403.5 17998.7 7149.6 17490.9 7149.6 17236.9 7403.5 M 16729.1 8673.1 15713.4 8673.1 15713.4 8419.2 16729.1 7403.5 16729.1 7149.6 M 18252.6 9530.9 18252.6 11054.4 17490.9 11054.4 17236.9 10800.4 17236.9 10292.6 17490.9 10038.7 18252.6 10038.7 M 17744.8 10038.7 17236.9 9530.9 M 15967.3 9530.9 15967.3 11054.4 16729.1 10292.6 15713.4 10292.6 M 17236.9 13181.7 17490.9 13435.6 17998.7 13435.6 18252.6 13181.7 18252.6 12166 17998.7 11912.1 17490.9 11912.1 17236.9 12166 M 16729.1 13181.7 16475.2 13435.6 15967.3 13435.6 15713.4 13181.7 15713.4 12927.8 15967.3 12673.9 16221.3 12673.9 15967.3 12673.9 15713.4 12419.9 15713.4 12166 15967.3 11912.1 16475.2 11912.1 16729.1 12166 M 18252.6 14293.4 18252.6 15816.9 17490.9 15816.9 17236.9 15562.9 17236.9 15055.1 17490.9 14801.2 18252.6 14801.2 M 17744.8 14801.2 17236.9 14293.4 M 15713.4 15816.9 16729.1 15816.9 16729.1 15055.1 16221.3 15309 15967.3 15309 15713.4 15055.1 15713.4 14547.3 15967.3 14293.4 16475.2 14293.4 16729.1 14547.3 M 17236.9 17944.2 17490.9 18198.1 17998.7 18198.1 18252.6 17944.2 18252.6 16928.5 17998.7 16674.6 17490.9 16674.6 17236.9 16928.5 M 16729.1 17944.2 16475.2 18198.1 15967.3 18198.1 15713.4 17944.2 15713.4 17690.3 15967.3 17436.3 15713.4 17182.4 15713.4 16928.5 15967.3 16674.6 16475.2 16674.6 16729.1 16928.5 16729.1 17182.4 16475.2 17436.3 16729.1 17690.3 16729.1 17944.2 M 16475.2 17436.3 15967.3 17436.3 M 23704.4 40138.2 23704.4 41661.8 22942.6 41661.8 22688.7 41407.8 22688.7 40900 22942.6 40646.1 23704.4 40646.1 M 23196.6 40646.1 22688.7 40138.2 M 22180.9 40138.2 21673 40138.2 21927 40138.2 21927 41661.8 22180.9 41407.8 M 20911.3 41407.8 20657.4 41661.8 20149.5 41661.8 19895.6 41407.8 19895.6 41153.9 20149.5 40900 19895.6 40646.1 19895.6 40392.2 20149.5 40138.2 20657.4 40138.2 20911.3 40392.2 20911.3 40646.1 20657.4 40900 20911.3 41153.9 20911.3 41407.8 M 20657.4 40900 20149.5 40900 M 23856.8 37953.8 23856.8 39477.3 23095 39477.3 22841.1 39223.4 22841.1 38715.6 23095 38461.7 23856.8 38461.7 M 23348.9 38461.7 22841.1 37953.8 M 22333.3 37953.8 21825.4 37953.8 22079.4 37953.8 22079.4 39477.3 22333.3 39223.4 M 20048 39477.3 21063.7 39477.3 21063.7 38715.6 20555.8 38969.5 20301.9 38969.5 20048 38715.6 20048 38207.8 20301.9 37953.8 20809.8 37953.8 21063.7 38207.8 M 23704.4 35744 23704.4 37267.6 22942.6 37267.6 22688.7 37013.6 22688.7 36505.8 22942.6 36251.9 23704.4 36251.9 M 23196.6 36251.9 22688.7 35744 M 22180.9 35744 21673 35744 21927 35744 21927 37267.6 22180.9 37013.6 M 19895.6 37267.6 20403.5 37013.6 20911.3 36505.8 20911.3 35998 20657.4 35744 20149.5 35744 19895.6 35998 19895.6 36251.9 20149.5 36505.8 20911.3 36505.8 M 23806 33559.7 23806 35083.1 23044.2 35083.1 22790.3 34829.2 22790.3 34321.4 23044.2 34067.5 23806 34067.5 M 23298.1 34067.5 22790.3 33559.7 M 22282.5 33559.7 21774.6 33559.7 22028.6 33559.7 22028.6 35083.1 22282.5 34829.2 M 20251.1 33559.7 20251.1 35083.1 21012.9 34321.4 19997.2 34321.4 M 23869.6 30738.3 23869.6 32261.7 23107.8 32261.7 22853.9 32007.8 22853.9 31500 23107.8 31246.1 23869.6 31246.1 M 23361.7 31246.1 22853.9 30738.3 M 22346.1 32261.7 21330.4 32261.7 21330.4 32007.8 22346.1 30992.2 22346.1 30738.3" fill="none" stroke-width="254"/><path d="M 34000 48061.7 33492.2 48061.7 33746.1 48061.7 33746.1 46538.2 34000 46538.2 33492.2 46538.2 M 31714.7 47807.8 31968.7 48061.7 32476.5 48061.7 32730.4 47807.8 32730.4 47553.9 32476.5 47300 31968.7 47300 31714.7 47046.1 31714.7 46792.2 31968.7 46538.2 32476.5 46538.2 32730.4 46792.2 M 31206.9 48061.7 31206.9 46538.2 30191.2 46538.2 M 28667.7 48061.7 29175.6 47807.8 29683.4 47300 29683.4 46792.2 29429.5 46538.2 28921.6 46538.2 28667.7 46792.2 28667.7 47046.1 28921.6 47300 29683.4 47300 M 27144.2 46538.2 28159.9 46538.2 27144.2 47553.9 27144.2 47807.8 27398.1 48061.7 27906 48061.7 28159.9 47807.8 M 26636.4 47807.8 26382.5 48061.7 25874.6 48061.7 25620.7 47807.8 25620.7 47553.9 25874.6 47300 26128.5 47300 25874.6 47300 25620.7 47046.1 25620.7 46792.2 25874.6 46538.2 26382.5 46538.2 26636.4 46792.2 M 24097.2 48061.7 24605 47807.8 25112.9 47300 25112.9 46792.2 24859 46538.2 24351.1 46538.2 24097.2 46792.2 24097.2 47046.1 24351.1 47300 25112.9 47300 M 23589.4 46538.2 23589.4 47553.9 23081.5 48061.7 22573.7 47553.9 22573.7 46538.2 22573.7 47300 23589.4 47300 M 20542.4 48061.7 20542.4 47046.1 20034.5 46538.2 19526.7 47046.1 19526.7 48061.7 M 19018.9 46538.2 18511 46538.2 18764.9 46538.2 18764.9 48061.7 19018.9 47807.8" fill="none" stroke-width="400"/></g></svg>