<svg version="1.1" xmlns="http://www.w3.org/2000/svg" xmlns:xlink="http://www.w3.org/1999/xlink" stroke-linecap="round" stroke-linejoin="round" stroke-width="0" fill-rule="evenodd" width="51.016mm" height="51.016mm" viewBox="-508 -508 51016 51016" id="vPpqz7qkD6xpGH5FmKMd"><defs><mask id="vPpqz7qkD6xpGH5FmKMd_pad-25_mask-0" stroke="#fff"><circle cx="0" cy="0" r="1385" stroke-width="254" fill="none"/></mask><g mask="url(#vPpqz7qkD6xpGH5FmKMd_pad-25_mask-0)" id="vPpqz7qkD6xpGH5FmKMd_pad-25"><polygon points="-0.00001,179.60512 979.34289,1158.94801 0.00001,2138.29091 -979.34289,1158.94802"/><polygon points="-1158.94801,-979.34289 -179.60512,0.00001 -1158.94802,979.34289 -2138.29091,-0.00001"/><polygon points="-0.00001,-2138.29091 979.34289,-1158.94802 0.00001,-179.60512 -979.34289,-1158.94801"/><polygon points="1158.94802,-979.34289 2138.29091,0.00001 1158.94801,979.34289 179.60512,-0.00001"/></g><circle cx="0" cy="0" r="1258" id="vPpqz7qkD6xpGH5FmKMd_pad-26"/><circle cx="0" cy="0" r="658" id="vPpqz7qkD6xpGH5FmKMd_pad-27"/><mask id="vPpqz7qkD6xpGH5FmKMd_pad-28_mask-0" stroke="#fff"><circle cx="0" cy="0" r="785" stroke-width="254" fill="none"/></mask><g mask="url(#vPpqz7qkD6xpGH5FmKMd_pad-28_mask-0)" id="vPpqz7qkD6xpGH5FmKMd_pad-28"><polygon points="0,179.60512 555.07882,734.68395 0,1289.76277 -555.07882,734.68394"/><polygon points="-734.68395,-555.07882 -179.60512,0 -734.68394,555.07882 -1289.76277,0"/><polygon points="0,-1289.76277 555.07882,-734.68394 0,-179.60512 -555.07882,-734.68395"/><polygon points="734.68394,-555.07882 1289.76277,0 734.68395,555.07882 179.60512,0"/></g></defs><g transform="translate(0,50000) scale(1,-1)" fill="currentColor" stroke="currentColor"><path d="M 0 0 0 50000 50000 50000 M 50000 0 50000 50000 M 0 0 50000 0" fill="none" stroke-width="1016"/><use xlink:href="#vPpqz7qkD6xpGH5FmKMd_pad-25" x="5000" y="20000"/><use xlink:href="#vPpqz7qkD6xpGH5FmKMd_pad-25" x="45000" y="20000"/><use xlink:href="#vPpqz7qkD6xpGH5FmKMd_pad-25" x="45000" y="30000"/><use xlink:href="#vPpqz7qkD6xpGH5FmKMd_pad-26" x="45000" y="14000"/><use xlink:href="#vPpqz7qkD6xpGH5FmKMd_pad-26" x="45000" y="36000"/><use xlink:href="#vPpqz7qkD6xpGH5FmKMd_pad-26" x="5000" y="30000"/><use xlink:href="#vPpqz7qkD6xpGH5FmKMd_pad-27" x="13400" y="40900"/><use xlink:href="#vPpqz7qkD6xpGH5FmKMd_pad-27" x="13397.5" y="37092.5"/><use xlink:href="#vPpqz7qkD6xpGH5FmKMd_pad-27" x="11900" y="34900"/><use xlink:href="#vPpqz7qkD6xpGH5FmKMd_pad-27" x="29700" y="25500"/><use xlink:href="#vPpqz7qkD6xpGH5FmKMd_pad-27" x="27865" y="26265"/><use xlink:href="#vPpqz7qkD6xpGH5FmKMd_pad-27" x="28300" y="36600"/><use xlink:href="#vPpqz7qkD6xpGH5FmKMd_pad-27" x="35900" y="36400"/><use xlink:href="#vPpqz7qkD6xpGH5FmKMd_pad-27" x="35600" y="13500"/><use xlink:href="#vPpqz7qkD6xpGH5FmKMd_pad-27" x="19000" y="37100"/><use xlink:href="#vPpqz7qkD6xpGH5FmKMd_pad-27" x="19000" y="13100"/><use xlink:href="#vPpqz7qkD6xpGH5FmKMd_pad-27" x="13497.5" y="13092.5"/><use xlink:href="#vPpqz7qkD6xpGH5FmKMd_pad-27" x="13497.5" y="16902.5"/><use xlink:href="#vPpqz7qkD6xpGH5FmKMd_pad-27" x="11800" y="27400"/><use xlink:href="#vPpqz7qkD6xpGH5FmKMd_pad-27" x="29700" y="36600"/><use xlink:href="#vPpqz7qkD6xpGH5FmKMd_pad-27" x="30400" y="31100"/><use xlink:href="#vPpqz7qkD6xpGH5FmKMd_pad-27" x="22700" y="16700"/><use xlink:href="#vPpqz7qkD6xpGH5FmKMd_pad-27" x="27400" y="15700"/><use xlink:href="#vPpqz7qkD6xpGH5FmKMd_pad-27" x="11800" y="29700"/><use xlink:href="#vPpqz7qkD6xpGH5FmKMd_pad-27" x="11800" y="32700"/><use xlink:href="#vPpqz7qkD6xpGH5FmKMd_pad-27" x="19850" y="31350"/><use xlink:href="#vPpqz7qkD6xpGH5FmKMd_pad-27" x="23400" y="29500"/><use xlink:href="#vPpqz7qkD6xpGH5FmKMd_pad-27" x="21800" y="31900"/><use xlink:href="#vPpqz7qkD6xpGH5FmKMd_pad-27" x="25700" y="28200"/><use xlink:href="#vPpqz7qkD6xpGH5FmKMd_pad-27" x="11800" y="25000"/><use xlink:href="#vPpqz7qkD6xpGH5FmKMd_pad-27" x="29550" y="23050"/><use xlink:href="#vPpqz7qkD6xpGH5FmKMd_pad-27" x="30650" y="19550"/><use xlink:href="#vPpqz7qkD6xpGH5FmKMd_pad-27" x="24900" y="21100"/><use xlink:href="#vPpqz7qkD6xpGH5FmKMd_pad-27" x="23500" y="21000"/><use xlink:href="#vPpqz7qkD6xpGH5FmKMd_pad-27" x="19850" y="18350"/><use xlink:href="#vPpqz7qkD6xpGH5FmKMd_pad-27" x="21500" y="23500"/><use xlink:href="#vPpqz7qkD6xpGH5FmKMd_pad-27" x="21700" y="24700"/><use xlink:href="#vPpqz7qkD6xpGH5FmKMd_pad-27" x="21500" y="26600"/><use xlink:href="#vPpqz7qkD6xpGH5FmKMd_pad-28" x="11000" y="13000"/><use xlink:href="#vPpqz7qkD6xpGH5FmKMd_pad-28" x="9500" y="13000"/><use xlink:href="#vPpqz7qkD6xpGH5FmKMd_pad-28" x="9600" y="14200"/><use xlink:href="#vPpqz7qkD6xpGH5FmKMd_pad-28" x="9600" y="15400"/><use xlink:href="#vPpqz7qkD6xpGH5FmKMd_pad-28" x="10500" y="16600"/><use xlink:href="#vPpqz7qkD6xpGH5FmKMd_pad-28" x="9500" y="16600"/><use xlink:href="#vPpqz7qkD6xpGH5FmKMd_pad-28" x="11000" y="14300"/><use xlink:href="#vPpqz7qkD6xpGH5FmKMd_pad-28" x="11100" y="15600"/><use xlink:href="#vPpqz7qkD6xpGH5FmKMd_pad-28" x="9400" y="31200"/><use xlink:href="#vPpqz7qkD6xpGH5FmKMd_pad-28" x="10500" y="32900"/><use xlink:href="#vPpqz7qkD6xpGH5FmKMd_pad-28" x="8300" y="32900"/><use xlink:href="#vPpqz7qkD6xpGH5FmKMd_pad-28" x="9500" y="34400"/><use xlink:href="#vPpqz7qkD6xpGH5FmKMd_pad-28" x="10500" y="35700"/><use xlink:href="#vPpqz7qkD6xpGH5FmKMd_pad-28" x="8200" y="35700"/><use xlink:href="#vPpqz7qkD6xpGH5FmKMd_pad-28" x="9900" y="38400"/><use xlink:href="#vPpqz7qkD6xpGH5FmKMd_pad-28" x="9400" y="37200"/><use xlink:href="#vPpqz7qkD6xpGH5FmKMd_pad-28" x="8300" y="38400"/><use xlink:href="#vPpqz7qkD6xpGH5FmKMd_pad-28" x="9300" y="39900"/><use xlink:href="#vPpqz7qkD6xpGH5FmKMd_pad-28" x="10500" y="41200"/><use xlink:href="#vPpqz7qkD6xpGH5FmKMd_pad-28" x="8300" y="41200"/><use xlink:href="#vPpqz7qkD6xpGH5FmKMd_pad-28" x="11000" y="38500"/><use xlink:href="#vPpqz7qkD6xpGH5FmKMd_pad-28" x="10800" y="39700"/><use xlink:href="#vPpqz7qkD6xpGH5FmKMd_pad-28" x="16900" y="24700"/><use xlink:href="#vPpqz7qkD6xpGH5FmKMd_pad-28" x="33600" y="22200"/><use xlink:href="#vPpqz7qkD6xpGH5FmKMd_pad-28" x="33600" y="21500"/><use xlink:href="#vPpqz7qkD6xpGH5FmKMd_pad-28" x="32500" y="24700"/><use xlink:href="#vPpqz7qkD6xpGH5FmKMd_pad-28" x="32500" y="24000"/><use xlink:href="#vPpqz7qkD6xpGH5FmKMd_pad-28" x="32500" y="27000"/><use xlink:href="#vPpqz7qkD6xpGH5FmKMd_pad-28" x="32500" y="26300"/><use xlink:href="#vPpqz7qkD6xpGH5FmKMd_pad-28" x="32500" y="30100"/><use xlink:href="#vPpqz7qkD6xpGH5FmKMd_pad-28" x="32500" y="29400"/><use xlink:href="#vPpqz7qkD6xpGH5FmKMd_pad-28" x="32500" y="32400"/><use xlink:href="#vPpqz7qkD6xpGH5FmKMd_pad-28" x="32500" y="33100"/><use xlink:href="#vPpqz7qkD6xpGH5FmKMd_pad-28" x="37100" y="21300"/><use xlink:href="#vPpqz7qkD6xpGH5FmKMd_pad-28" x="37100" y="20100"/><use xlink:href="#vPpqz7qkD6xpGH5FmKMd_pad-28" x="37200" y="18800"/><use xlink:href="#vPpqz7qkD6xpGH5FmKMd_pad-28" x="40900" y="18600"/><use xlink:href="#vPpqz7qkD6xpGH5FmKMd_pad-28" x="40900" y="19800"/><use xlink:href="#vPpqz7qkD6xpGH5FmKMd_pad-28" x="40800" y="21200"/><use xlink:href="#vPpqz7qkD6xpGH5FmKMd_pad-28" x="36800" y="31600"/><use xlink:href="#vPpqz7qkD6xpGH5FmKMd_pad-28" x="36800" y="29600"/><use xlink:href="#vPpqz7qkD6xpGH5FmKMd_pad-28" x="37900" y="27900"/><use xlink:href="#vPpqz7qkD6xpGH5FmKMd_pad-28" x="39600" y="28000"/><use xlink:href="#vPpqz7qkD6xpGH5FmKMd_pad-28" x="40700" y="29600"/><use xlink:href="#vPpqz7qkD6xpGH5FmKMd_pad-28" x="40400" y="31500"/><use xlink:href="#vPpqz7qkD6xpGH5FmKMd_pad-28" x="14100" y="19200"/><use xlink:href="#vPpqz7qkD6xpGH5FmKMd_pad-28" x="14100" y="20000"/><use xlink:href="#vPpqz7qkD6xpGH5FmKMd_pad-28" x="14100" y="20800"/><use xlink:href="#vPpqz7qkD6xpGH5FmKMd_pad-28" x="19400" y="43100"/><use xlink:href="#vPpqz7qkD6xpGH5FmKMd_pad-28" x="19400" y="43900"/><use xlink:href="#vPpqz7qkD6xpGH5FmKMd_pad-28" x="19300" y="44800"/><use xlink:href="#vPpqz7qkD6xpGH5FmKMd_pad-28" x="33600" y="19600"/><use xlink:href="#vPpqz7qkD6xpGH5FmKMd_pad-28" x="28200" y="41000"/><use xlink:href="#vPpqz7qkD6xpGH5FmKMd_pad-28" x="23800" y="23900"/><use xlink:href="#vPpqz7qkD6xpGH5FmKMd_pad-28" x="26200" y="23900"/><use xlink:href="#vPpqz7qkD6xpGH5FmKMd_pad-28" x="26200" y="26100"/><use xlink:href="#vPpqz7qkD6xpGH5FmKMd_pad-28" x="23900" y="26100"/><use xlink:href="#vPpqz7qkD6xpGH5FmKMd_pad-28" x="24400" y="32400"/><use xlink:href="#vPpqz7qkD6xpGH5FmKMd_pad-28" x="25000" y="16400"/><use xlink:href="#vPpqz7qkD6xpGH5FmKMd_pad-28" x="25100" y="28800"/><use xlink:href="#vPpqz7qkD6xpGH5FmKMd_pad-28" x="27600" y="22000"/></g></svg>