<svg version="1.1" xmlns="http://www.w3.org/2000/svg" xmlns:xlink="http://www.w3.org/1999/xlink" stroke-linecap="round" stroke-linejoin="round" stroke-width="0" fill-rule="evenodd" width="24.7mm" height="28.8075mm" viewBox="11500 12592.5 24700 28807.5" id="mhhbq5Iv3AlbotPG7zWJ"><defs><circle cx="0" cy="0" r="300" id="mhhbq5Iv3AlbotPG7zWJ_pad-23"/></defs><g transform="translate(0,53992.5) scale(1,-1)" fill="currentColor" stroke="currentColor"><path d="M 24800 27300 30182.8 27300 M 24500 27600 24800 27300 M 30182.8 26317.2 30182.8 27300 M 24500 27600 24500 29900 M 22500 31900 24500 29900 M 30182.8 26317.2 30700 25800 M 21100 26600 21500 26600 M 29900 21100 30700 21900 30700 25800 M 21800 31900 22500 31900 M 24900 21100 29900 21100" fill="none" stroke-width="200"/><path d="M 14678.4 25300 15798.8 25300 M 21810.6 25650 22908.4 24552.3 M 15798.8 25300 16148.8 25650 21810.6 25650 M 33900 35800 33900 36400 M 25719.1 28219.1 26319.1 28219.1 M 25700 28200 25719.1 28219.1 M 26319.1 28219.1 33900 35800 M 33900 36400 35900 36400 M 28150 23050 29550 23050 M 28000 22900 28150 23050 M 23562.1 22900 28000 22900 M 22908.4 23553.8 23562.1 22900 M 22908.4 23553.8 22908.4 24552.3 M 14378.4 25000 14678.4 25300 M 11800 25000 14378.4 25000" fill="none" stroke-width="500"/><use xlink:href="#mhhbq5Iv3AlbotPG7zWJ_pad-23" x="13400" y="40900"/><use xlink:href="#mhhbq5Iv3AlbotPG7zWJ_pad-23" x="13397.5" y="37092.5"/><use xlink:href="#mhhbq5Iv3AlbotPG7zWJ_pad-23" x="35900" y="36400"/><use xlink:href="#mhhbq5Iv3AlbotPG7zWJ_pad-23" x="35600" y="13500"/><use xlink:href="#mhhbq5Iv3AlbotPG7zWJ_pad-23" x="19000" y="37100"/><use xlink:href="#mhhbq5Iv3AlbotPG7zWJ_pad-23" x="19000" y="13100"/><use xlink:href="#mhhbq5Iv3AlbotPG7zWJ_pad-23" x="13497.5" y="13092.5"/><use xlink:href="#mhhbq5Iv3AlbotPG7zWJ_pad-23" x="13497.5" y="16902.5"/><use xlink:href="#mhhbq5Iv3AlbotPG7zWJ_pad-23" x="19850" y="31350"/><use xlink:href="#mhhbq5Iv3AlbotPG7zWJ_pad-23" x="23400" y="29500"/><use xlink:href="#mhhbq5Iv3AlbotPG7zWJ_pad-23" x="21800" y="31900"/><use xlink:href="#mhhbq5Iv3AlbotPG7zWJ_pad-23" x="25700" y="28200"/><use xlink:href="#mhhbq5Iv3AlbotPG7zWJ_pad-23" x="11800" y="25000"/><use xlink:href="#mhhbq5Iv3AlbotPG7zWJ_pad-23" x="29550" y="23050"/><use xlink:href="#mhhbq5Iv3AlbotPG7zWJ_pad-23" x="30650" y="19550"/><use xlink:href="#mhhbq5Iv3AlbotPG7zWJ_pad-23" x="24900" y="21100"/><use xlink:href="#mhhbq5Iv3AlbotPG7zWJ_pad-23" x="23500" y="21000"/><use xlink:href="#mhhbq5Iv3AlbotPG7zWJ_pad-23" x="19850" y="18350"/><use xlink:href="#mhhbq5Iv3AlbotPG7zWJ_pad-23" x="21500" y="23500"/><use xlink:href="#mhhbq5Iv3AlbotPG7zWJ_pad-23" x="21500" y="26600"/><path d="M 12048.5 23468.7 21468.7 23468.7 21500 23500 M 12048.5 14541.5 12048.5 23468.7 M 30650 19550 35600 14600 M 35600 13500 35600 14600 M 12048.5 14541.5 13497.5 13092.5 M 19700 26600 21100 26600 M 14800 31500 19700 26600 M 16000 33500 16000 38300 M 14800 31500 14800 35690 M 16000 33500 20000 29500 M 13397.5 37092.5 14800 35690 M 13400 40900 16000 38300 M 20000 29500 23400 29500 M 19850 13950 19850 18350 M 19000 13100 19850 13950 M 19000 32200 19850 31350 M 19000 32200 19000 37100 M 13497.5 16902.5 17595 21000 23500 21000" fill="none" stroke-width="1000"/></g></svg>