<svg version="1.1" xmlns="http://www.w3.org/2000/svg" xmlns:xlink="http://www.w3.org/1999/xlink" stroke-linecap="round" stroke-linejoin="round" stroke-width="0" fill-rule="evenodd" width="46.6978mm" height="43.1989mm" viewBox="1200 2901.1 46697.8 43198.9" id="EfZ4Jc0aYXg8ilc8VXo4"><defs><mask id="EfZ4Jc0aYXg8ilc8VXo4_clear-1" fill="#000" stroke="#000"><g><rect x="1200" y="2901.1" width="46697.8" height="43198.9" fill="#fff"/><path d="M 15050 44356.9 14913.4 44329.7 14797.7 44252.3 14720.3 44136.6 14693.1 44000 14693.1 43200 14720.3 43063.4 14797.7 42947.7 14913.4 42870.3 15050 42843.2 15186.6 42870.3 15302.3 42947.7 15379.7 43063.4 15406.9 43200 15406.9 44000 15379.7 44136.6 15302.3 44252.3 15186.6 44329.7 15050 44356.9"/><path d="M 11879.6 25400 11720.4 25400 11573.4 25339.1 11460.9 25226.6 11400 25079.6 11400 24920.4 11460.9 24773.4 11573.4 24660.9 11720.4 24600 11879.6 24600 12026.6 24660.9 12139.1 24773.4 12200 24920.4 12200 25079.6 12139.1 25226.6 12026.6 25339.1 11879.6 25400"/><path d="M 19929.6 18750 19770.4 18750 19623.4 18689.1 19510.9 18576.6 19450 18429.6 19450 18270.4 19510.9 18123.4 19623.4 18010.9 19770.4 17950 19929.6 17950 20076.6 18010.9 20189.1 18123.4 20250 18270.4 20250 18429.6 20189.1 18576.6 20076.6 18689.1 19929.6 18750"/><path d="M 22230 37400.9 22112.9 37377.6 22013.7 37311.3 21947.4 37212.1 21924.1 37095 21947.4 36978 22013.7 36878.7 22108.7 36783.7 22207.9 36717.4 22325 36694.1 22442.1 36717.4 22541.3 36783.7 22607.6 36882.9 22630.9 37000 22607.6 37117.1 22541.3 37216.3 22446.3 37311.3 22347 37377.6 22230 37400.9"/><path d="M 38900 36203.9 38822 36188.4 38755.8 36144.2 38591.2 35979.6 38578 35988.4 38500 36003.9 38422 35988.4 38355.8 35944.2 38311.6 35878 38296.1 35800 38311.6 35722 38355.8 35655.8 38455.8 35555.8 38455.8 35555.8 38522 35511.6 38600 35496.1 38678 35511.6 38744.2 35555.8 39044.2 35855.8 39088.4 35922 39103.9 36000 39088.4 36078 39044.2 36144.2 38978 36188.4 38900 36203.9"/><path d="M 16979.6 25100 16820.4 25100 16673.4 25039.1 16560.9 24926.6 16500 24779.6 16500 24620.4 16560.9 24473.4 16673.4 24360.9 16820.4 24300 16979.6 24300 17126.6 24360.9 17239.1 24473.4 17300 24620.4 17300 24779.6 17239.1 24926.6 17126.6 25039.1 16979.6 25100"/><path d="M 21579.6 23900 21420.4 23900 21273.4 23839.1 21160.9 23726.6 21100 23579.6 21100 23420.4 21160.9 23273.4 21273.4 23160.9 21420.4 23100 21579.6 23100 21726.6 23160.9 21839.1 23273.4 21900 23420.4 21900 23579.6 21839.1 23726.6 21726.6 23839.1 21579.6 23900"/><path d="M 22230 13400.9 22112.9 13377.6 22013.7 13311.3 21947.4 13212.1 21924.1 13095 21947.4 12978 22013.7 12878.7 22108.7 12783.7 22207.9 12717.4 22325 12694.1 22442.1 12717.4 22541.3 12783.7 22607.6 12882.9 22630.9 13000 22607.6 13117.1 22541.3 13216.3 22446.3 13311.3 22347 13377.6 22230 13400.9"/><path d="M 38800 14703.9 38722 14688.4 38655.8 14644.2 38611.6 14578 38596.1 14500 38611.6 14422 38655.8 14355.8 38755.8 14255.8 38755.8 14255.8 39155.8 13855.8 39222 13811.6 39300 13796.1 39378 13811.6 39444.2 13855.8 39488.4 13922 39503.9 14000 39488.4 14078 39444.2 14144.2 39044.2 14544.2 39044.2 14544.2 38944.2 14644.2 38878 14688.4 38800 14703.9"/></g></mask><rect x="-1925" y="-2750" width="3850" height="5500" id="EfZ4Jc0aYXg8ilc8VXo4_pad-12"/><rect x="-597" y="-279.5" width="1194" height="559" id="EfZ4Jc0aYXg8ilc8VXo4_pad-13"/><rect x="-450" y="-1250" width="900" height="2500" id="EfZ4Jc0aYXg8ilc8VXo4_pad-14"/><rect x="-1275" y="-1875" width="2550" height="3750" id="EfZ4Jc0aYXg8ilc8VXo4_pad-15"/><circle cx="0" cy="0" r="2000" id="EfZ4Jc0aYXg8ilc8VXo4_pad-22"/><circle cx="0" cy="0" r="300" id="EfZ4Jc0aYXg8ilc8VXo4_pad-23"/></defs><g transform="translate(0,49001.1) scale(1,-1)" fill="currentColor" stroke="currentColor"><g mask="url(#EfZ4Jc0aYXg8ilc8VXo4_clear-1)"><path d="M 20300 42800 20200 42700 17700 42700 17700 45300 20300 45300 20300 42800"/><path d="M 16100 43700 17600 42200 18200 42200 18200 40400 18100 40300 14900 40300 14900 42000 14800 42100 7599.2 42100 7799.2 29601.9 11351.1 29668.5 11400 29620.4 11460.9 29473.4 11573.4 29360.9 11720.4 29300 11879.6 29300 12026.6 29360.9 12139.1 29473.4 12200 29620.4 12200 29684.4 23042.4 29887.7 23096 29761.7 23060.9 29726.6 23000 29579.6 23000 29420.4 23060.9 29273.4 23173.4 29160.9 23320.4 29100 23479.6 29100 23573 29138.7 23700 29100 23700 29100 24100 29200 24754.7 29200 24807.3 29073 24760.9 29026.6 24700 28879.6 24700 28720.4 24760.9 28573.4 24873.4 28460.9 25020.4 28400 25179.6 28400 25219.2 28416.4 25316.4 28319.2 25300 28279.6 25300 28120.4 25360.9 27973.4 25407.3 27927 25354.7 27800 11904.7 27800 10852.3 28852.3 10736.6 28929.7 10600 28956.9 7494.9 28956.9 6199.4 30252.3 6083.7 30329.7 5947.1 30356.9 5000 30356.9 4863.4 30329.7 4747.7 30252.3 4670.3 30136.6 4643.1 30000 4670.3 29863.4 4747.7 29747.7 4863.4 29670.3 5000 29643.1 5799.3 29643.1 7094.8 28347.7 7210.5 28270.3 7347.1 28243.1 10452.2 28243.1 10778 27917.3 10729.4 27800 10700 27800 12022.9 25477.1 12968.2 25477.1 17793.1 20652.2 17793.1 20000 17793.1 19200 17820.3 19063.4 17897.7 18947.7 18013.4 18870.3 18150 18843.1 18286.6 18870.3 18402.3 18947.7 18479.7 19063.4 18506.9 19200 18506.9 19643.1 19500 19643.1 19636.6 19670.3 19752.3 19747.7 21982.7 21978 22100 21929.4 22100 16900 21700 16500 16700 16500 16600 16600 16600 21300 15500 22400 12100 22400 6600 27900 1200 27900 1200 46000 16100 46000 16100 43700"/><path d="M 24500 33900 20300 33900 17600 36600 16400 36600 16400 40000 24500 40000 24500 33900"/><path d="M 47897.8 33590.9 47809.1 33500 37200 33500 37200 34000 30500 34000 30300 34200 30300 46100 47600 46100 47897.8 33590.9"/><path d="M 11200 40200 13200 40200 13200 37900 11000 37900 11000 30100 7900 30100 7900 41700 11200 41700 11200 40200"/><path d="M 41100 27300 36300 27300 36300 32200 41100 32200 41100 27300"/><path d="M 31400 28500 31400 25100 29970.6 25100 29922 25217.3 29952.3 25247.7 30029.7 25363.4 30056.9 25500 30029.7 25636.6 29952.3 25752.3 29836.6 25829.7 29700 25856.9 29563.4 25829.7 29447.7 25752.3 28795.3 25100 28600 25100 28600 27800 26045.3 27800 25992.7 27927 26039.1 27973.4 26100 28120.4 26100 28279.6 26039.1 28426.6 25926.6 28539.1 25779.6 28600 25620.4 28600 25580.8 28583.6 25483.6 28680.8 25500 28720.4 25500 28879.6 25439.1 29026.6 25392.7 29073 25445.3 29200 30700 29200 31400 28500"/><path d="M 22100 25045.3 21973 24992.7 21926.6 25039.1 21779.6 25100 21620.4 25100 21473.4 25039.1 21360.9 24926.6 21300 24779.6 21300 24620.4 21360.9 24473.4 21473.4 24360.9 21620.4 24300 21779.6 24300 21926.6 24360.9 21973 24407.3 22100 24354.7 22100 23104.7 19352.2 20356.9 18506.9 20356.9 18506.9 20800 18479.7 20936.6 18402.3 21052.3 14094.9 25359.8 14143.5 25477.1 22100 25477.1 22100 25045.3"/><path d="M 15500 18700 13700 18700 13700 21300 15500 21300 15500 18700"/><path d="M 41300 17900 36700 17900 36700 21700 41300 21700 41300 17900"/><path d="M 10900 16100 13400 16100 13400 13900 11500 13900 11500 12500 9000 12500 9000 17300 10900 17300 10900 16100"/><path d="M 24500 10000 18500 10000 16600 11900 16600 16000 24500 16000 24500 10000"/><path d="M 47100 2990.3 47009.7 2901.1 30100 3100 30100 16400 47100 16400 47100 2990.3"/></g><path d="M 12173 40905 12175.5 40902.5 M 13397.5 40902.5 13400 40900 M 12170.5 37097.5 12173 37095 M 22230 37095 22325 37000 M 38900 14400 39300 14000 M 38800 14500 38900 14400 M 38600 35700 38900 36000 M 38500 35800 38600 35700 M 22230 13095 22325 13000 M 12270.5 13097.5 12273 13095 M 12270.5 16907.5 12273 16905 M 13495 16905 13497.5 16902.5" fill="none" stroke-width="200"/><use xlink:href="#EfZ4Jc0aYXg8ilc8VXo4_pad-12" x="32275" y="13000"/><use xlink:href="#EfZ4Jc0aYXg8ilc8VXo4_pad-12" x="22325" y="13000"/><use xlink:href="#EfZ4Jc0aYXg8ilc8VXo4_pad-12" x="22325" y="37000"/><use xlink:href="#EfZ4Jc0aYXg8ilc8VXo4_pad-12" x="32275" y="37000"/><use xlink:href="#EfZ4Jc0aYXg8ilc8VXo4_pad-13" x="12273" y="16905"/><use xlink:href="#EfZ4Jc0aYXg8ilc8VXo4_pad-13" x="12273" y="15635"/><use xlink:href="#EfZ4Jc0aYXg8ilc8VXo4_pad-13" x="12273" y="14365"/><use xlink:href="#EfZ4Jc0aYXg8ilc8VXo4_pad-13" x="12273" y="13095"/><use xlink:href="#EfZ4Jc0aYXg8ilc8VXo4_pad-13" x="17327" y="16905"/><use xlink:href="#EfZ4Jc0aYXg8ilc8VXo4_pad-13" x="17327" y="15635"/><use xlink:href="#EfZ4Jc0aYXg8ilc8VXo4_pad-13" x="17327" y="14365"/><use xlink:href="#EfZ4Jc0aYXg8ilc8VXo4_pad-13" x="17327" y="13095"/><use xlink:href="#EfZ4Jc0aYXg8ilc8VXo4_pad-13" x="12173" y="40905"/><use xlink:href="#EfZ4Jc0aYXg8ilc8VXo4_pad-13" x="12173" y="39635"/><use xlink:href="#EfZ4Jc0aYXg8ilc8VXo4_pad-13" x="12173" y="38365"/><use xlink:href="#EfZ4Jc0aYXg8ilc8VXo4_pad-13" x="12173" y="37095"/><use xlink:href="#EfZ4Jc0aYXg8ilc8VXo4_pad-13" x="17227" y="40905"/><use xlink:href="#EfZ4Jc0aYXg8ilc8VXo4_pad-13" x="17227" y="39635"/><use xlink:href="#EfZ4Jc0aYXg8ilc8VXo4_pad-13" x="17227" y="38365"/><use xlink:href="#EfZ4Jc0aYXg8ilc8VXo4_pad-13" x="17227" y="37095"/><use xlink:href="#EfZ4Jc0aYXg8ilc8VXo4_pad-14" x="15050" y="44000"/><use xlink:href="#EfZ4Jc0aYXg8ilc8VXo4_pad-14" x="18150" y="44000"/><use xlink:href="#EfZ4Jc0aYXg8ilc8VXo4_pad-14" x="18150" y="20000"/><use xlink:href="#EfZ4Jc0aYXg8ilc8VXo4_pad-14" x="15050" y="20000"/><use xlink:href="#EfZ4Jc0aYXg8ilc8VXo4_pad-15" x="38600" y="30300"/><use xlink:href="#EfZ4Jc0aYXg8ilc8VXo4_pad-15" x="38600" y="35700"/><use xlink:href="#EfZ4Jc0aYXg8ilc8VXo4_pad-15" x="38900" y="14400"/><use xlink:href="#EfZ4Jc0aYXg8ilc8VXo4_pad-15" x="38900" y="19800"/><path d="M 12174.2 37093.8 13396.2 37093.8 M 12173 37095 12174.2 37093.8 M 12175.5 40902.5 13397.5 40902.5 M 13396.2 37093.8 13397.5 37092.5 M 15050 43200 15050 44000 M 5947.1 30000 7347.1 28600 10600 28600 11800 27400 M 11819.1 27130.9 18150 20800 M 27100 22900 29700 25500 M 22400 22900 27100 22900 M 19500 20000 22400 22900 M 18150 20000 19500 20000 M 18150 19200 18150 20000 M 11800 27400 11819.1 27380.9 M 18150 20000 18150 20800 M 11819.1 27130.9 11819.1 27380.9 M 5000 30000 5947.1 30000 M 12273 13095 12274.3 13093.8 13496.3 13093.8 13497.5 13092.5 M 12273 16905 13495 16905" fill="none" stroke-width="500"/><use xlink:href="#EfZ4Jc0aYXg8ilc8VXo4_pad-22" x="5000" y="20000"/><use xlink:href="#EfZ4Jc0aYXg8ilc8VXo4_pad-22" x="45000" y="20000"/><use xlink:href="#EfZ4Jc0aYXg8ilc8VXo4_pad-22" x="45000" y="14000"/><use xlink:href="#EfZ4Jc0aYXg8ilc8VXo4_pad-22" x="45000" y="36000"/><use xlink:href="#EfZ4Jc0aYXg8ilc8VXo4_pad-22" x="45000" y="30000"/><use xlink:href="#EfZ4Jc0aYXg8ilc8VXo4_pad-22" x="5000" y="30000"/><use xlink:href="#EfZ4Jc0aYXg8ilc8VXo4_pad-23" x="13400" y="40900"/><use xlink:href="#EfZ4Jc0aYXg8ilc8VXo4_pad-23" x="13397.5" y="37092.5"/><use xlink:href="#EfZ4Jc0aYXg8ilc8VXo4_pad-23" x="11900" y="34900"/><use xlink:href="#EfZ4Jc0aYXg8ilc8VXo4_pad-23" x="11000" y="13000"/><use xlink:href="#EfZ4Jc0aYXg8ilc8VXo4_pad-23" x="9500" y="13000"/><use xlink:href="#EfZ4Jc0aYXg8ilc8VXo4_pad-23" x="9600" y="14200"/><use xlink:href="#EfZ4Jc0aYXg8ilc8VXo4_pad-23" x="9600" y="15400"/><use xlink:href="#EfZ4Jc0aYXg8ilc8VXo4_pad-23" x="10500" y="16600"/><use xlink:href="#EfZ4Jc0aYXg8ilc8VXo4_pad-23" x="9500" y="16600"/><use xlink:href="#EfZ4Jc0aYXg8ilc8VXo4_pad-23" x="11000" y="14300"/><use xlink:href="#EfZ4Jc0aYXg8ilc8VXo4_pad-23" x="11100" y="15600"/><use xlink:href="#EfZ4Jc0aYXg8ilc8VXo4_pad-23" x="9400" y="31200"/><use xlink:href="#EfZ4Jc0aYXg8ilc8VXo4_pad-23" x="10500" y="32900"/><use xlink:href="#EfZ4Jc0aYXg8ilc8VXo4_pad-23" x="8300" y="32900"/><use xlink:href="#EfZ4Jc0aYXg8ilc8VXo4_pad-23" x="9500" y="34400"/><use xlink:href="#EfZ4Jc0aYXg8ilc8VXo4_pad-23" x="10500" y="35700"/><use xlink:href="#EfZ4Jc0aYXg8ilc8VXo4_pad-23" x="8200" y="35700"/><use xlink:href="#EfZ4Jc0aYXg8ilc8VXo4_pad-23" x="9900" y="38400"/><use xlink:href="#EfZ4Jc0aYXg8ilc8VXo4_pad-23" x="9400" y="37200"/><use xlink:href="#EfZ4Jc0aYXg8ilc8VXo4_pad-23" x="8300" y="38400"/><use xlink:href="#EfZ4Jc0aYXg8ilc8VXo4_pad-23" x="9300" y="39900"/><use xlink:href="#EfZ4Jc0aYXg8ilc8VXo4_pad-23" x="10500" y="41200"/><use xlink:href="#EfZ4Jc0aYXg8ilc8VXo4_pad-23" x="8300" y="41200"/><use xlink:href="#EfZ4Jc0aYXg8ilc8VXo4_pad-23" x="11000" y="38500"/><use xlink:href="#EfZ4Jc0aYXg8ilc8VXo4_pad-23" x="10800" y="39700"/><use xlink:href="#EfZ4Jc0aYXg8ilc8VXo4_pad-23" x="16900" y="24700"/><use xlink:href="#EfZ4Jc0aYXg8ilc8VXo4_pad-23" x="33600" y="22200"/><use xlink:href="#EfZ4Jc0aYXg8ilc8VXo4_pad-23" x="33600" y="21500"/><use xlink:href="#EfZ4Jc0aYXg8ilc8VXo4_pad-23" x="32500" y="24700"/><use xlink:href="#EfZ4Jc0aYXg8ilc8VXo4_pad-23" x="32500" y="24000"/><use xlink:href="#EfZ4Jc0aYXg8ilc8VXo4_pad-23" x="32500" y="27000"/><use xlink:href="#EfZ4Jc0aYXg8ilc8VXo4_pad-23" x="32500" y="26300"/><use xlink:href="#EfZ4Jc0aYXg8ilc8VXo4_pad-23" x="32500" y="30100"/><use xlink:href="#EfZ4Jc0aYXg8ilc8VXo4_pad-23" x="32500" y="29400"/><use xlink:href="#EfZ4Jc0aYXg8ilc8VXo4_pad-23" x="32500" y="32400"/><use xlink:href="#EfZ4Jc0aYXg8ilc8VXo4_pad-23" x="32500" y="33100"/><use xlink:href="#EfZ4Jc0aYXg8ilc8VXo4_pad-23" x="37100" y="21300"/><use xlink:href="#EfZ4Jc0aYXg8ilc8VXo4_pad-23" x="37100" y="20100"/><use xlink:href="#EfZ4Jc0aYXg8ilc8VXo4_pad-23" x="37200" y="18800"/><use xlink:href="#EfZ4Jc0aYXg8ilc8VXo4_pad-23" x="40900" y="18600"/><use xlink:href="#EfZ4Jc0aYXg8ilc8VXo4_pad-23" x="40900" y="19800"/><use xlink:href="#EfZ4Jc0aYXg8ilc8VXo4_pad-23" x="40800" y="21200"/><use xlink:href="#EfZ4Jc0aYXg8ilc8VXo4_pad-23" x="36800" y="31600"/><use xlink:href="#EfZ4Jc0aYXg8ilc8VXo4_pad-23" x="36800" y="29600"/><use xlink:href="#EfZ4Jc0aYXg8ilc8VXo4_pad-23" x="37900" y="27900"/><use xlink:href="#EfZ4Jc0aYXg8ilc8VXo4_pad-23" x="39600" y="28000"/><use xlink:href="#EfZ4Jc0aYXg8ilc8VXo4_pad-23" x="40700" y="29600"/><use xlink:href="#EfZ4Jc0aYXg8ilc8VXo4_pad-23" x="40400" y="31500"/><use xlink:href="#EfZ4Jc0aYXg8ilc8VXo4_pad-23" x="14100" y="19200"/><use xlink:href="#EfZ4Jc0aYXg8ilc8VXo4_pad-23" x="14100" y="20000"/><use xlink:href="#EfZ4Jc0aYXg8ilc8VXo4_pad-23" x="14100" y="20800"/><use xlink:href="#EfZ4Jc0aYXg8ilc8VXo4_pad-23" x="19400" y="43100"/><use xlink:href="#EfZ4Jc0aYXg8ilc8VXo4_pad-23" x="19400" y="43900"/><use xlink:href="#EfZ4Jc0aYXg8ilc8VXo4_pad-23" x="19300" y="44800"/><use xlink:href="#EfZ4Jc0aYXg8ilc8VXo4_pad-23" x="29700" y="25500"/><use xlink:href="#EfZ4Jc0aYXg8ilc8VXo4_pad-23" x="27865" y="26265"/><use xlink:href="#EfZ4Jc0aYXg8ilc8VXo4_pad-23" x="28300" y="36600"/><use xlink:href="#EfZ4Jc0aYXg8ilc8VXo4_pad-23" x="33600" y="19600"/><use xlink:href="#EfZ4Jc0aYXg8ilc8VXo4_pad-23" x="35900" y="36400"/><use xlink:href="#EfZ4Jc0aYXg8ilc8VXo4_pad-23" x="35600" y="13500"/><use xlink:href="#EfZ4Jc0aYXg8ilc8VXo4_pad-23" x="19000" y="37100"/><use xlink:href="#EfZ4Jc0aYXg8ilc8VXo4_pad-23" x="19000" y="13100"/><use xlink:href="#EfZ4Jc0aYXg8ilc8VXo4_pad-23" x="13497.5" y="13092.5"/><use xlink:href="#EfZ4Jc0aYXg8ilc8VXo4_pad-23" x="13497.5" y="16902.5"/><use xlink:href="#EfZ4Jc0aYXg8ilc8VXo4_pad-23" x="28200" y="41000"/><use xlink:href="#EfZ4Jc0aYXg8ilc8VXo4_pad-23" x="23800" y="23900"/><use xlink:href="#EfZ4Jc0aYXg8ilc8VXo4_pad-23" x="26200" y="23900"/><use xlink:href="#EfZ4Jc0aYXg8ilc8VXo4_pad-23" x="26200" y="26100"/><use xlink:href="#EfZ4Jc0aYXg8ilc8VXo4_pad-23" x="23900" y="26100"/><use xlink:href="#EfZ4Jc0aYXg8ilc8VXo4_pad-23" x="24400" y="32400"/><use xlink:href="#EfZ4Jc0aYXg8ilc8VXo4_pad-23" x="25000" y="16400"/><use xlink:href="#EfZ4Jc0aYXg8ilc8VXo4_pad-23" x="11800" y="27400"/><use xlink:href="#EfZ4Jc0aYXg8ilc8VXo4_pad-23" x="29700" y="36600"/><use xlink:href="#EfZ4Jc0aYXg8ilc8VXo4_pad-23" x="30400" y="31100"/><use xlink:href="#EfZ4Jc0aYXg8ilc8VXo4_pad-23" x="22700" y="16700"/><use xlink:href="#EfZ4Jc0aYXg8ilc8VXo4_pad-23" x="27400" y="15700"/><use xlink:href="#EfZ4Jc0aYXg8ilc8VXo4_pad-23" x="11800" y="29700"/><use xlink:href="#EfZ4Jc0aYXg8ilc8VXo4_pad-23" x="11800" y="32700"/><use xlink:href="#EfZ4Jc0aYXg8ilc8VXo4_pad-23" x="19850" y="31350"/><use xlink:href="#EfZ4Jc0aYXg8ilc8VXo4_pad-23" x="23400" y="29500"/><use xlink:href="#EfZ4Jc0aYXg8ilc8VXo4_pad-23" x="21800" y="31900"/><use xlink:href="#EfZ4Jc0aYXg8ilc8VXo4_pad-23" x="25100" y="28800"/><use xlink:href="#EfZ4Jc0aYXg8ilc8VXo4_pad-23" x="25700" y="28200"/><use xlink:href="#EfZ4Jc0aYXg8ilc8VXo4_pad-23" x="11800" y="25000"/><use xlink:href="#EfZ4Jc0aYXg8ilc8VXo4_pad-23" x="29550" y="23050"/><use xlink:href="#EfZ4Jc0aYXg8ilc8VXo4_pad-23" x="27600" y="22000"/><use xlink:href="#EfZ4Jc0aYXg8ilc8VXo4_pad-23" x="30650" y="19550"/><use xlink:href="#EfZ4Jc0aYXg8ilc8VXo4_pad-23" x="24900" y="21100"/><use xlink:href="#EfZ4Jc0aYXg8ilc8VXo4_pad-23" x="23500" y="21000"/><use xlink:href="#EfZ4Jc0aYXg8ilc8VXo4_pad-23" x="19850" y="18350"/><use xlink:href="#EfZ4Jc0aYXg8ilc8VXo4_pad-23" x="21500" y="23500"/><use xlink:href="#EfZ4Jc0aYXg8ilc8VXo4_pad-23" x="21700" y="24700"/><use xlink:href="#EfZ4Jc0aYXg8ilc8VXo4_pad-23" x="21500" y="26600"/></g></svg>