<svg version="1.1" xmlns="http://www.w3.org/2000/svg" xmlns:xlink="http://www.w3.org/1999/xlink" stroke-linecap="round" stroke-linejoin="round" stroke-width="0" fill-rule="evenodd" width="49.32mm" height="41.6888mm" viewBox="290 6600 49320 41688.8" id="OVV_NOM1hO4bQ2wydt1X"><g transform="translate(0,54888.8) scale(1,-1)" fill="currentColor" stroke="currentColor"><path d="M 14482.5 17500 A 317.5 317.5 0 0 1 15117.5 17500 M 14382.5 41500 A 317.5 317.5 0 0 1 15017.5 41500 M 21000 19300 33600 19300 M 21000 6700 33600 6700 M 33600 16200 33600 19300 M 21000 16200 21000 19300 M 33600 6700 33600 9800 M 21000 6700 21000 9800 M 12800 17500 14482.5 17500 M 15117.5 17500 16800 17500 M 12800 12500 16800 12500 M 12700 41500 14382.5 41500 M 15017.5 41500 16700 41500 M 12700 36500 16700 36500 M 21000 30700 33600 30700 M 21000 43300 33600 43300 M 21000 30700 21000 33800 M 33600 30700 33600 33800 M 21000 40200 21000 43300 M 33600 40200 33600 43300 M 19000 42400 19000 45600 M 14200 42400 19000 42400 M 14200 42400 14200 45600 19000 45600 M 35800 38100 35800 38600 M 41400 38100 41400 38600 M 35800 38600 41400 38600 M 35800 38100 41400 38100 M 41400 27900 41400 38100 M 35800 27900 41400 27900 M 35800 27900 35800 38100 M 41700 12000 41700 22200 M 36100 22200 41700 22200 M 36100 12000 36100 22200 M 36100 12000 41700 12000 M 36100 11500 41700 11500 M 36100 11500 36100 12000 M 41700 11500 41700 12000 M 14200 18400 14200 21600 19000 21600 M 19000 18400 19000 21600 M 14200 18400 19000 18400" fill="none" stroke-width="200"/><path d="M 11654 18146 11654 17812.8 11654 17979.4 12653.7 17979.4 12487.1 18146 M 11654 42146 11654 41812.8 11654 41979.4 12653.7 41979.4 12487.1 42146 M 44015.8 11177.5 43507.9 11177.5 43254 10923.6 43254 9907.9 43507.9 9654 44015.8 9654 44269.7 9907.9 44269.7 10923.6 44015.8 11177.5 M 44777.5 11177.5 44777.5 9907.9 45031.4 9654 45539.3 9654 45793.2 9907.9 45793.2 11177.5 M 46301 11177.5 47316.7 11177.5 46808.8 11177.5 46808.8 9654 M 47824.5 9654 48332.4 9654 48078.4 9654 48078.4 11177.5 47824.5 10923.6 M 44369.7 23823.6 44115.7 24077.5 43607.9 24077.5 43354 23823.6 43354 22807.9 43607.9 22554 44115.7 22554 44369.7 22807.9 44369.7 23315.8 43861.8 23315.8 M 44877.5 22554 44877.5 24077.5 45893.2 22554 45893.2 24077.5 M 46401 24077.5 46401 22554 47162.8 22554 47416.7 22807.9 47416.7 23823.6 47162.8 24077.5 46401 24077.5 M 44369.7 27123.6 44115.7 27377.5 43607.9 27377.5 43354 27123.6 43354 26107.9 43607.9 25854 44115.7 25854 44369.7 26107.9 44369.7 26615.7 43861.8 26615.7 M 44877.5 25854 44877.5 27377.5 45893.2 25854 45893.2 27377.5 M 46401 27377.5 46401 25854 47162.8 25854 47416.7 26107.9 47416.7 27123.6 47162.8 27377.5 46401 27377.5 M 43615.7 39977.5 43107.9 39977.5 42854 39723.6 42854 38707.9 43107.9 38454 43615.7 38454 43869.7 38707.9 43869.7 39723.6 43615.7 39977.5 M 44377.5 39977.5 44377.5 38707.9 44631.4 38454 45139.3 38454 45393.2 38707.9 45393.2 39977.5 M 45901 39977.5 46916.7 39977.5 46408.9 39977.5 46408.9 38454 M 48440.2 38454 47424.5 38454 48440.2 39469.7 48440.2 39723.6 48186.3 39977.5 47678.4 39977.5 47424.5 39723.6 M 4369.7 17123.6 4115.7 17377.5 3607.9 17377.5 3354 17123.6 3354 16107.9 3607.9 15854 4115.7 15854 4369.7 16107.9 4369.7 16615.7 3861.8 16615.7 M 4877.5 15854 4877.5 17377.5 5893.2 15854 5893.2 17377.5 M 6401 17377.5 6401 15854 7162.8 15854 7416.7 16107.9 7416.7 17123.6 7162.8 17377.5 6401 17377.5 M 1554 33215.8 2569.7 33215.8 M 2061.8 33723.6 2061.8 32707.9 M 3077.5 33977.5 3077.5 32961.8 3585.3 32454 4093.2 32961.8 4093.2 33977.5 M 4601 33977.5 5108.9 33977.5 4854.9 33977.5 4854.9 32454 4601 32454 5108.9 32454 M 5870.6 32454 5870.6 33977.5 6886.3 32454 6886.3 33977.5 M 1283.4 20749.8 850.2 20749.8 1066.8 20749.8 1066.8 19666.8 850.2 19450.2 633.6 19450.2 417 19666.8 M 2583 19450.2 1716.6 19450.2 2583 20316.6 2583 20533.2 2366.4 20749.8 1933.2 20749.8 1716.6 20533.2 M 26084.3 21261.7 26084.3 19738.3 27100 19738.3 M 27607.8 19738.3 28115.7 19738.3 27861.8 19738.3 27861.8 21261.7 27607.8 21007.8 M 48183.4 20849.8 47750.2 20849.8 47966.8 20849.8 47966.8 19766.8 47750.2 19550.2 47533.6 19550.2 47317 19766.8 M 49483 20849.8 48616.6 20849.8 48616.6 20200 49049.8 20416.6 49266.4 20416.6 49483 20200 49483 19766.8 49266.4 19550.2 48833.2 19550.2 48616.6 19766.8 M 48183.4 14349.8 47750.2 14349.8 47966.8 14349.8 47966.8 13266.8 47750.2 13050.2 47533.6 13050.2 47317 13266.8 M 48616.6 14133.2 48833.2 14349.8 49266.4 14349.8 49483 14133.2 49483 13916.6 49266.4 13700 49049.8 13700 49266.4 13700 49483 13483.4 49483 13266.8 49266.4 13050.2 48833.2 13050.2 48616.6 13266.8 M 48183.4 36949.8 47750.2 36949.8 47966.8 36949.8 47966.8 35866.8 47750.2 35650.2 47533.6 35650.2 47317 35866.8 M 49266.4 35650.2 49266.4 36949.8 48616.6 36300 49483 36300 M 48183.4 30549.8 47750.2 30549.8 47966.8 30549.8 47966.8 29466.8 47750.2 29250.2 47533.6 29250.2 47317 29466.8 M 49483 30549.8 49049.8 30333.2 48616.6 29900 48616.6 29466.8 48833.2 29250.2 49266.4 29250.2 49483 29466.8 49483 29683.4 49266.4 29900 48616.6 29900 M 1400 30449.8 966.8 30449.8 1183.4 30449.8 1183.4 29366.8 966.8 29150.2 750.2 29150.2 533.6 29366.8 M 1833.2 29150.2 2266.4 29150.2 2049.8 29150.2 2049.8 30449.8 1833.2 30233.2 M 14600 10792.2 14600 11807.8 14346.1 12061.8 13838.3 12061.8 13584.3 11807.8 13584.3 10792.2 13838.3 10538.2 14346.1 10538.2 M 14092.2 11046.1 14600 10538.2 M 14346.1 10538.2 14600 10792.2 M 15107.8 10538.2 15615.7 10538.2 15361.7 10538.2 15361.7 12061.8 15107.8 11807.8 M 14646.1 34692.2 14646.1 35707.8 14392.2 35961.8 13884.3 35961.8 13630.4 35707.8 13630.4 34692.2 13884.3 34438.3 14392.2 34438.3 M 14138.3 34946.1 14646.1 34438.3 M 14392.2 34438.3 14646.1 34692.2 M 16169.6 34438.3 15153.9 34438.3 16169.6 35453.9 16169.6 35707.8 15915.7 35961.8 15407.8 35961.8 15153.9 35707.8 M 24430.4 45461.8 24430.4 43938.3 25446.1 43938.3 M 26969.6 43938.3 25953.9 43938.3 26969.6 44953.9 26969.6 45207.8 26715.7 45461.8 26207.8 45461.8 25953.9 45207.8 M 15246.1 47907.8 14992.2 48161.8 14484.3 48161.8 14230.4 47907.8 14230.4 46892.2 14484.3 46638.2 14992.2 46638.2 15246.1 46892.2 M 16769.6 48161.8 16261.7 47907.8 15753.9 47400 15753.9 46892.2 16007.8 46638.2 16515.7 46638.2 16769.6 46892.2 16769.6 47146.1 16515.7 47400 15753.9 47400 M 36959.1 40743.6 36705.2 40997.5 36197.3 40997.5 35943.4 40743.6 35943.4 39727.9 36197.3 39474 36705.2 39474 36959.1 39727.9 M 37466.9 39474 37974.7 39474 37720.8 39474 37720.8 40997.5 37466.9 40743.6 M 38736.5 40743.6 38990.4 40997.5 39498.2 40997.5 39752.2 40743.6 39752.2 39727.9 39498.2 39474 38990.4 39474 38736.5 39727.9 38736.5 40743.6 M 37263.9 24335.2 37009.9 24589.1 36502.1 24589.1 36248.2 24335.2 36248.2 23319.5 36502.1 23065.6 37009.9 23065.6 37263.9 23319.5 M 37771.7 23319.5 38025.6 23065.6 38533.5 23065.6 38787.4 23319.5 38787.4 24335.2 38533.5 24589.1 38025.6 24589.1 37771.7 24335.2 37771.7 24081.3 38025.6 23827.4 38787.4 23827.4 M 15369.1 23725.6 15115.2 23979.5 14607.3 23979.5 14353.4 23725.6 14353.4 22709.9 14607.3 22456 15115.2 22456 15369.1 22709.9 M 16892.6 23979.5 15876.9 23979.5 15876.9 23217.8 16384.7 23471.7 16638.7 23471.7 16892.6 23217.8 16892.6 22709.9 16638.7 22456 16130.8 22456 15876.9 22709.9" fill="none" stroke-width="254"/></g></svg>