<svg version="1.1" xmlns="http://www.w3.org/2000/svg" xmlns:xlink="http://www.w3.org/1999/xlink" stroke-linecap="round" stroke-linejoin="round" stroke-width="0" fill-rule="evenodd" width="42.539199999999994mm" height="32.5235mm" viewBox="3730.4 12238.2 42539.2 32523.5" id="m-iH8WFwGaCDWcAdA5lS"><g transform="translate(0,56999.9) scale(1,-1)" fill="currentColor" stroke="currentColor"><path d="M 4746.1 20761.7 4238.2 20761.7 4492.2 20761.7 4492.2 19492.2 4238.2 19238.3 3984.3 19238.3 3730.4 19492.2 M 6269.6 19238.3 5253.9 19238.3 6269.6 20253.9 6269.6 20507.8 6015.7 20761.7 5507.8 20761.7 5253.9 20507.8 M 26284.3 13761.8 26284.3 12238.2 27300 12238.2 M 27807.8 12238.2 28315.7 12238.2 28061.8 12238.2 28061.8 13761.8 27807.8 13507.8 M 44746.1 20761.7 44238.3 20761.7 44492.2 20761.7 44492.2 19492.2 44238.3 19238.3 43984.3 19238.3 43730.4 19492.2 M 46269.6 20761.7 45253.9 20761.7 45253.9 20000 45761.7 20253.9 46015.7 20253.9 46269.6 20000 46269.6 19492.2 46015.7 19238.3 45507.8 19238.3 45253.9 19492.2 M 44746.1 14761.8 44238.3 14761.8 44492.2 14761.8 44492.2 13492.2 44238.3 13238.2 43984.3 13238.2 43730.4 13492.2 M 45253.9 14507.8 45507.8 14761.8 46015.7 14761.8 46269.6 14507.8 46269.6 14253.9 46015.7 14000 45761.7 14000 M 46015.7 14000 46269.6 13746.1 46269.6 13492.2 46015.7 13238.2 45507.8 13238.2 45253.9 13492.2 M 44746.1 36761.7 44238.3 36761.7 44492.2 36761.7 44492.2 35492.2 44238.3 35238.3 43984.3 35238.3 43730.4 35492.2 M 46015.7 35238.3 46015.7 36761.7 45253.9 36000 46269.6 36000 M 44746.1 30761.7 44238.3 30761.7 44492.2 30761.7 44492.2 29492.2 44238.3 29238.3 43984.3 29238.3 43730.4 29492.2 M 46269.6 30761.7 45761.7 30507.8 45253.9 30000 45253.9 29492.2 45507.8 29238.3 46015.7 29238.3 46269.6 29492.2 46269.6 29746.1 46015.7 30000 45253.9 30000 M 5000 30761.7 4492.2 30761.7 4746.1 30761.7 4746.1 29492.2 4492.2 29238.3 4238.2 29238.3 3984.3 29492.2 M 5507.8 29238.3 6015.7 29238.3 5761.8 29238.3 5761.8 30761.7 5507.8 30507.8 M 14800 14492.2 14800 15507.8 14546.1 15761.8 14038.2 15761.8 13784.3 15507.8 13784.3 14492.2 14038.2 14238.2 14546.1 14238.2 14800 14492.2 M 14292.2 14746.1 14800 14238.2 M 15307.8 14238.2 15815.7 14238.2 15561.8 14238.2 15561.8 15761.8 15307.8 15507.8 M 14446.1 38492.2 14446.1 39507.8 14192.2 39761.7 13684.3 39761.7 13430.4 39507.8 13430.4 38492.2 13684.3 38238.3 14192.2 38238.3 14446.1 38492.2 M 13938.2 38746.1 14446.1 38238.3 M 15969.6 38238.3 14953.9 38238.3 15969.6 39253.9 15969.6 39507.8 15715.7 39761.7 15207.8 39761.7 14953.9 39507.8 M 26030.4 37761.7 26030.4 36238.3 27046.1 36238.3 M 28569.6 36238.3 27553.9 36238.3 28569.6 37253.9 28569.6 37507.8 28315.7 37761.7 27807.8 37761.7 27553.9 37507.8 M 16346.1 44507.8 16092.2 44761.7 15584.3 44761.7 15330.4 44507.8 15330.4 43492.2 15584.3 43238.3 16092.2 43238.3 16346.1 43492.2 M 17869.6 44761.7 17361.7 44507.8 16853.9 44000 16853.9 43492.2 17107.8 43238.3 17615.7 43238.3 17869.6 43492.2 17869.6 43746.1 17615.7 44000 16853.9 44000 M 38092.2 32361.3 37838.2 32107.4 37838.2 31599.5 38092.2 31345.6 39107.8 31345.6 39361.8 31599.5 39361.8 32107.4 39107.8 32361.3 M 39361.8 32869.1 39361.8 33377 39361.8 33123 37838.2 33123 38092.2 32869.1 M 38092.2 34138.7 37838.2 34392.6 37838.2 34900.5 38092.2 35154.4 39107.8 35154.4 39361.8 34900.5 39361.8 34392.6 39107.8 34138.7 38092.2 34138.7 M 38392.2 16596.1 38138.2 16342.2 38138.2 15834.3 38392.2 15580.4 39407.8 15580.4 39661.8 15834.3 39661.8 16342.2 39407.8 16596.1 M 39407.8 17103.9 39661.8 17357.8 39661.8 17865.7 39407.8 18119.6 38392.2 18119.6 38138.2 17865.7 38138.2 17357.8 38392.2 17103.9 38646.1 17103.9 38900 17357.8 38900 18119.6 M 16346.1 20507.8 16092.2 20761.7 15584.3 20761.7 15330.4 20507.8 15330.4 19492.2 15584.3 19238.3 16092.2 19238.3 16346.1 19492.2 M 17869.6 20761.7 16853.9 20761.7 16853.9 20000 17361.7 20253.9 17615.7 20253.9 17869.6 20000 17869.6 19492.2 17615.7 19238.3 17107.8 19238.3 16853.9 19492.2" fill="none" stroke-width="254"/></g></svg>