<svg version="1.1" xmlns="http://www.w3.org/2000/svg" xmlns:xlink="http://www.w3.org/1999/xlink" stroke-linecap="round" stroke-linejoin="round" stroke-width="0" fill-rule="evenodd" width="44.203199999999995mm" height="35.203199999999995mm" viewBox="2898.4 10148.4 44203.2 35203.2" id="VXr6A-kQPrIZebmAOxfO"><defs><rect x="-2026.6" y="-2851.6" width="4053.2" height="5703.2" id="VXr6A-kQPrIZebmAOxfO_pad-16"/><rect x="-698.6" y="-381.1" width="1397.2" height="762.2" id="VXr6A-kQPrIZebmAOxfO_pad-17"/><rect x="-551.6" y="-1351.6" width="1103.2" height="2703.2" id="VXr6A-kQPrIZebmAOxfO_pad-18"/><rect x="-1376.6" y="-1976.6" width="2753.2" height="3953.2" id="VXr6A-kQPrIZebmAOxfO_pad-19"/><circle cx="0" cy="0" r="2101.6" id="VXr6A-kQPrIZebmAOxfO_pad-20"/></defs><g transform="translate(0,55500) scale(1,-1)" fill="currentColor" stroke="currentColor"><use xlink:href="#VXr6A-kQPrIZebmAOxfO_pad-16" x="32275" y="13000"/><use xlink:href="#VXr6A-kQPrIZebmAOxfO_pad-16" x="22325" y="13000"/><use xlink:href="#VXr6A-kQPrIZebmAOxfO_pad-16" x="22325" y="37000"/><use xlink:href="#VXr6A-kQPrIZebmAOxfO_pad-16" x="32275" y="37000"/><use xlink:href="#VXr6A-kQPrIZebmAOxfO_pad-17" x="12273" y="16905"/><use xlink:href="#VXr6A-kQPrIZebmAOxfO_pad-17" x="12273" y="15635"/><use xlink:href="#VXr6A-kQPrIZebmAOxfO_pad-17" x="12273" y="14365"/><use xlink:href="#VXr6A-kQPrIZebmAOxfO_pad-17" x="12273" y="13095"/><use xlink:href="#VXr6A-kQPrIZebmAOxfO_pad-17" x="17327" y="16905"/><use xlink:href="#VXr6A-kQPrIZebmAOxfO_pad-17" x="17327" y="15635"/><use xlink:href="#VXr6A-kQPrIZebmAOxfO_pad-17" x="17327" y="14365"/><use xlink:href="#VXr6A-kQPrIZebmAOxfO_pad-17" x="17327" y="13095"/><use xlink:href="#VXr6A-kQPrIZebmAOxfO_pad-17" x="12173" y="40905"/><use xlink:href="#VXr6A-kQPrIZebmAOxfO_pad-17" x="12173" y="39635"/><use xlink:href="#VXr6A-kQPrIZebmAOxfO_pad-17" x="12173" y="38365"/><use xlink:href="#VXr6A-kQPrIZebmAOxfO_pad-17" x="12173" y="37095"/><use xlink:href="#VXr6A-kQPrIZebmAOxfO_pad-17" x="17227" y="40905"/><use xlink:href="#VXr6A-kQPrIZebmAOxfO_pad-17" x="17227" y="39635"/><use xlink:href="#VXr6A-kQPrIZebmAOxfO_pad-17" x="17227" y="38365"/><use xlink:href="#VXr6A-kQPrIZebmAOxfO_pad-17" x="17227" y="37095"/><use xlink:href="#VXr6A-kQPrIZebmAOxfO_pad-18" x="15050" y="44000"/><use xlink:href="#VXr6A-kQPrIZebmAOxfO_pad-18" x="18150" y="44000"/><use xlink:href="#VXr6A-kQPrIZebmAOxfO_pad-18" x="18150" y="20000"/><use xlink:href="#VXr6A-kQPrIZebmAOxfO_pad-18" x="15050" y="20000"/><use xlink:href="#VXr6A-kQPrIZebmAOxfO_pad-19" x="38600" y="30300"/><use xlink:href="#VXr6A-kQPrIZebmAOxfO_pad-19" x="38600" y="35700"/><use xlink:href="#VXr6A-kQPrIZebmAOxfO_pad-19" x="38900" y="14400"/><use xlink:href="#VXr6A-kQPrIZebmAOxfO_pad-19" x="38900" y="19800"/><use xlink:href="#VXr6A-kQPrIZebmAOxfO_pad-20" x="5000" y="20000"/><use xlink:href="#VXr6A-kQPrIZebmAOxfO_pad-20" x="45000" y="20000"/><use xlink:href="#VXr6A-kQPrIZebmAOxfO_pad-20" x="45000" y="14000"/><use xlink:href="#VXr6A-kQPrIZebmAOxfO_pad-20" x="45000" y="36000"/><use xlink:href="#VXr6A-kQPrIZebmAOxfO_pad-20" x="45000" y="30000"/><use xlink:href="#VXr6A-kQPrIZebmAOxfO_pad-20" x="5000" y="30000"/></g></svg>