<svg version="1.1" xmlns="http://www.w3.org/2000/svg" xmlns:xlink="http://www.w3.org/1999/xlink" stroke-linecap="round" stroke-linejoin="round" stroke-width="0" fill-rule="evenodd" width="44.203199999999995mm" height="29.778200000000002mm" viewBox="2898.4 11898.4 44203.2 29778.2" id="fGAbJTawKulHIo3jzrJ5"><defs><circle cx="0" cy="0" r="2101.6" id="fGAbJTawKulHIo3jzrJ5_pad-20"/><rect x="-551.6" y="-901.6" width="1103.2" height="1803.2" id="fGAbJTawKulHIo3jzrJ5_pad-40"/><rect x="-551.6" y="-751.6" width="1103.2" height="1503.2" id="fGAbJTawKulHIo3jzrJ5_pad-41"/><rect x="-451.6" y="-676.6" width="903.2" height="1353.2" id="fGAbJTawKulHIo3jzrJ5_pad-42"/><rect x="-676.6" y="-451.6" width="1353.2" height="903.2" id="fGAbJTawKulHIo3jzrJ5_pad-43"/><rect x="-165.8" y="-350.8" width="331.6" height="701.6" id="fGAbJTawKulHIo3jzrJ5_pad-44"/><rect x="-350.8" y="-165.8" width="701.6" height="331.6" id="fGAbJTawKulHIo3jzrJ5_pad-45"/><rect x="-1700.8" y="-1700.8" width="3401.6" height="3401.6" id="fGAbJTawKulHIo3jzrJ5_pad-46"/></defs><g transform="translate(0,53575) scale(1,-1)" fill="currentColor" stroke="currentColor"><use xlink:href="#fGAbJTawKulHIo3jzrJ5_pad-20" x="5000" y="20000"/><use xlink:href="#fGAbJTawKulHIo3jzrJ5_pad-20" x="45000" y="20000"/><use xlink:href="#fGAbJTawKulHIo3jzrJ5_pad-20" x="45000" y="14000"/><use xlink:href="#fGAbJTawKulHIo3jzrJ5_pad-20" x="45000" y="36000"/><use xlink:href="#fGAbJTawKulHIo3jzrJ5_pad-20" x="45000" y="30000"/><use xlink:href="#fGAbJTawKulHIo3jzrJ5_pad-20" x="5000" y="30000"/><use xlink:href="#fGAbJTawKulHIo3jzrJ5_pad-40" x="32650" y="21900"/><use xlink:href="#fGAbJTawKulHIo3jzrJ5_pad-40" x="29550" y="21900"/><use xlink:href="#fGAbJTawKulHIo3jzrJ5_pad-41" x="31550" y="24400"/><use xlink:href="#fGAbJTawKulHIo3jzrJ5_pad-41" x="29650" y="24400"/><use xlink:href="#fGAbJTawKulHIo3jzrJ5_pad-41" x="31550" y="26700"/><use xlink:href="#fGAbJTawKulHIo3jzrJ5_pad-41" x="29650" y="26700"/><use xlink:href="#fGAbJTawKulHIo3jzrJ5_pad-41" x="31550" y="29800"/><use xlink:href="#fGAbJTawKulHIo3jzrJ5_pad-41" x="29650" y="29800"/><use xlink:href="#fGAbJTawKulHIo3jzrJ5_pad-41" x="29650" y="32800"/><use xlink:href="#fGAbJTawKulHIo3jzrJ5_pad-41" x="31550" y="32800"/><use xlink:href="#fGAbJTawKulHIo3jzrJ5_pad-41" x="17950" y="20200"/><use xlink:href="#fGAbJTawKulHIo3jzrJ5_pad-41" x="19850" y="20200"/><use xlink:href="#fGAbJTawKulHIo3jzrJ5_pad-41" x="19750" y="24700"/><use xlink:href="#fGAbJTawKulHIo3jzrJ5_pad-41" x="17850" y="24700"/><use xlink:href="#fGAbJTawKulHIo3jzrJ5_pad-41" x="17950" y="29700"/><use xlink:href="#fGAbJTawKulHIo3jzrJ5_pad-41" x="19850" y="29700"/><use xlink:href="#fGAbJTawKulHIo3jzrJ5_pad-42" x="31550" y="35100"/><use xlink:href="#fGAbJTawKulHIo3jzrJ5_pad-42" x="29650" y="35100"/><use xlink:href="#fGAbJTawKulHIo3jzrJ5_pad-42" x="15650" y="25000"/><use xlink:href="#fGAbJTawKulHIo3jzrJ5_pad-42" x="13750" y="25000"/><use xlink:href="#fGAbJTawKulHIo3jzrJ5_pad-42" x="13750" y="27400"/><use xlink:href="#fGAbJTawKulHIo3jzrJ5_pad-42" x="15650" y="27400"/><use xlink:href="#fGAbJTawKulHIo3jzrJ5_pad-42" x="15650" y="29700"/><use xlink:href="#fGAbJTawKulHIo3jzrJ5_pad-42" x="13750" y="29700"/><use xlink:href="#fGAbJTawKulHIo3jzrJ5_pad-42" x="15650" y="32700"/><use xlink:href="#fGAbJTawKulHIo3jzrJ5_pad-42" x="13750" y="32700"/><use xlink:href="#fGAbJTawKulHIo3jzrJ5_pad-42" x="15750" y="34900"/><use xlink:href="#fGAbJTawKulHIo3jzrJ5_pad-42" x="13850" y="34900"/><use xlink:href="#fGAbJTawKulHIo3jzrJ5_pad-42" x="20050" y="22400"/><use xlink:href="#fGAbJTawKulHIo3jzrJ5_pad-42" x="18150" y="22400"/><use xlink:href="#fGAbJTawKulHIo3jzrJ5_pad-42" x="20050" y="27400"/><use xlink:href="#fGAbJTawKulHIo3jzrJ5_pad-42" x="18150" y="27400"/><use xlink:href="#fGAbJTawKulHIo3jzrJ5_pad-42" x="25350" y="41000"/><use xlink:href="#fGAbJTawKulHIo3jzrJ5_pad-42" x="27250" y="41000"/><use xlink:href="#fGAbJTawKulHIo3jzrJ5_pad-42" x="27400" y="38800"/><use xlink:href="#fGAbJTawKulHIo3jzrJ5_pad-42" x="25500" y="38800"/><use xlink:href="#fGAbJTawKulHIo3jzrJ5_pad-42" x="27250" y="36600"/><use xlink:href="#fGAbJTawKulHIo3jzrJ5_pad-42" x="25350" y="36600"/><use xlink:href="#fGAbJTawKulHIo3jzrJ5_pad-42" x="27350" y="34400"/><use xlink:href="#fGAbJTawKulHIo3jzrJ5_pad-42" x="25450" y="34400"/><use xlink:href="#fGAbJTawKulHIo3jzrJ5_pad-43" x="22700" y="19550"/><use xlink:href="#fGAbJTawKulHIo3jzrJ5_pad-43" x="22700" y="17650"/><use xlink:href="#fGAbJTawKulHIo3jzrJ5_pad-43" x="25000" y="17650"/><use xlink:href="#fGAbJTawKulHIo3jzrJ5_pad-43" x="25000" y="19550"/><use xlink:href="#fGAbJTawKulHIo3jzrJ5_pad-43" x="27400" y="19550"/><use xlink:href="#fGAbJTawKulHIo3jzrJ5_pad-43" x="27400" y="17650"/><use xlink:href="#fGAbJTawKulHIo3jzrJ5_pad-43" x="29700" y="17650"/><use xlink:href="#fGAbJTawKulHIo3jzrJ5_pad-43" x="29700" y="19550"/><use xlink:href="#fGAbJTawKulHIo3jzrJ5_pad-43" x="32000" y="19550"/><use xlink:href="#fGAbJTawKulHIo3jzrJ5_pad-43" x="32000" y="17650"/><use xlink:href="#fGAbJTawKulHIo3jzrJ5_pad-43" x="25700" y="32350"/><use xlink:href="#fGAbJTawKulHIo3jzrJ5_pad-43" x="25700" y="30450"/><use xlink:href="#fGAbJTawKulHIo3jzrJ5_pad-44" x="26750" y="22600"/><use xlink:href="#fGAbJTawKulHIo3jzrJ5_pad-44" x="26750" y="27400"/><use xlink:href="#fGAbJTawKulHIo3jzrJ5_pad-44" x="26250" y="27400"/><use xlink:href="#fGAbJTawKulHIo3jzrJ5_pad-44" x="26250" y="22600"/><use xlink:href="#fGAbJTawKulHIo3jzrJ5_pad-44" x="24750" y="27400"/><use xlink:href="#fGAbJTawKulHIo3jzrJ5_pad-44" x="24750" y="22600"/><use xlink:href="#fGAbJTawKulHIo3jzrJ5_pad-44" x="24250" y="22600"/><use xlink:href="#fGAbJTawKulHIo3jzrJ5_pad-44" x="23750" y="27400"/><use xlink:href="#fGAbJTawKulHIo3jzrJ5_pad-44" x="23750" y="22600"/><use xlink:href="#fGAbJTawKulHIo3jzrJ5_pad-44" x="25250" y="27400"/><use xlink:href="#fGAbJTawKulHIo3jzrJ5_pad-44" x="23250" y="27400"/><use xlink:href="#fGAbJTawKulHIo3jzrJ5_pad-44" x="25250" y="22600"/><use xlink:href="#fGAbJTawKulHIo3jzrJ5_pad-44" x="25750" y="27400"/><use xlink:href="#fGAbJTawKulHIo3jzrJ5_pad-44" x="24250" y="27400"/><use xlink:href="#fGAbJTawKulHIo3jzrJ5_pad-44" x="25750" y="22600"/><use xlink:href="#fGAbJTawKulHIo3jzrJ5_pad-44" x="23250" y="22600"/><use xlink:href="#fGAbJTawKulHIo3jzrJ5_pad-45" x="27400" y="26250"/><use xlink:href="#fGAbJTawKulHIo3jzrJ5_pad-45" x="27400" y="24250"/><use xlink:href="#fGAbJTawKulHIo3jzrJ5_pad-45" x="22600" y="25750"/><use xlink:href="#fGAbJTawKulHIo3jzrJ5_pad-45" x="22600" y="23750"/><use xlink:href="#fGAbJTawKulHIo3jzrJ5_pad-45" x="22600" y="26750"/><use xlink:href="#fGAbJTawKulHIo3jzrJ5_pad-45" x="27400" y="24750"/><use xlink:href="#fGAbJTawKulHIo3jzrJ5_pad-45" x="27400" y="23250"/><use xlink:href="#fGAbJTawKulHIo3jzrJ5_pad-45" x="27400" y="23750"/><use xlink:href="#fGAbJTawKulHIo3jzrJ5_pad-45" x="22600" y="24250"/><use xlink:href="#fGAbJTawKulHIo3jzrJ5_pad-45" x="22600" y="25250"/><use xlink:href="#fGAbJTawKulHIo3jzrJ5_pad-45" x="22600" y="26250"/><use xlink:href="#fGAbJTawKulHIo3jzrJ5_pad-45" x="22600" y="24750"/><use xlink:href="#fGAbJTawKulHIo3jzrJ5_pad-45" x="27400" y="25750"/><use xlink:href="#fGAbJTawKulHIo3jzrJ5_pad-45" x="22600" y="23250"/><use xlink:href="#fGAbJTawKulHIo3jzrJ5_pad-45" x="27400" y="25250"/><use xlink:href="#fGAbJTawKulHIo3jzrJ5_pad-45" x="27400" y="26750"/><use xlink:href="#fGAbJTawKulHIo3jzrJ5_pad-46" x="25000" y="25000"/></g></svg>