<svg version="1.1" xmlns="http://www.w3.org/2000/svg" xmlns:xlink="http://www.w3.org/1999/xlink" stroke-linecap="round" stroke-linejoin="round" stroke-width="0" fill-rule="evenodd" width="34.931mm" height="38.325900000000004mm" viewBox="7369 7674.1 34931 38325.9" id="Qw5ZdBpcxTtijbfzbVov"><defs><mask id="Qw5ZdBpcxTtijbfzbVov_clear-1" fill="#000" stroke="#000"><g><rect x="7369" y="7674.1" width="34931" height="38325.9" fill="#fff"/><path d="M 19379.6 45200 19220.4 45200 19073.4 45139.1 18960.9 45026.6 18900 44879.6 18900 44720.4 18960.9 44573.4 19073.4 44460.9 19220.4 44400 19230 44400 19255.3 44273 19173.4 44239.1 19060.9 44126.6 19000 43979.6 19000 43820.4 19060.9 43673.4 19162.3 43572 19168.3 43500 19162.3 43428 19060.9 43326.6 19000 43179.6 19000 43020.4 19060.9 42873.4 19173.4 42760.9 19320.4 42700 19479.6 42700 19626.6 42760.9 19739.1 42873.4 19800 43020.4 19800 43179.6 19739.1 43326.6 19637.7 43428 19631.7 43500 19637.7 43572 19739.1 43673.4 19800 43820.4 19800 43979.6 19739.1 44126.6 19626.6 44239.1 19479.6 44300 19470 44300 19444.7 44427 19526.6 44460.9 19639.1 44573.4 19700 44720.4 19700 44879.6 19639.1 45026.6 19526.6 45139.1 19379.6 45200"/><path d="M 10579.6 41600 10420.4 41600 10273.4 41539.1 10160.9 41426.6 10100 41279.6 10100 41120.4 10160.9 40973.4 10273.4 40860.9 10420.4 40800 10579.6 40800 10726.6 40860.9 10839.1 40973.4 10900 41120.4 10900 41279.6 10839.1 41426.6 10726.6 41539.1 10579.6 41600"/><path d="M 8379.6 41600 8220.4 41600 8073.4 41539.1 7960.9 41426.6 7900 41279.6 7900 41120.4 7960.9 40973.4 8073.4 40860.9 8220.4 40800 8379.6 40800 8526.6 40860.9 8639.1 40973.4 8700 41120.4 8700 41279.6 8639.1 41426.6 8526.6 41539.1 8379.6 41600"/><path d="M 28279.6 41400 28120.4 41400 27973.4 41339.1 27860.9 41226.6 27800 41079.6 27800 40920.4 27860.9 40773.4 27973.4 40660.9 28120.4 40600 28279.6 40600 28426.6 40660.9 28539.1 40773.4 28600 40920.4 28600 41079.6 28539.1 41226.6 28426.6 41339.1 28279.6 41400"/><path d="M 13479.6 41300 13320.4 41300 13173.4 41239.1 13060.9 41126.6 13000 40979.6 13000 40820.4 13060.9 40673.4 13173.4 40560.9 13320.4 40500 13479.6 40500 13626.6 40560.9 13739.1 40673.4 13800 40820.4 13800 40979.6 13739.1 41126.6 13626.6 41239.1 13479.6 41300"/><path d="M 9379.6 40300 9220.4 40300 9073.4 40239.1 8960.9 40126.6 8900 39979.6 8900 39820.4 8960.9 39673.4 9073.4 39560.9 9220.4 39500 9379.6 39500 9526.6 39560.9 9639.1 39673.4 9700 39820.4 9700 39979.6 9639.1 40126.6 9526.6 40239.1 9379.6 40300"/><path d="M 10879.6 40100 10720.4 40100 10573.4 40039.1 10460.9 39926.6 10400 39779.6 10400 39620.4 10460.9 39473.4 10573.4 39360.9 10720.4 39300 10879.6 39300 11026.6 39360.9 11139.1 39473.4 11200 39620.4 11200 39779.6 11139.1 39926.6 11026.6 40039.1 10879.6 40100"/><path d="M 11079.6 38900 10920.4 38900 10773.4 38839.1 10660.9 38726.6 10600 38579.6 10600 38420.4 10660.9 38273.4 10773.4 38160.9 10920.4 38100 11079.6 38100 11226.6 38160.9 11339.1 38273.4 11400 38420.4 11400 38579.6 11339.1 38726.6 11226.6 38839.1 11079.6 38900"/><path d="M 9979.6 38800 9820.4 38800 9673.4 38739.1 9560.9 38626.6 9500 38479.6 9500 38320.4 9560.9 38173.4 9673.4 38060.9 9820.4 38000 9979.6 38000 10126.6 38060.9 10239.1 38173.4 10300 38320.4 10300 38479.6 10239.1 38626.6 10126.6 38739.1 9979.6 38800"/><path d="M 8379.6 38800 8220.4 38800 8073.4 38739.1 7960.9 38626.6 7900 38479.6 7900 38320.4 7960.9 38173.4 8073.4 38060.9 8220.4 38000 8379.6 38000 8526.6 38060.9 8639.1 38173.4 8700 38320.4 8700 38479.6 8639.1 38626.6 8526.6 38739.1 8379.6 38800"/><path d="M 9479.6 37600 9320.4 37600 9173.4 37539.1 9060.9 37426.6 9000 37279.6 9000 37120.4 9060.9 36973.4 9173.4 36860.9 9320.4 36800 9479.6 36800 9626.6 36860.9 9739.1 36973.4 9800 37120.4 9800 37279.6 9739.1 37426.6 9626.6 37539.1 9479.6 37600"/><path d="M 19079.6 37500 18920.4 37500 18773.4 37439.1 18660.9 37326.6 18600 37179.6 18600 37020.4 18660.9 36873.4 18773.4 36760.9 18920.4 36700 19079.6 36700 19226.6 36760.9 19339.1 36873.4 19400 37020.4 19400 37179.6 19339.1 37326.6 19226.6 37439.1 19079.6 37500"/><path d="M 13477.1 37492.5 13317.9 37492.5 13170.9 37431.6 13058.4 37319.1 12997.5 37172.1 12997.5 37012.9 13058.4 36865.9 13170.9 36753.4 13317.9 36692.5 13477.1 36692.5 13624.1 36753.4 13736.6 36865.9 13797.5 37012.9 13797.5 37172.1 13736.6 37319.1 13624.1 37431.6 13477.1 37492.5"/><path d="M 35979.6 36800 35820.4 36800 35673.4 36739.1 35560.9 36626.6 35500 36479.6 35500 36320.4 35560.9 36173.4 35673.4 36060.9 35820.4 36000 35979.6 36000 36126.6 36060.9 36239.1 36173.4 36300 36320.4 36300 36479.6 36239.1 36626.6 36126.6 36739.1 35979.6 36800"/><path d="M 10579.6 36100 10420.4 36100 10273.4 36039.1 10160.9 35926.6 10100 35779.6 10100 35620.4 10160.9 35473.4 10273.4 35360.9 10420.4 35300 10579.6 35300 10726.6 35360.9 10839.1 35473.4 10900 35620.4 10900 35779.6 10839.1 35926.6 10726.6 36039.1 10579.6 36100"/><path d="M 8279.6 36100 8120.4 36100 7973.4 36039.1 7860.9 35926.6 7800 35779.6 7800 35620.4 7860.9 35473.4 7973.4 35360.9 8120.4 35300 8279.6 35300 8426.6 35360.9 8539.1 35473.4 8600 35620.4 8600 35779.6 8539.1 35926.6 8426.6 36039.1 8279.6 36100"/><path d="M 9579.6 34800 9420.4 34800 9273.4 34739.1 9160.9 34626.6 9100 34479.6 9100 34320.4 9160.9 34173.4 9273.4 34060.9 9420.4 34000 9579.6 34000 9726.6 34060.9 9839.1 34173.4 9900 34320.4 9900 34479.6 9839.1 34626.6 9726.6 34739.1 9579.6 34800"/><path d="M 10579.6 33300 10420.4 33300 10273.4 33239.1 10160.9 33126.6 10100 32979.6 10100 32820.4 10160.9 32673.4 10273.4 32560.9 10420.4 32500 10579.6 32500 10726.6 32560.9 10839.1 32673.4 10900 32820.4 10900 32979.6 10839.1 33126.6 10726.6 33239.1 10579.6 33300"/><path d="M 8379.6 33300 8220.4 33300 8073.4 33239.1 7960.9 33126.6 7900 32979.6 7900 32820.4 7960.9 32673.4 8073.4 32560.9 8220.4 32500 8379.6 32500 8526.6 32560.9 8639.1 32673.4 8700 32820.4 8700 32979.6 8639.1 33126.6 8526.6 33239.1 8379.6 33300"/><path d="M 32579.6 33500 32420.4 33500 32273.4 33439.1 32160.9 33326.6 32100 33179.6 32100 33020.4 32160.9 32873.4 32201.4 32833 32265 32750 32201.4 32667 32160.9 32626.6 32100 32479.6 32100 32320.4 32160.9 32173.4 32273.4 32060.9 32420.4 32000 32579.6 32000 32726.6 32060.9 32839.1 32173.4 32900 32320.4 32900 32479.6 32839.1 32626.6 32798.6 32667 32735 32750 32798.6 32833 32839.1 32873.4 32900 33020.4 32900 33179.6 32839.1 33326.6 32726.6 33439.1 32579.6 33500"/><path d="M 24479.6 32800 24320.4 32800 24173.4 32739.1 24060.9 32626.6 24000 32479.6 24000 32320.4 24060.9 32173.4 24173.4 32060.9 24320.4 32000 24479.6 32000 24626.6 32060.9 24739.1 32173.4 24800 32320.4 24800 32479.6 24739.1 32626.6 24626.6 32739.1 24479.6 32800"/><path d="M 21879.6 32300 21720.4 32300 21573.4 32239.1 21460.9 32126.6 21400 31979.6 21400 31820.4 21460.9 31673.4 21573.4 31560.9 21720.4 31500 21879.6 31500 22026.6 31560.9 22139.1 31673.4 22200 31820.4 22200 31979.6 22139.1 32126.6 22026.6 32239.1 21879.6 32300"/><path d="M 36879.6 32000 36720.4 32000 36573.4 31939.1 36460.9 31826.6 36400 31679.6 36400 31520.4 36460.9 31373.4 36573.4 31260.9 36720.4 31200 36879.6 31200 37026.6 31260.9 37139.1 31373.4 37200 31520.4 37200 31679.6 37139.1 31826.6 37026.6 31939.1 36879.6 32000"/><path d="M 40479.6 31900 40320.4 31900 40173.4 31839.1 40060.9 31726.6 40000 31579.6 40000 31420.4 40060.9 31273.4 40173.4 31160.9 40320.4 31100 40479.6 31100 40626.6 31160.9 40739.1 31273.4 40800 31420.4 40800 31579.6 40739.1 31726.6 40626.6 31839.1 40479.6 31900"/><path d="M 19929.6 31750 19770.4 31750 19623.4 31689.1 19510.9 31576.6 19450 31429.6 19450 31270.4 19510.9 31123.4 19623.4 31010.9 19770.4 30950 19929.6 30950 20076.6 31010.9 20189.1 31123.4 20250 31270.4 20250 31429.6 20189.1 31576.6 20076.6 31689.1 19929.6 31750"/><path d="M 9479.6 31600 9320.4 31600 9173.4 31539.1 9060.9 31426.6 9000 31279.6 9000 31120.4 9060.9 30973.4 9173.4 30860.9 9320.4 30800 9479.6 30800 9626.6 30860.9 9739.1 30973.4 9800 31120.4 9800 31279.6 9739.1 31426.6 9626.6 31539.1 9479.6 31600"/><path d="M 40779.6 30000 40620.4 30000 40473.4 29939.1 40360.9 29826.6 40300 29679.6 40300 29520.4 40360.9 29373.4 40473.4 29260.9 40620.4 29200 40779.6 29200 40926.6 29260.9 41039.1 29373.4 41100 29520.4 41100 29679.6 41039.1 29826.6 40926.6 29939.1 40779.6 30000"/><path d="M 36879.6 30000 36720.4 30000 36573.4 29939.1 36460.9 29826.6 36400 29679.6 36400 29520.4 36460.9 29373.4 36573.4 29260.9 36720.4 29200 36879.6 29200 37026.6 29260.9 37139.1 29373.4 37200 29520.4 37200 29679.6 37139.1 29826.6 37026.6 29939.1 36879.6 30000"/><path d="M 23479.6 29900 23320.4 29900 23173.4 29839.1 23060.9 29726.6 23000 29579.6 23000 29420.4 23060.9 29273.4 23173.4 29160.9 23320.4 29100 23479.6 29100 23626.6 29160.9 23739.1 29273.4 23800 29420.4 23800 29579.6 23739.1 29726.6 23626.6 29839.1 23479.6 29900"/><path d="M 32579.6 30500 32420.4 30500 32273.4 30439.1 32160.9 30326.6 32100 30179.6 32100 30020.4 32160.9 29873.4 32201.4 29833 32265 29750 32201.4 29667 32160.9 29626.6 32100 29479.6 32100 29320.4 32160.9 29173.4 32273.4 29060.9 32420.4 29000 32579.6 29000 32726.6 29060.9 32839.1 29173.4 32900 29320.4 32900 29479.6 32839.1 29626.6 32798.6 29667 32735 29750 32798.6 29833 32839.1 29873.4 32900 30020.4 32900 30179.6 32839.1 30326.6 32726.6 30439.1 32579.6 30500"/><path d="M 25179.6 29200 25020.4 29200 24873.4 29139.1 24760.9 29026.6 24700 28879.6 24700 28720.4 24760.9 28573.4 24873.4 28460.9 25020.4 28400 25179.6 28400 25219.2 28416.4 25316.4 28319.2 25300 28279.6 25300 28120.4 25360.9 27973.4 25473.4 27860.9 25620.4 27800 25779.6 27800 25926.6 27860.9 26039.1 27973.4 26100 28120.4 26100 28279.6 26039.1 28426.6 25926.6 28539.1 25779.6 28600 25620.4 28600 25580.8 28583.6 25483.6 28680.8 25500 28720.4 25500 28879.6 25439.1 29026.6 25326.6 29139.1 25179.6 29200"/><path d="M 39679.6 28400 39520.4 28400 39373.4 28339.1 39260.9 28226.6 39200 28079.6 39200 27920.4 39260.9 27773.4 39373.4 27660.9 39520.4 27600 39679.6 27600 39826.6 27660.9 39939.1 27773.4 40000 27920.4 40000 28079.6 39939.1 28226.6 39826.6 28339.1 39679.6 28400"/><path d="M 37979.6 28300 37820.4 28300 37673.4 28239.1 37560.9 28126.6 37500 27979.6 37500 27820.4 37560.9 27673.4 37673.4 27560.9 37820.4 27500 37979.6 27500 38126.6 27560.9 38239.1 27673.4 38300 27820.4 38300 27979.6 38239.1 28126.6 38126.6 28239.1 37979.6 28300"/><path d="M 11879.6 27800 11720.4 27800 11573.4 27739.1 11460.9 27626.6 11400 27479.6 11400 27320.4 11460.9 27173.4 11573.4 27060.9 11720.4 27000 11879.6 27000 12026.6 27060.9 12139.1 27173.4 12200 27320.4 12200 27479.6 12139.1 27626.6 12026.6 27739.1 11879.6 27800"/><path d="M 21579.6 27000 21420.4 27000 21273.4 26939.1 21160.9 26826.6 21100 26679.6 21100 26520.4 21160.9 26373.4 21273.4 26260.9 21420.4 26200 21579.6 26200 21726.6 26260.9 21839.1 26373.4 21900 26520.4 21900 26679.6 21839.1 26826.6 21726.6 26939.1 21579.6 27000"/><path d="M 32579.6 27400 32420.4 27400 32273.4 27339.1 32160.9 27226.6 32100 27079.6 32100 26920.4 32160.9 26773.4 32201.4 26733 32265 26650 32201.4 26567 32160.9 26526.6 32100 26379.6 32100 26220.4 32160.9 26073.4 32273.4 25960.9 32420.4 25900 32579.6 25900 32726.6 25960.9 32839.1 26073.4 32900 26220.4 32900 26379.6 32839.1 26526.6 32798.6 26567 32735 26650 32798.6 26733 32839.1 26773.4 32900 26920.4 32900 27079.6 32839.1 27226.6 32726.6 27339.1 32579.6 27400"/><path d="M 26279.6 26500 26120.4 26500 25973.4 26439.1 25860.9 26326.6 25800 26179.6 25800 26020.4 25860.9 25873.4 25973.4 25760.9 26120.4 25700 26279.6 25700 26426.6 25760.9 26539.1 25873.4 26600 26020.4 26600 26179.6 26539.1 26326.6 26426.6 26439.1 26279.6 26500"/><path d="M 23979.6 26500 23820.4 26500 23673.4 26439.1 23560.9 26326.6 23500 26179.6 23500 26020.4 23560.9 25873.4 23673.4 25760.9 23820.4 25700 23979.6 25700 24126.6 25760.9 24239.1 25873.4 24300 26020.4 24300 26179.6 24239.1 26326.6 24126.6 26439.1 23979.6 26500"/><path d="M 29779.6 25900 29620.4 25900 29473.4 25839.1 29360.9 25726.6 29300 25579.6 29300 25420.4 29360.9 25273.4 29473.4 25160.9 29620.4 25100 29779.6 25100 29926.6 25160.9 30039.1 25273.4 30100 25420.4 30100 25579.6 30039.1 25726.6 29926.6 25839.1 29779.6 25900"/><path d="M 11879.6 25400 11720.4 25400 11573.4 25339.1 11460.9 25226.6 11400 25079.6 11400 24920.4 11460.9 24773.4 11573.4 24660.9 11720.4 24600 11879.6 24600 12026.6 24660.9 12139.1 24773.4 12200 24920.4 12200 25079.6 12139.1 25226.6 12026.6 25339.1 11879.6 25400"/><path d="M 16979.6 25100 16820.4 25100 16673.4 25039.1 16560.9 24926.6 16500 24779.6 16500 24620.4 16560.9 24473.4 16673.4 24360.9 16820.4 24300 16979.6 24300 17126.6 24360.9 17239.1 24473.4 17300 24620.4 17300 24779.6 17239.1 24926.6 17126.6 25039.1 16979.6 25100"/><path d="M 32579.6 25100 32420.4 25100 32273.4 25039.1 32160.9 24926.6 32100 24779.6 32100 24620.4 32160.9 24473.4 32201.4 24433 32265 24350 32201.4 24267 32160.9 24226.6 32100 24079.6 32100 23920.4 32160.9 23773.4 32273.4 23660.9 32420.4 23600 32579.6 23600 32726.6 23660.9 32839.1 23773.4 32900 23920.4 32900 24079.6 32839.1 24226.6 32798.6 24267 32735 24350 32798.6 24433 32839.1 24473.4 32900 24620.4 32900 24779.6 32839.1 24926.6 32726.6 25039.1 32579.6 25100"/><path d="M 26279.6 24300 26120.4 24300 25973.4 24239.1 25860.9 24126.6 25800 23979.6 25800 23820.4 25860.9 23673.4 25973.4 23560.9 26120.4 23500 26279.6 23500 26426.6 23560.9 26539.1 23673.4 26600 23820.4 26600 23979.6 26539.1 24126.6 26426.6 24239.1 26279.6 24300"/><path d="M 23879.6 24300 23720.4 24300 23573.4 24239.1 23460.9 24126.6 23400 23979.6 23400 23820.4 23460.9 23673.4 23573.4 23560.9 23720.4 23500 23879.6 23500 24026.6 23560.9 24139.1 23673.4 24200 23820.4 24200 23979.6 24139.1 24126.6 24026.6 24239.1 23879.6 24300"/><path d="M 21579.6 23900 21420.4 23900 21273.4 23839.1 21160.9 23726.6 21100 23579.6 21100 23420.4 21160.9 23273.4 21273.4 23160.9 21420.4 23100 21579.6 23100 21726.6 23160.9 21839.1 23273.4 21900 23420.4 21900 23579.6 21839.1 23726.6 21726.6 23839.1 21579.6 23900"/><path d="M 29629.6 23450 29470.4 23450 29323.4 23389.1 29210.9 23276.6 29150 23129.6 29150 22970.4 29210.9 22823.4 29323.4 22710.9 29470.4 22650 29629.6 22650 29776.6 22710.9 29889.1 22823.4 29950 22970.4 29950 23129.6 29889.1 23276.6 29776.6 23389.1 29629.6 23450"/><path d="M 27679.6 22400 27520.4 22400 27373.4 22339.1 27260.9 22226.6 27200 22079.6 27200 21920.4 27260.9 21773.4 27373.4 21660.9 27520.4 21600 27679.6 21600 27826.6 21660.9 27939.1 21773.4 28000 21920.4 28000 22079.6 27939.1 22226.6 27826.6 22339.1 27679.6 22400"/><path d="M 33679.6 22600 33520.4 22600 33373.4 22539.1 33260.9 22426.6 33200 22279.6 33200 22120.4 33260.9 21973.4 33301.3 21933 33365.1 21850 33301.3 21767 33260.9 21726.6 33200 21579.6 33200 21420.4 33260.9 21273.4 33373.4 21160.9 33520.4 21100 33679.6 21100 33826.6 21160.9 33939.1 21273.4 34000 21420.4 34000 21579.6 33939.1 21726.6 33898.7 21767 33834.9 21850 33898.7 21933 33939.1 21973.4 34000 22120.4 34000 22279.6 33939.1 22426.6 33826.6 22539.1 33679.6 22600"/><path d="M 37179.6 21700 37020.4 21700 36873.4 21639.1 36760.9 21526.6 36700 21379.6 36700 21220.4 36760.9 21073.4 36873.4 20960.9 37020.4 20900 37179.6 20900 37326.6 20960.9 37439.1 21073.4 37500 21220.4 37500 21379.6 37439.1 21526.6 37326.6 21639.1 37179.6 21700"/><path d="M 40879.6 21600 40720.4 21600 40573.4 21539.1 40460.9 21426.6 40400 21279.6 40400 21120.4 40460.9 20973.4 40573.4 20860.9 40720.4 20800 40879.6 20800 41026.6 20860.9 41139.1 20973.4 41200 21120.4 41200 21279.6 41139.1 21426.6 41026.6 21539.1 40879.6 21600"/><path d="M 24979.6 21500 24820.4 21500 24673.4 21439.1 24560.9 21326.6 24500 21179.6 24500 21020.4 24560.9 20873.4 24673.4 20760.9 24820.4 20700 24979.6 20700 25126.6 20760.9 25239.1 20873.4 25300 21020.4 25300 21179.6 25239.1 21326.6 25126.6 21439.1 24979.6 21500"/><path d="M 23579.6 21400 23420.4 21400 23273.4 21339.1 23160.9 21226.6 23100 21079.6 23100 20920.4 23160.9 20773.4 23273.4 20660.9 23420.4 20600 23579.6 20600 23726.6 20660.9 23839.1 20773.4 23900 20920.4 23900 21079.6 23839.1 21226.6 23726.6 21339.1 23579.6 21400"/><path d="M 37179.6 20500 37020.4 20500 36873.4 20439.1 36760.9 20326.6 36700 20179.6 36700 20020.4 36760.9 19873.4 36873.4 19760.9 37020.4 19700 37179.6 19700 37326.6 19760.9 37439.1 19873.4 37500 20020.4 37500 20179.6 37439.1 20326.6 37326.6 20439.1 37179.6 20500"/><path d="M 40979.6 20200 40820.4 20200 40673.4 20139.1 40560.9 20026.6 40500 19879.6 40500 19720.4 40560.9 19573.4 40673.4 19460.9 40820.4 19400 40979.6 19400 41126.6 19460.9 41239.1 19573.4 41300 19720.4 41300 19879.6 41239.1 20026.6 41126.6 20139.1 40979.6 20200"/><path d="M 33679.6 20000 33520.4 20000 33373.4 19939.1 33260.9 19826.6 33200 19679.6 33200 19520.4 33260.9 19373.4 33373.4 19260.9 33520.4 19200 33679.6 19200 33826.6 19260.9 33939.1 19373.4 34000 19520.4 34000 19679.6 33939.1 19826.6 33826.6 19939.1 33679.6 20000"/><path d="M 30729.6 19950 30570.4 19950 30423.4 19889.1 30310.9 19776.6 30250 19629.6 30250 19470.4 30310.9 19323.4 30423.4 19210.9 30570.4 19150 30729.6 19150 30876.6 19210.9 30989.1 19323.4 31050 19470.4 31050 19629.6 30989.1 19776.6 30876.6 19889.1 30729.6 19950"/><path d="M 14179.6 21200 14020.4 21200 13873.4 21139.1 13760.9 21026.6 13700 20879.6 13700 20720.4 13760.9 20573.4 13862.3 20472 13868.3 20400 13862.3 20328 13760.9 20226.6 13700 20079.6 13700 19920.4 13760.9 19773.4 13862.3 19672 13868.3 19600 13862.3 19528 13760.9 19426.6 13700 19279.6 13700 19120.4 13760.9 18973.4 13873.4 18860.9 14020.4 18800 14179.6 18800 14326.6 18860.9 14439.1 18973.4 14500 19120.4 14500 19279.6 14439.1 19426.6 14337.7 19528 14331.7 19600 14337.7 19672 14439.1 19773.4 14500 19920.4 14500 20079.6 14439.1 20226.6 14337.7 20328 14331.7 20400 14337.7 20472 14439.1 20573.4 14500 20720.4 14500 20879.6 14439.1 21026.6 14326.6 21139.1 14179.6 21200"/><path d="M 37279.6 19200 37120.4 19200 36973.4 19139.1 36860.9 19026.6 36800 18879.6 36800 18720.4 36860.9 18573.4 36973.4 18460.9 37120.4 18400 37279.6 18400 37426.6 18460.9 37539.1 18573.4 37600 18720.4 37600 18879.6 37539.1 19026.6 37426.6 19139.1 37279.6 19200"/><path d="M 40979.6 19000 40820.4 19000 40673.4 18939.1 40560.9 18826.6 40500 18679.6 40500 18520.4 40560.9 18373.4 40673.4 18260.9 40820.4 18200 40979.6 18200 41126.6 18260.9 41239.1 18373.4 41300 18520.4 41300 18679.6 41239.1 18826.6 41126.6 18939.1 40979.6 19000"/><path d="M 19929.6 18750 19770.4 18750 19623.4 18689.1 19510.9 18576.6 19450 18429.6 19450 18270.4 19510.9 18123.4 19623.4 18010.9 19770.4 17950 19929.6 17950 20076.6 18010.9 20189.1 18123.4 20250 18270.4 20250 18429.6 20189.1 18576.6 20076.6 18689.1 19929.6 18750"/><path d="M 13577.1 17302.5 13417.9 17302.5 13270.9 17241.6 13158.4 17129.1 13097.5 16982.1 13097.5 16822.9 13158.4 16675.9 13270.9 16563.4 13417.9 16502.5 13577.1 16502.5 13724.1 16563.4 13836.6 16675.9 13897.5 16822.9 13897.5 16982.1 13836.6 17129.1 13724.1 17241.6 13577.1 17302.5"/><path d="M 10579.6 17000 10420.4 17000 10273.4 16939.1 10160.9 16826.6 10100 16679.6 10100 16520.4 10160.9 16373.4 10273.4 16260.9 10420.4 16200 10579.6 16200 10726.6 16260.9 10839.1 16373.4 10900 16520.4 10900 16679.6 10839.1 16826.6 10726.6 16939.1 10579.6 17000"/><path d="M 9579.6 17000 9420.4 17000 9273.4 16939.1 9160.9 16826.6 9100 16679.6 9100 16520.4 9160.9 16373.4 9273.4 16260.9 9420.4 16200 9579.6 16200 9726.6 16260.9 9839.1 16373.4 9900 16520.4 9900 16679.6 9839.1 16826.6 9726.6 16939.1 9579.6 17000"/><path d="M 25079.6 16800 24920.4 16800 24773.4 16739.1 24660.9 16626.6 24600 16479.6 24600 16320.4 24660.9 16173.4 24773.4 16060.9 24920.4 16000 25079.6 16000 25226.6 16060.9 25339.1 16173.4 25400 16320.4 25400 16479.6 25339.1 16626.6 25226.6 16739.1 25079.6 16800"/><path d="M 11179.6 16000 11020.4 16000 10873.4 15939.1 10760.9 15826.6 10700 15679.6 10700 15520.4 10760.9 15373.4 10873.4 15260.9 11020.4 15200 11179.6 15200 11326.6 15260.9 11439.1 15373.4 11500 15520.4 11500 15679.6 11439.1 15826.6 11326.6 15939.1 11179.6 16000"/><path d="M 9679.6 15800 9520.4 15800 9373.4 15739.1 9260.9 15626.6 9200 15479.6 9200 15320.4 9260.9 15173.4 9373.4 15060.9 9520.4 15000 9679.6 15000 9826.6 15060.9 9939.1 15173.4 10000 15320.4 10000 15479.6 9939.1 15626.6 9826.6 15739.1 9679.6 15800"/><path d="M 11079.6 14700 10920.4 14700 10773.4 14639.1 10660.9 14526.6 10600 14379.6 10600 14220.4 10660.9 14073.4 10773.4 13960.9 10920.4 13900 11079.6 13900 11226.6 13960.9 11339.1 14073.4 11400 14220.4 11400 14379.6 11339.1 14526.6 11226.6 14639.1 11079.6 14700"/><path d="M 9679.6 14600 9520.4 14600 9373.4 14539.1 9260.9 14426.6 9200 14279.6 9200 14120.4 9260.9 13973.4 9373.4 13860.9 9520.4 13800 9679.6 13800 9826.6 13860.9 9939.1 13973.4 10000 14120.4 10000 14279.6 9939.1 14426.6 9826.6 14539.1 9679.6 14600"/><path d="M 35679.6 13900 35520.4 13900 35373.4 13839.1 35260.9 13726.6 35200 13579.6 35200 13420.4 35260.9 13273.4 35373.4 13160.9 35520.4 13100 35679.6 13100 35826.6 13160.9 35939.1 13273.4 36000 13420.4 36000 13579.6 35939.1 13726.6 35826.6 13839.1 35679.6 13900"/><path d="M 19079.6 13500 18920.4 13500 18773.4 13439.1 18660.9 13326.6 18600 13179.6 18600 13020.4 18660.9 12873.4 18773.4 12760.9 18920.4 12700 19079.6 12700 19226.6 12760.9 19339.1 12873.4 19400 13020.4 19400 13179.6 19339.1 13326.6 19226.6 13439.1 19079.6 13500"/><path d="M 13577.1 13492.5 13417.9 13492.5 13270.9 13431.6 13158.4 13319.1 13097.5 13172.1 13097.5 13012.9 13158.4 12865.9 13270.9 12753.4 13417.9 12692.5 13577.1 12692.5 13724.1 12753.4 13836.6 12865.9 13897.5 13012.9 13897.5 13172.1 13836.6 13319.1 13724.1 13431.6 13577.1 13492.5"/><path d="M 11079.6 13400 10920.4 13400 10773.4 13339.1 10660.9 13226.6 10600 13079.6 10600 12920.4 10660.9 12773.4 10773.4 12660.9 10920.4 12600 11079.6 12600 11226.6 12660.9 11339.1 12773.4 11400 12920.4 11400 13079.6 11339.1 13226.6 11226.6 13339.1 11079.6 13400"/><path d="M 9579.6 13400 9420.4 13400 9273.4 13339.1 9160.9 13226.6 9100 13079.6 9100 12920.4 9160.9 12773.4 9273.4 12660.9 9420.4 12600 9579.6 12600 9726.6 12660.9 9839.1 12773.4 9900 12920.4 9900 13079.6 9839.1 13226.6 9726.6 13339.1 9579.6 13400"/></g></mask><circle cx="0" cy="0" r="300" id="Qw5ZdBpcxTtijbfzbVov_pad-23"/></defs><g transform="translate(0,53674.100000000006) scale(1,-1)" fill="currentColor" stroke="currentColor"><g mask="url(#Qw5ZdBpcxTtijbfzbVov_clear-1)"><path d="M 42300 7674.1 7369 7674.1 7369 45969 7400 46000 42300 46000 42300 7674.1"/></g><use xlink:href="#Qw5ZdBpcxTtijbfzbVov_pad-23" x="11900" y="34900"/><use xlink:href="#Qw5ZdBpcxTtijbfzbVov_pad-23" x="27865" y="26265"/><use xlink:href="#Qw5ZdBpcxTtijbfzbVov_pad-23" x="28300" y="36600"/><use xlink:href="#Qw5ZdBpcxTtijbfzbVov_pad-23" x="29700" y="36600"/><use xlink:href="#Qw5ZdBpcxTtijbfzbVov_pad-23" x="30400" y="31100"/><use xlink:href="#Qw5ZdBpcxTtijbfzbVov_pad-23" x="22700" y="16700"/><use xlink:href="#Qw5ZdBpcxTtijbfzbVov_pad-23" x="27400" y="15700"/><use xlink:href="#Qw5ZdBpcxTtijbfzbVov_pad-23" x="11800" y="29700"/><use xlink:href="#Qw5ZdBpcxTtijbfzbVov_pad-23" x="11800" y="32700"/><use xlink:href="#Qw5ZdBpcxTtijbfzbVov_pad-23" x="21700" y="24700"/></g></svg>