<svg version="1.1" xmlns="http://www.w3.org/2000/svg" xmlns:xlink="http://www.w3.org/1999/xlink" stroke-linecap="round" stroke-linejoin="round" stroke-width="0" fill-rule="evenodd" width="28.599mm" height="35mm" viewBox="11576 10250 28599 35000" id="fvmRz5uC-F0aZxWLSIHO"><defs><rect x="-1925" y="-2750" width="3850" height="5500" id="fvmRz5uC-F0aZxWLSIHO_pad-12"/><rect x="-597" y="-279.5" width="1194" height="559" id="fvmRz5uC-F0aZxWLSIHO_pad-13"/><rect x="-450" y="-1250" width="900" height="2500" id="fvmRz5uC-F0aZxWLSIHO_pad-14"/><rect x="-1275" y="-1875" width="2550" height="3750" id="fvmRz5uC-F0aZxWLSIHO_pad-15"/></defs><g transform="translate(0,55500) scale(1,-1)" fill="currentColor" stroke="currentColor"><use xlink:href="#fvmRz5uC-F0aZxWLSIHO_pad-12" x="32275" y="13000"/><use xlink:href="#fvmRz5uC-F0aZxWLSIHO_pad-12" x="22325" y="13000"/><use xlink:href="#fvmRz5uC-F0aZxWLSIHO_pad-12" x="22325" y="37000"/><use xlink:href="#fvmRz5uC-F0aZxWLSIHO_pad-12" x="32275" y="37000"/><use xlink:href="#fvmRz5uC-F0aZxWLSIHO_pad-13" x="12273" y="16905"/><use xlink:href="#fvmRz5uC-F0aZxWLSIHO_pad-13" x="12273" y="15635"/><use xlink:href="#fvmRz5uC-F0aZxWLSIHO_pad-13" x="12273" y="14365"/><use xlink:href="#fvmRz5uC-F0aZxWLSIHO_pad-13" x="12273" y="13095"/><use xlink:href="#fvmRz5uC-F0aZxWLSIHO_pad-13" x="17327" y="16905"/><use xlink:href="#fvmRz5uC-F0aZxWLSIHO_pad-13" x="17327" y="15635"/><use xlink:href="#fvmRz5uC-F0aZxWLSIHO_pad-13" x="17327" y="14365"/><use xlink:href="#fvmRz5uC-F0aZxWLSIHO_pad-13" x="17327" y="13095"/><use xlink:href="#fvmRz5uC-F0aZxWLSIHO_pad-13" x="12173" y="40905"/><use xlink:href="#fvmRz5uC-F0aZxWLSIHO_pad-13" x="12173" y="39635"/><use xlink:href="#fvmRz5uC-F0aZxWLSIHO_pad-13" x="12173" y="38365"/><use xlink:href="#fvmRz5uC-F0aZxWLSIHO_pad-13" x="12173" y="37095"/><use xlink:href="#fvmRz5uC-F0aZxWLSIHO_pad-13" x="17227" y="40905"/><use xlink:href="#fvmRz5uC-F0aZxWLSIHO_pad-13" x="17227" y="39635"/><use xlink:href="#fvmRz5uC-F0aZxWLSIHO_pad-13" x="17227" y="38365"/><use xlink:href="#fvmRz5uC-F0aZxWLSIHO_pad-13" x="17227" y="37095"/><use xlink:href="#fvmRz5uC-F0aZxWLSIHO_pad-14" x="15050" y="44000"/><use xlink:href="#fvmRz5uC-F0aZxWLSIHO_pad-14" x="18150" y="44000"/><use xlink:href="#fvmRz5uC-F0aZxWLSIHO_pad-14" x="18150" y="20000"/><use xlink:href="#fvmRz5uC-F0aZxWLSIHO_pad-14" x="15050" y="20000"/><use xlink:href="#fvmRz5uC-F0aZxWLSIHO_pad-15" x="38600" y="30300"/><use xlink:href="#fvmRz5uC-F0aZxWLSIHO_pad-15" x="38600" y="35700"/><use xlink:href="#fvmRz5uC-F0aZxWLSIHO_pad-15" x="38900" y="14400"/><use xlink:href="#fvmRz5uC-F0aZxWLSIHO_pad-15" x="38900" y="19800"/></g></svg>