<svg version="1.1" xmlns="http://www.w3.org/2000/svg" xmlns:xlink="http://www.w3.org/1999/xlink" stroke-linecap="round" stroke-linejoin="round" stroke-width="0" fill-rule="evenodd" width="19.7mm" height="24.275mm" viewBox="13400 17300 19700 24275" id="vGFUAbQ40x-38XGOxSSM"><defs><rect x="-450" y="-800" width="900" height="1600" id="vGFUAbQ40x-38XGOxSSM_pad-30"/><rect x="-450" y="-650" width="900" height="1300" id="vGFUAbQ40x-38XGOxSSM_pad-31"/><rect x="-350" y="-575" width="700" height="1150" id="vGFUAbQ40x-38XGOxSSM_pad-32"/><rect x="-575" y="-350" width="1150" height="700" id="vGFUAbQ40x-38XGOxSSM_pad-33"/><rect x="-165.8" y="-350.8" width="331.6" height="701.6" id="vGFUAbQ40x-38XGOxSSM_pad-44"/><rect x="-350.8" y="-165.8" width="701.6" height="331.6" id="vGFUAbQ40x-38XGOxSSM_pad-45"/><rect x="-1700.8" y="-1700.8" width="3401.6" height="3401.6" id="vGFUAbQ40x-38XGOxSSM_pad-46"/></defs><g transform="translate(0,58875) scale(1,-1)" fill="currentColor" stroke="currentColor"><use xlink:href="#vGFUAbQ40x-38XGOxSSM_pad-30" x="32650" y="21900"/><use xlink:href="#vGFUAbQ40x-38XGOxSSM_pad-30" x="29550" y="21900"/><use xlink:href="#vGFUAbQ40x-38XGOxSSM_pad-31" x="31550" y="24400"/><use xlink:href="#vGFUAbQ40x-38XGOxSSM_pad-31" x="29650" y="24400"/><use xlink:href="#vGFUAbQ40x-38XGOxSSM_pad-31" x="31550" y="26700"/><use xlink:href="#vGFUAbQ40x-38XGOxSSM_pad-31" x="29650" y="26700"/><use xlink:href="#vGFUAbQ40x-38XGOxSSM_pad-31" x="31550" y="29800"/><use xlink:href="#vGFUAbQ40x-38XGOxSSM_pad-31" x="29650" y="29800"/><use xlink:href="#vGFUAbQ40x-38XGOxSSM_pad-31" x="29650" y="32800"/><use xlink:href="#vGFUAbQ40x-38XGOxSSM_pad-31" x="31550" y="32800"/><use xlink:href="#vGFUAbQ40x-38XGOxSSM_pad-31" x="17950" y="20200"/><use xlink:href="#vGFUAbQ40x-38XGOxSSM_pad-31" x="19850" y="20200"/><use xlink:href="#vGFUAbQ40x-38XGOxSSM_pad-31" x="19750" y="24700"/><use xlink:href="#vGFUAbQ40x-38XGOxSSM_pad-31" x="17850" y="24700"/><use xlink:href="#vGFUAbQ40x-38XGOxSSM_pad-31" x="17950" y="29700"/><use xlink:href="#vGFUAbQ40x-38XGOxSSM_pad-31" x="19850" y="29700"/><use xlink:href="#vGFUAbQ40x-38XGOxSSM_pad-32" x="31550" y="35100"/><use xlink:href="#vGFUAbQ40x-38XGOxSSM_pad-32" x="29650" y="35100"/><use xlink:href="#vGFUAbQ40x-38XGOxSSM_pad-32" x="15650" y="25000"/><use xlink:href="#vGFUAbQ40x-38XGOxSSM_pad-32" x="13750" y="25000"/><use xlink:href="#vGFUAbQ40x-38XGOxSSM_pad-32" x="13750" y="27400"/><use xlink:href="#vGFUAbQ40x-38XGOxSSM_pad-32" x="15650" y="27400"/><use xlink:href="#vGFUAbQ40x-38XGOxSSM_pad-32" x="15650" y="29700"/><use xlink:href="#vGFUAbQ40x-38XGOxSSM_pad-32" x="13750" y="29700"/><use xlink:href="#vGFUAbQ40x-38XGOxSSM_pad-32" x="15650" y="32700"/><use xlink:href="#vGFUAbQ40x-38XGOxSSM_pad-32" x="13750" y="32700"/><use xlink:href="#vGFUAbQ40x-38XGOxSSM_pad-32" x="15750" y="34900"/><use xlink:href="#vGFUAbQ40x-38XGOxSSM_pad-32" x="13850" y="34900"/><use xlink:href="#vGFUAbQ40x-38XGOxSSM_pad-32" x="20050" y="22400"/><use xlink:href="#vGFUAbQ40x-38XGOxSSM_pad-32" x="18150" y="22400"/><use xlink:href="#vGFUAbQ40x-38XGOxSSM_pad-32" x="20050" y="27400"/><use xlink:href="#vGFUAbQ40x-38XGOxSSM_pad-32" x="18150" y="27400"/><use xlink:href="#vGFUAbQ40x-38XGOxSSM_pad-32" x="25350" y="41000"/><use xlink:href="#vGFUAbQ40x-38XGOxSSM_pad-32" x="27250" y="41000"/><use xlink:href="#vGFUAbQ40x-38XGOxSSM_pad-32" x="27400" y="38800"/><use xlink:href="#vGFUAbQ40x-38XGOxSSM_pad-32" x="25500" y="38800"/><use xlink:href="#vGFUAbQ40x-38XGOxSSM_pad-32" x="27250" y="36600"/><use xlink:href="#vGFUAbQ40x-38XGOxSSM_pad-32" x="25350" y="36600"/><use xlink:href="#vGFUAbQ40x-38XGOxSSM_pad-32" x="27350" y="34400"/><use xlink:href="#vGFUAbQ40x-38XGOxSSM_pad-32" x="25450" y="34400"/><use xlink:href="#vGFUAbQ40x-38XGOxSSM_pad-33" x="22700" y="19550"/><use xlink:href="#vGFUAbQ40x-38XGOxSSM_pad-33" x="22700" y="17650"/><use xlink:href="#vGFUAbQ40x-38XGOxSSM_pad-33" x="25000" y="17650"/><use xlink:href="#vGFUAbQ40x-38XGOxSSM_pad-33" x="25000" y="19550"/><use xlink:href="#vGFUAbQ40x-38XGOxSSM_pad-33" x="27400" y="19550"/><use xlink:href="#vGFUAbQ40x-38XGOxSSM_pad-33" x="27400" y="17650"/><use xlink:href="#vGFUAbQ40x-38XGOxSSM_pad-33" x="29700" y="17650"/><use xlink:href="#vGFUAbQ40x-38XGOxSSM_pad-33" x="29700" y="19550"/><use xlink:href="#vGFUAbQ40x-38XGOxSSM_pad-33" x="32000" y="19550"/><use xlink:href="#vGFUAbQ40x-38XGOxSSM_pad-33" x="32000" y="17650"/><use xlink:href="#vGFUAbQ40x-38XGOxSSM_pad-33" x="25700" y="32350"/><use xlink:href="#vGFUAbQ40x-38XGOxSSM_pad-33" x="25700" y="30450"/><use xlink:href="#vGFUAbQ40x-38XGOxSSM_pad-44" x="26750" y="22600"/><use xlink:href="#vGFUAbQ40x-38XGOxSSM_pad-44" x="26750" y="27400"/><use xlink:href="#vGFUAbQ40x-38XGOxSSM_pad-44" x="26250" y="27400"/><use xlink:href="#vGFUAbQ40x-38XGOxSSM_pad-44" x="26250" y="22600"/><use xlink:href="#vGFUAbQ40x-38XGOxSSM_pad-44" x="24750" y="27400"/><use xlink:href="#vGFUAbQ40x-38XGOxSSM_pad-44" x="24750" y="22600"/><use xlink:href="#vGFUAbQ40x-38XGOxSSM_pad-44" x="24250" y="22600"/><use xlink:href="#vGFUAbQ40x-38XGOxSSM_pad-44" x="23750" y="27400"/><use xlink:href="#vGFUAbQ40x-38XGOxSSM_pad-44" x="23750" y="22600"/><use xlink:href="#vGFUAbQ40x-38XGOxSSM_pad-44" x="25250" y="27400"/><use xlink:href="#vGFUAbQ40x-38XGOxSSM_pad-44" x="23250" y="27400"/><use xlink:href="#vGFUAbQ40x-38XGOxSSM_pad-44" x="25250" y="22600"/><use xlink:href="#vGFUAbQ40x-38XGOxSSM_pad-44" x="25750" y="27400"/><use xlink:href="#vGFUAbQ40x-38XGOxSSM_pad-44" x="24250" y="27400"/><use xlink:href="#vGFUAbQ40x-38XGOxSSM_pad-44" x="25750" y="22600"/><use xlink:href="#vGFUAbQ40x-38XGOxSSM_pad-44" x="23250" y="22600"/><use xlink:href="#vGFUAbQ40x-38XGOxSSM_pad-45" x="27400" y="26250"/><use xlink:href="#vGFUAbQ40x-38XGOxSSM_pad-45" x="27400" y="24250"/><use xlink:href="#vGFUAbQ40x-38XGOxSSM_pad-45" x="22600" y="25750"/><use xlink:href="#vGFUAbQ40x-38XGOxSSM_pad-45" x="22600" y="23750"/><use xlink:href="#vGFUAbQ40x-38XGOxSSM_pad-45" x="22600" y="26750"/><use xlink:href="#vGFUAbQ40x-38XGOxSSM_pad-45" x="27400" y="24750"/><use xlink:href="#vGFUAbQ40x-38XGOxSSM_pad-45" x="27400" y="23250"/><use xlink:href="#vGFUAbQ40x-38XGOxSSM_pad-45" x="27400" y="23750"/><use xlink:href="#vGFUAbQ40x-38XGOxSSM_pad-45" x="22600" y="24250"/><use xlink:href="#vGFUAbQ40x-38XGOxSSM_pad-45" x="22600" y="25250"/><use xlink:href="#vGFUAbQ40x-38XGOxSSM_pad-45" x="22600" y="26250"/><use xlink:href="#vGFUAbQ40x-38XGOxSSM_pad-45" x="22600" y="24750"/><use xlink:href="#vGFUAbQ40x-38XGOxSSM_pad-45" x="27400" y="25750"/><use xlink:href="#vGFUAbQ40x-38XGOxSSM_pad-45" x="22600" y="23250"/><use xlink:href="#vGFUAbQ40x-38XGOxSSM_pad-45" x="27400" y="25250"/><use xlink:href="#vGFUAbQ40x-38XGOxSSM_pad-45" x="27400" y="26750"/><use xlink:href="#vGFUAbQ40x-38XGOxSSM_pad-46" x="25000" y="25000"/></g></svg>