<svg version="1.1" xmlns="http://www.w3.org/2000/svg" xmlns:xlink="http://www.w3.org/1999/xlink" stroke-linecap="round" stroke-linejoin="round" stroke-width="0" fill-rule="evenodd" clip-rule="evenodd" id="no0_-f79qrCfYWbMv2QV_top" viewBox="3730.4 12238.2 42539.2 32523.499999999996" width="42.539199999999994mm" height="32.5235mm" class="w-100 h-100"><defs><style>.no0_-f79qrCfYWbMv2QV_fr4 {color: #666666;}
.no0_-f79qrCfYWbMv2QV_cu {color: #cccccc;}
.no0_-f79qrCfYWbMv2QV_cf {color: #cc9933;}
.no0_-f79qrCfYWbMv2QV_sm {color: #004200; opacity: 0.75;}
.no0_-f79qrCfYWbMv2QV_ss {color: #ffffff;}
.no0_-f79qrCfYWbMv2QV_sp {color: #999999;}
.no0_-f79qrCfYWbMv2QV_out {color: #000000;}</style><mask id="EfZ4Jc0aYXg8ilc8VXo4_clear-1" fill="#000" stroke="#000"><g><rect x="1200" y="2901.1" width="46697.8" height="43198.9" fill="#fff"/><path d="M 15050 44356.9 14913.4 44329.7 14797.7 44252.3 14720.3 44136.6 14693.1 44000 14693.1 43200 14720.3 43063.4 14797.7 42947.7 14913.4 42870.3 15050 42843.2 15186.6 42870.3 15302.3 42947.7 15379.7 43063.4 15406.9 43200 15406.9 44000 15379.7 44136.6 15302.3 44252.3 15186.6 44329.7 15050 44356.9"/><path d="M 11879.6 25400 11720.4 25400 11573.4 25339.1 11460.9 25226.6 11400 25079.6 11400 24920.4 11460.9 24773.4 11573.4 24660.9 11720.4 24600 11879.6 24600 12026.6 24660.9 12139.1 24773.4 12200 24920.4 12200 25079.6 12139.1 25226.6 12026.6 25339.1 11879.6 25400"/><path d="M 19929.6 18750 19770.4 18750 19623.4 18689.1 19510.9 18576.6 19450 18429.6 19450 18270.4 19510.9 18123.4 19623.4 18010.9 19770.4 17950 19929.6 17950 20076.6 18010.9 20189.1 18123.4 20250 18270.4 20250 18429.6 20189.1 18576.6 20076.6 18689.1 19929.6 18750"/><path d="M 22230 37400.9 22112.9 37377.6 22013.7 37311.3 21947.4 37212.1 21924.1 37095 21947.4 36978 22013.7 36878.7 22108.7 36783.7 22207.9 36717.4 22325 36694.1 22442.1 36717.4 22541.3 36783.7 22607.6 36882.9 22630.9 37000 22607.6 37117.1 22541.3 37216.3 22446.3 37311.3 22347 37377.6 22230 37400.9"/><path d="M 38900 36203.9 38822 36188.4 38755.8 36144.2 38591.2 35979.6 38578 35988.4 38500 36003.9 38422 35988.4 38355.8 35944.2 38311.6 35878 38296.1 35800 38311.6 35722 38355.8 35655.8 38455.8 35555.8 38455.8 35555.8 38522 35511.6 38600 35496.1 38678 35511.6 38744.2 35555.8 39044.2 35855.8 39088.4 35922 39103.9 36000 39088.4 36078 39044.2 36144.2 38978 36188.4 38900 36203.9"/><path d="M 16979.6 25100 16820.4 25100 16673.4 25039.1 16560.9 24926.6 16500 24779.6 16500 24620.4 16560.9 24473.4 16673.4 24360.9 16820.4 24300 16979.6 24300 17126.6 24360.9 17239.1 24473.4 17300 24620.4 17300 24779.6 17239.1 24926.6 17126.6 25039.1 16979.6 25100"/><path d="M 21579.6 23900 21420.4 23900 21273.4 23839.1 21160.9 23726.6 21100 23579.6 21100 23420.4 21160.9 23273.4 21273.4 23160.9 21420.4 23100 21579.6 23100 21726.6 23160.9 21839.1 23273.4 21900 23420.4 21900 23579.6 21839.1 23726.6 21726.6 23839.1 21579.6 23900"/><path d="M 22230 13400.9 22112.9 13377.6 22013.7 13311.3 21947.4 13212.1 21924.1 13095 21947.4 12978 22013.7 12878.7 22108.7 12783.7 22207.9 12717.4 22325 12694.1 22442.1 12717.4 22541.3 12783.7 22607.6 12882.9 22630.9 13000 22607.6 13117.1 22541.3 13216.3 22446.3 13311.3 22347 13377.6 22230 13400.9"/><path d="M 38800 14703.9 38722 14688.4 38655.8 14644.2 38611.6 14578 38596.1 14500 38611.6 14422 38655.8 14355.8 38755.8 14255.8 38755.8 14255.8 39155.8 13855.8 39222 13811.6 39300 13796.1 39378 13811.6 39444.2 13855.8 39488.4 13922 39503.9 14000 39488.4 14078 39444.2 14144.2 39044.2 14544.2 39044.2 14544.2 38944.2 14644.2 38878 14688.4 38800 14703.9"/></g></mask><rect x="-1925" y="-2750" width="3850" height="5500" id="EfZ4Jc0aYXg8ilc8VXo4_pad-12"/><rect x="-597" y="-279.5" width="1194" height="559" id="EfZ4Jc0aYXg8ilc8VXo4_pad-13"/><rect x="-450" y="-1250" width="900" height="2500" id="EfZ4Jc0aYXg8ilc8VXo4_pad-14"/><rect x="-1275" y="-1875" width="2550" height="3750" id="EfZ4Jc0aYXg8ilc8VXo4_pad-15"/><circle cx="0" cy="0" r="2000" id="EfZ4Jc0aYXg8ilc8VXo4_pad-22"/><circle cx="0" cy="0" r="300" id="EfZ4Jc0aYXg8ilc8VXo4_pad-23"/><rect x="-2026.6" y="-2851.6" width="4053.2" height="5703.2" id="VXr6A-kQPrIZebmAOxfO_pad-16"/><rect x="-698.6" y="-381.1" width="1397.2" height="762.2" id="VXr6A-kQPrIZebmAOxfO_pad-17"/><rect x="-551.6" y="-1351.6" width="1103.2" height="2703.2" id="VXr6A-kQPrIZebmAOxfO_pad-18"/><rect x="-1376.6" y="-1976.6" width="2753.2" height="3953.2" id="VXr6A-kQPrIZebmAOxfO_pad-19"/><circle cx="0" cy="0" r="2101.6" id="VXr6A-kQPrIZebmAOxfO_pad-20"/><rect x="-1925" y="-2750" width="3850" height="5500" id="fvmRz5uC-F0aZxWLSIHO_pad-12"/><rect x="-597" y="-279.5" width="1194" height="559" id="fvmRz5uC-F0aZxWLSIHO_pad-13"/><rect x="-450" y="-1250" width="900" height="2500" id="fvmRz5uC-F0aZxWLSIHO_pad-14"/><rect x="-1275" y="-1875" width="2550" height="3750" id="fvmRz5uC-F0aZxWLSIHO_pad-15"/><g id="no0_-f79qrCfYWbMv2QV_top_copper"><g mask="url(#EfZ4Jc0aYXg8ilc8VXo4_clear-1)"><path d="M 20300 42800 20200 42700 17700 42700 17700 45300 20300 45300 20300 42800"/><path d="M 16100 43700 17600 42200 18200 42200 18200 40400 18100 40300 14900 40300 14900 42000 14800 42100 7599.2 42100 7799.2 29601.9 11351.1 29668.5 11400 29620.4 11460.9 29473.4 11573.4 29360.9 11720.4 29300 11879.6 29300 12026.6 29360.9 12139.1 29473.4 12200 29620.4 12200 29684.4 23042.4 29887.7 23096 29761.7 23060.9 29726.6 23000 29579.6 23000 29420.4 23060.9 29273.4 23173.4 29160.9 23320.4 29100 23479.6 29100 23573 29138.7 23700 29100 23700 29100 24100 29200 24754.7 29200 24807.3 29073 24760.9 29026.6 24700 28879.6 24700 28720.4 24760.9 28573.4 24873.4 28460.9 25020.4 28400 25179.6 28400 25219.2 28416.4 25316.4 28319.2 25300 28279.6 25300 28120.4 25360.9 27973.4 25407.3 27927 25354.7 27800 11904.7 27800 10852.3 28852.3 10736.6 28929.7 10600 28956.9 7494.9 28956.9 6199.4 30252.3 6083.7 30329.7 5947.1 30356.9 5000 30356.9 4863.4 30329.7 4747.7 30252.3 4670.3 30136.6 4643.1 30000 4670.3 29863.4 4747.7 29747.7 4863.4 29670.3 5000 29643.1 5799.3 29643.1 7094.8 28347.7 7210.5 28270.3 7347.1 28243.1 10452.2 28243.1 10778 27917.3 10729.4 27800 10700 27800 12022.9 25477.1 12968.2 25477.1 17793.1 20652.2 17793.1 20000 17793.1 19200 17820.3 19063.4 17897.7 18947.7 18013.4 18870.3 18150 18843.1 18286.6 18870.3 18402.3 18947.7 18479.7 19063.4 18506.9 19200 18506.9 19643.1 19500 19643.1 19636.6 19670.3 19752.3 19747.7 21982.7 21978 22100 21929.4 22100 16900 21700 16500 16700 16500 16600 16600 16600 21300 15500 22400 12100 22400 6600 27900 1200 27900 1200 46000 16100 46000 16100 43700"/><path d="M 24500 33900 20300 33900 17600 36600 16400 36600 16400 40000 24500 40000 24500 33900"/><path d="M 47897.8 33590.9 47809.1 33500 37200 33500 37200 34000 30500 34000 30300 34200 30300 46100 47600 46100 47897.8 33590.9"/><path d="M 11200 40200 13200 40200 13200 37900 11000 37900 11000 30100 7900 30100 7900 41700 11200 41700 11200 40200"/><path d="M 41100 27300 36300 27300 36300 32200 41100 32200 41100 27300"/><path d="M 31400 28500 31400 25100 29970.6 25100 29922 25217.3 29952.3 25247.7 30029.7 25363.4 30056.9 25500 30029.7 25636.6 29952.3 25752.3 29836.6 25829.7 29700 25856.9 29563.4 25829.7 29447.7 25752.3 28795.3 25100 28600 25100 28600 27800 26045.3 27800 25992.7 27927 26039.1 27973.4 26100 28120.4 26100 28279.6 26039.1 28426.6 25926.6 28539.1 25779.6 28600 25620.4 28600 25580.8 28583.6 25483.6 28680.8 25500 28720.4 25500 28879.6 25439.1 29026.6 25392.7 29073 25445.3 29200 30700 29200 31400 28500"/><path d="M 22100 25045.3 21973 24992.7 21926.6 25039.1 21779.6 25100 21620.4 25100 21473.4 25039.1 21360.9 24926.6 21300 24779.6 21300 24620.4 21360.9 24473.4 21473.4 24360.9 21620.4 24300 21779.6 24300 21926.6 24360.9 21973 24407.3 22100 24354.7 22100 23104.7 19352.2 20356.9 18506.9 20356.9 18506.9 20800 18479.7 20936.6 18402.3 21052.3 14094.9 25359.8 14143.5 25477.1 22100 25477.1 22100 25045.3"/><path d="M 15500 18700 13700 18700 13700 21300 15500 21300 15500 18700"/><path d="M 41300 17900 36700 17900 36700 21700 41300 21700 41300 17900"/><path d="M 10900 16100 13400 16100 13400 13900 11500 13900 11500 12500 9000 12500 9000 17300 10900 17300 10900 16100"/><path d="M 24500 10000 18500 10000 16600 11900 16600 16000 24500 16000 24500 10000"/><path d="M 47100 2990.3 47009.7 2901.1 30100 3100 30100 16400 47100 16400 47100 2990.3"/></g><path d="M 12173 40905 12175.5 40902.5 M 13397.5 40902.5 13400 40900 M 12170.5 37097.5 12173 37095 M 22230 37095 22325 37000 M 38900 14400 39300 14000 M 38800 14500 38900 14400 M 38600 35700 38900 36000 M 38500 35800 38600 35700 M 22230 13095 22325 13000 M 12270.5 13097.5 12273 13095 M 12270.5 16907.5 12273 16905 M 13495 16905 13497.5 16902.5" fill="none" stroke-width="200"/><use xlink:href="#EfZ4Jc0aYXg8ilc8VXo4_pad-12" x="32275" y="13000"/><use xlink:href="#EfZ4Jc0aYXg8ilc8VXo4_pad-12" x="22325" y="13000"/><use xlink:href="#EfZ4Jc0aYXg8ilc8VXo4_pad-12" x="22325" y="37000"/><use xlink:href="#EfZ4Jc0aYXg8ilc8VXo4_pad-12" x="32275" y="37000"/><use xlink:href="#EfZ4Jc0aYXg8ilc8VXo4_pad-13" x="12273" y="16905"/><use xlink:href="#EfZ4Jc0aYXg8ilc8VXo4_pad-13" x="12273" y="15635"/><use xlink:href="#EfZ4Jc0aYXg8ilc8VXo4_pad-13" x="12273" y="14365"/><use xlink:href="#EfZ4Jc0aYXg8ilc8VXo4_pad-13" x="12273" y="13095"/><use xlink:href="#EfZ4Jc0aYXg8ilc8VXo4_pad-13" x="17327" y="16905"/><use xlink:href="#EfZ4Jc0aYXg8ilc8VXo4_pad-13" x="17327" y="15635"/><use xlink:href="#EfZ4Jc0aYXg8ilc8VXo4_pad-13" x="17327" y="14365"/><use xlink:href="#EfZ4Jc0aYXg8ilc8VXo4_pad-13" x="17327" y="13095"/><use xlink:href="#EfZ4Jc0aYXg8ilc8VXo4_pad-13" x="12173" y="40905"/><use xlink:href="#EfZ4Jc0aYXg8ilc8VXo4_pad-13" x="12173" y="39635"/><use xlink:href="#EfZ4Jc0aYXg8ilc8VXo4_pad-13" x="12173" y="38365"/><use xlink:href="#EfZ4Jc0aYXg8ilc8VXo4_pad-13" x="12173" y="37095"/><use xlink:href="#EfZ4Jc0aYXg8ilc8VXo4_pad-13" x="17227" y="40905"/><use xlink:href="#EfZ4Jc0aYXg8ilc8VXo4_pad-13" x="17227" y="39635"/><use xlink:href="#EfZ4Jc0aYXg8ilc8VXo4_pad-13" x="17227" y="38365"/><use xlink:href="#EfZ4Jc0aYXg8ilc8VXo4_pad-13" x="17227" y="37095"/><use xlink:href="#EfZ4Jc0aYXg8ilc8VXo4_pad-14" x="15050" y="44000"/><use xlink:href="#EfZ4Jc0aYXg8ilc8VXo4_pad-14" x="18150" y="44000"/><use xlink:href="#EfZ4Jc0aYXg8ilc8VXo4_pad-14" x="18150" y="20000"/><use xlink:href="#EfZ4Jc0aYXg8ilc8VXo4_pad-14" x="15050" y="20000"/><use xlink:href="#EfZ4Jc0aYXg8ilc8VXo4_pad-15" x="38600" y="30300"/><use xlink:href="#EfZ4Jc0aYXg8ilc8VXo4_pad-15" x="38600" y="35700"/><use xlink:href="#EfZ4Jc0aYXg8ilc8VXo4_pad-15" x="38900" y="14400"/><use xlink:href="#EfZ4Jc0aYXg8ilc8VXo4_pad-15" x="38900" y="19800"/><path d="M 12174.2 37093.8 13396.2 37093.8 M 12173 37095 12174.2 37093.8 M 12175.5 40902.5 13397.5 40902.5 M 13396.2 37093.8 13397.5 37092.5 M 15050 43200 15050 44000 M 5947.1 30000 7347.1 28600 10600 28600 11800 27400 M 11819.1 27130.9 18150 20800 M 27100 22900 29700 25500 M 22400 22900 27100 22900 M 19500 20000 22400 22900 M 18150 20000 19500 20000 M 18150 19200 18150 20000 M 11800 27400 11819.1 27380.9 M 18150 20000 18150 20800 M 11819.1 27130.9 11819.1 27380.9 M 5000 30000 5947.1 30000 M 12273 13095 12274.3 13093.8 13496.3 13093.8 13497.5 13092.5 M 12273 16905 13495 16905" fill="none" stroke-width="500"/><use xlink:href="#EfZ4Jc0aYXg8ilc8VXo4_pad-22" x="5000" y="20000"/><use xlink:href="#EfZ4Jc0aYXg8ilc8VXo4_pad-22" x="45000" y="20000"/><use xlink:href="#EfZ4Jc0aYXg8ilc8VXo4_pad-22" x="45000" y="14000"/><use xlink:href="#EfZ4Jc0aYXg8ilc8VXo4_pad-22" x="45000" y="36000"/><use xlink:href="#EfZ4Jc0aYXg8ilc8VXo4_pad-22" x="45000" y="30000"/><use xlink:href="#EfZ4Jc0aYXg8ilc8VXo4_pad-22" x="5000" y="30000"/><use xlink:href="#EfZ4Jc0aYXg8ilc8VXo4_pad-23" x="13400" y="40900"/><use xlink:href="#EfZ4Jc0aYXg8ilc8VXo4_pad-23" x="13397.5" y="37092.5"/><use xlink:href="#EfZ4Jc0aYXg8ilc8VXo4_pad-23" x="11900" y="34900"/><use xlink:href="#EfZ4Jc0aYXg8ilc8VXo4_pad-23" x="11000" y="13000"/><use xlink:href="#EfZ4Jc0aYXg8ilc8VXo4_pad-23" x="9500" y="13000"/><use xlink:href="#EfZ4Jc0aYXg8ilc8VXo4_pad-23" x="9600" y="14200"/><use xlink:href="#EfZ4Jc0aYXg8ilc8VXo4_pad-23" x="9600" y="15400"/><use xlink:href="#EfZ4Jc0aYXg8ilc8VXo4_pad-23" x="10500" y="16600"/><use xlink:href="#EfZ4Jc0aYXg8ilc8VXo4_pad-23" x="9500" y="16600"/><use xlink:href="#EfZ4Jc0aYXg8ilc8VXo4_pad-23" x="11000" y="14300"/><use xlink:href="#EfZ4Jc0aYXg8ilc8VXo4_pad-23" x="11100" y="15600"/><use xlink:href="#EfZ4Jc0aYXg8ilc8VXo4_pad-23" x="9400" y="31200"/><use xlink:href="#EfZ4Jc0aYXg8ilc8VXo4_pad-23" x="10500" y="32900"/><use xlink:href="#EfZ4Jc0aYXg8ilc8VXo4_pad-23" x="8300" y="32900"/><use xlink:href="#EfZ4Jc0aYXg8ilc8VXo4_pad-23" x="9500" y="34400"/><use xlink:href="#EfZ4Jc0aYXg8ilc8VXo4_pad-23" x="10500" y="35700"/><use xlink:href="#EfZ4Jc0aYXg8ilc8VXo4_pad-23" x="8200" y="35700"/><use xlink:href="#EfZ4Jc0aYXg8ilc8VXo4_pad-23" x="9900" y="38400"/><use xlink:href="#EfZ4Jc0aYXg8ilc8VXo4_pad-23" x="9400" y="37200"/><use xlink:href="#EfZ4Jc0aYXg8ilc8VXo4_pad-23" x="8300" y="38400"/><use xlink:href="#EfZ4Jc0aYXg8ilc8VXo4_pad-23" x="9300" y="39900"/><use xlink:href="#EfZ4Jc0aYXg8ilc8VXo4_pad-23" x="10500" y="41200"/><use xlink:href="#EfZ4Jc0aYXg8ilc8VXo4_pad-23" x="8300" y="41200"/><use xlink:href="#EfZ4Jc0aYXg8ilc8VXo4_pad-23" x="11000" y="38500"/><use xlink:href="#EfZ4Jc0aYXg8ilc8VXo4_pad-23" x="10800" y="39700"/><use xlink:href="#EfZ4Jc0aYXg8ilc8VXo4_pad-23" x="16900" y="24700"/><use xlink:href="#EfZ4Jc0aYXg8ilc8VXo4_pad-23" x="33600" y="22200"/><use xlink:href="#EfZ4Jc0aYXg8ilc8VXo4_pad-23" x="33600" y="21500"/><use xlink:href="#EfZ4Jc0aYXg8ilc8VXo4_pad-23" x="32500" y="24700"/><use xlink:href="#EfZ4Jc0aYXg8ilc8VXo4_pad-23" x="32500" y="24000"/><use xlink:href="#EfZ4Jc0aYXg8ilc8VXo4_pad-23" x="32500" y="27000"/><use xlink:href="#EfZ4Jc0aYXg8ilc8VXo4_pad-23" x="32500" y="26300"/><use xlink:href="#EfZ4Jc0aYXg8ilc8VXo4_pad-23" x="32500" y="30100"/><use xlink:href="#EfZ4Jc0aYXg8ilc8VXo4_pad-23" x="32500" y="29400"/><use xlink:href="#EfZ4Jc0aYXg8ilc8VXo4_pad-23" x="32500" y="32400"/><use xlink:href="#EfZ4Jc0aYXg8ilc8VXo4_pad-23" x="32500" y="33100"/><use xlink:href="#EfZ4Jc0aYXg8ilc8VXo4_pad-23" x="37100" y="21300"/><use xlink:href="#EfZ4Jc0aYXg8ilc8VXo4_pad-23" x="37100" y="20100"/><use xlink:href="#EfZ4Jc0aYXg8ilc8VXo4_pad-23" x="37200" y="18800"/><use xlink:href="#EfZ4Jc0aYXg8ilc8VXo4_pad-23" x="40900" y="18600"/><use xlink:href="#EfZ4Jc0aYXg8ilc8VXo4_pad-23" x="40900" y="19800"/><use xlink:href="#EfZ4Jc0aYXg8ilc8VXo4_pad-23" x="40800" y="21200"/><use xlink:href="#EfZ4Jc0aYXg8ilc8VXo4_pad-23" x="36800" y="31600"/><use xlink:href="#EfZ4Jc0aYXg8ilc8VXo4_pad-23" x="36800" y="29600"/><use xlink:href="#EfZ4Jc0aYXg8ilc8VXo4_pad-23" x="37900" y="27900"/><use xlink:href="#EfZ4Jc0aYXg8ilc8VXo4_pad-23" x="39600" y="28000"/><use xlink:href="#EfZ4Jc0aYXg8ilc8VXo4_pad-23" x="40700" y="29600"/><use xlink:href="#EfZ4Jc0aYXg8ilc8VXo4_pad-23" x="40400" y="31500"/><use xlink:href="#EfZ4Jc0aYXg8ilc8VXo4_pad-23" x="14100" y="19200"/><use xlink:href="#EfZ4Jc0aYXg8ilc8VXo4_pad-23" x="14100" y="20000"/><use xlink:href="#EfZ4Jc0aYXg8ilc8VXo4_pad-23" x="14100" y="20800"/><use xlink:href="#EfZ4Jc0aYXg8ilc8VXo4_pad-23" x="19400" y="43100"/><use xlink:href="#EfZ4Jc0aYXg8ilc8VXo4_pad-23" x="19400" y="43900"/><use xlink:href="#EfZ4Jc0aYXg8ilc8VXo4_pad-23" x="19300" y="44800"/><use xlink:href="#EfZ4Jc0aYXg8ilc8VXo4_pad-23" x="29700" y="25500"/><use xlink:href="#EfZ4Jc0aYXg8ilc8VXo4_pad-23" x="27865" y="26265"/><use xlink:href="#EfZ4Jc0aYXg8ilc8VXo4_pad-23" x="28300" y="36600"/><use xlink:href="#EfZ4Jc0aYXg8ilc8VXo4_pad-23" x="33600" y="19600"/><use xlink:href="#EfZ4Jc0aYXg8ilc8VXo4_pad-23" x="35900" y="36400"/><use xlink:href="#EfZ4Jc0aYXg8ilc8VXo4_pad-23" x="35600" y="13500"/><use xlink:href="#EfZ4Jc0aYXg8ilc8VXo4_pad-23" x="19000" y="37100"/><use xlink:href="#EfZ4Jc0aYXg8ilc8VXo4_pad-23" x="19000" y="13100"/><use xlink:href="#EfZ4Jc0aYXg8ilc8VXo4_pad-23" x="13497.5" y="13092.5"/><use xlink:href="#EfZ4Jc0aYXg8ilc8VXo4_pad-23" x="13497.5" y="16902.5"/><use xlink:href="#EfZ4Jc0aYXg8ilc8VXo4_pad-23" x="28200" y="41000"/><use xlink:href="#EfZ4Jc0aYXg8ilc8VXo4_pad-23" x="23800" y="23900"/><use xlink:href="#EfZ4Jc0aYXg8ilc8VXo4_pad-23" x="26200" y="23900"/><use xlink:href="#EfZ4Jc0aYXg8ilc8VXo4_pad-23" x="26200" y="26100"/><use xlink:href="#EfZ4Jc0aYXg8ilc8VXo4_pad-23" x="23900" y="26100"/><use xlink:href="#EfZ4Jc0aYXg8ilc8VXo4_pad-23" x="24400" y="32400"/><use xlink:href="#EfZ4Jc0aYXg8ilc8VXo4_pad-23" x="25000" y="16400"/><use xlink:href="#EfZ4Jc0aYXg8ilc8VXo4_pad-23" x="11800" y="27400"/><use xlink:href="#EfZ4Jc0aYXg8ilc8VXo4_pad-23" x="29700" y="36600"/><use xlink:href="#EfZ4Jc0aYXg8ilc8VXo4_pad-23" x="30400" y="31100"/><use xlink:href="#EfZ4Jc0aYXg8ilc8VXo4_pad-23" x="22700" y="16700"/><use xlink:href="#EfZ4Jc0aYXg8ilc8VXo4_pad-23" x="27400" y="15700"/><use xlink:href="#EfZ4Jc0aYXg8ilc8VXo4_pad-23" x="11800" y="29700"/><use xlink:href="#EfZ4Jc0aYXg8ilc8VXo4_pad-23" x="11800" y="32700"/><use xlink:href="#EfZ4Jc0aYXg8ilc8VXo4_pad-23" x="19850" y="31350"/><use xlink:href="#EfZ4Jc0aYXg8ilc8VXo4_pad-23" x="23400" y="29500"/><use xlink:href="#EfZ4Jc0aYXg8ilc8VXo4_pad-23" x="21800" y="31900"/><use xlink:href="#EfZ4Jc0aYXg8ilc8VXo4_pad-23" x="25100" y="28800"/><use xlink:href="#EfZ4Jc0aYXg8ilc8VXo4_pad-23" x="25700" y="28200"/><use xlink:href="#EfZ4Jc0aYXg8ilc8VXo4_pad-23" x="11800" y="25000"/><use xlink:href="#EfZ4Jc0aYXg8ilc8VXo4_pad-23" x="29550" y="23050"/><use xlink:href="#EfZ4Jc0aYXg8ilc8VXo4_pad-23" x="27600" y="22000"/><use xlink:href="#EfZ4Jc0aYXg8ilc8VXo4_pad-23" x="30650" y="19550"/><use xlink:href="#EfZ4Jc0aYXg8ilc8VXo4_pad-23" x="24900" y="21100"/><use xlink:href="#EfZ4Jc0aYXg8ilc8VXo4_pad-23" x="23500" y="21000"/><use xlink:href="#EfZ4Jc0aYXg8ilc8VXo4_pad-23" x="19850" y="18350"/><use xlink:href="#EfZ4Jc0aYXg8ilc8VXo4_pad-23" x="21500" y="23500"/><use xlink:href="#EfZ4Jc0aYXg8ilc8VXo4_pad-23" x="21700" y="24700"/><use xlink:href="#EfZ4Jc0aYXg8ilc8VXo4_pad-23" x="21500" y="26600"/></g><g id="no0_-f79qrCfYWbMv2QV_top_silkscreen"><path d="M 14482.5 17500 A 317.5 317.5 0 0 1 15117.5 17500 M 14382.5 41500 A 317.5 317.5 0 0 1 15017.5 41500 M 21000 19300 33600 19300 M 21000 6700 33600 6700 M 33600 16200 33600 19300 M 21000 16200 21000 19300 M 33600 6700 33600 9800 M 21000 6700 21000 9800 M 12800 17500 14482.5 17500 M 15117.5 17500 16800 17500 M 12800 12500 16800 12500 M 12700 41500 14382.5 41500 M 15017.5 41500 16700 41500 M 12700 36500 16700 36500 M 21000 30700 33600 30700 M 21000 43300 33600 43300 M 21000 30700 21000 33800 M 33600 30700 33600 33800 M 21000 40200 21000 43300 M 33600 40200 33600 43300 M 19000 42400 19000 45600 M 14200 42400 19000 42400 M 14200 42400 14200 45600 19000 45600 M 35800 38100 35800 38600 M 41400 38100 41400 38600 M 35800 38600 41400 38600 M 35800 38100 41400 38100 M 41400 27900 41400 38100 M 35800 27900 41400 27900 M 35800 27900 35800 38100 M 41700 12000 41700 22200 M 36100 22200 41700 22200 M 36100 12000 36100 22200 M 36100 12000 41700 12000 M 36100 11500 41700 11500 M 36100 11500 36100 12000 M 41700 11500 41700 12000 M 14200 18400 14200 21600 19000 21600 M 19000 18400 19000 21600 M 14200 18400 19000 18400" fill="none" stroke-width="200"/><path d="M 11654 18146 11654 17812.8 11654 17979.4 12653.7 17979.4 12487.1 18146 M 11654 42146 11654 41812.8 11654 41979.4 12653.7 41979.4 12487.1 42146 M 44015.8 11177.5 43507.9 11177.5 43254 10923.6 43254 9907.9 43507.9 9654 44015.8 9654 44269.7 9907.9 44269.7 10923.6 44015.8 11177.5 M 44777.5 11177.5 44777.5 9907.9 45031.4 9654 45539.3 9654 45793.2 9907.9 45793.2 11177.5 M 46301 11177.5 47316.7 11177.5 46808.8 11177.5 46808.8 9654 M 47824.5 9654 48332.4 9654 48078.4 9654 48078.4 11177.5 47824.5 10923.6 M 44369.7 23823.6 44115.7 24077.5 43607.9 24077.5 43354 23823.6 43354 22807.9 43607.9 22554 44115.7 22554 44369.7 22807.9 44369.7 23315.8 43861.8 23315.8 M 44877.5 22554 44877.5 24077.5 45893.2 22554 45893.2 24077.5 M 46401 24077.5 46401 22554 47162.8 22554 47416.7 22807.9 47416.7 23823.6 47162.8 24077.5 46401 24077.5 M 44369.7 27123.6 44115.7 27377.5 43607.9 27377.5 43354 27123.6 43354 26107.9 43607.9 25854 44115.7 25854 44369.7 26107.9 44369.7 26615.7 43861.8 26615.7 M 44877.5 25854 44877.5 27377.5 45893.2 25854 45893.2 27377.5 M 46401 27377.5 46401 25854 47162.8 25854 47416.7 26107.9 47416.7 27123.6 47162.8 27377.5 46401 27377.5 M 43615.7 39977.5 43107.9 39977.5 42854 39723.6 42854 38707.9 43107.9 38454 43615.7 38454 43869.7 38707.9 43869.7 39723.6 43615.7 39977.5 M 44377.5 39977.5 44377.5 38707.9 44631.4 38454 45139.3 38454 45393.2 38707.9 45393.2 39977.5 M 45901 39977.5 46916.7 39977.5 46408.9 39977.5 46408.9 38454 M 48440.2 38454 47424.5 38454 48440.2 39469.7 48440.2 39723.6 48186.3 39977.5 47678.4 39977.5 47424.5 39723.6 M 4369.7 17123.6 4115.7 17377.5 3607.9 17377.5 3354 17123.6 3354 16107.9 3607.9 15854 4115.7 15854 4369.7 16107.9 4369.7 16615.7 3861.8 16615.7 M 4877.5 15854 4877.5 17377.5 5893.2 15854 5893.2 17377.5 M 6401 17377.5 6401 15854 7162.8 15854 7416.7 16107.9 7416.7 17123.6 7162.8 17377.5 6401 17377.5 M 1554 33215.8 2569.7 33215.8 M 2061.8 33723.6 2061.8 32707.9 M 3077.5 33977.5 3077.5 32961.8 3585.3 32454 4093.2 32961.8 4093.2 33977.5 M 4601 33977.5 5108.9 33977.5 4854.9 33977.5 4854.9 32454 4601 32454 5108.9 32454 M 5870.6 32454 5870.6 33977.5 6886.3 32454 6886.3 33977.5 M 1283.4 20749.8 850.2 20749.8 1066.8 20749.8 1066.8 19666.8 850.2 19450.2 633.6 19450.2 417 19666.8 M 2583 19450.2 1716.6 19450.2 2583 20316.6 2583 20533.2 2366.4 20749.8 1933.2 20749.8 1716.6 20533.2 M 26084.3 21261.7 26084.3 19738.3 27100 19738.3 M 27607.8 19738.3 28115.7 19738.3 27861.8 19738.3 27861.8 21261.7 27607.8 21007.8 M 48183.4 20849.8 47750.2 20849.8 47966.8 20849.8 47966.8 19766.8 47750.2 19550.2 47533.6 19550.2 47317 19766.8 M 49483 20849.8 48616.6 20849.8 48616.6 20200 49049.8 20416.6 49266.4 20416.6 49483 20200 49483 19766.8 49266.4 19550.2 48833.2 19550.2 48616.6 19766.8 M 48183.4 14349.8 47750.2 14349.8 47966.8 14349.8 47966.8 13266.8 47750.2 13050.2 47533.6 13050.2 47317 13266.8 M 48616.6 14133.2 48833.2 14349.8 49266.4 14349.8 49483 14133.2 49483 13916.6 49266.4 13700 49049.8 13700 49266.4 13700 49483 13483.4 49483 13266.8 49266.4 13050.2 48833.2 13050.2 48616.6 13266.8 M 48183.4 36949.8 47750.2 36949.8 47966.8 36949.8 47966.8 35866.8 47750.2 35650.2 47533.6 35650.2 47317 35866.8 M 49266.4 35650.2 49266.4 36949.8 48616.6 36300 49483 36300 M 48183.4 30549.8 47750.2 30549.8 47966.8 30549.8 47966.8 29466.8 47750.2 29250.2 47533.6 29250.2 47317 29466.8 M 49483 30549.8 49049.8 30333.2 48616.6 29900 48616.6 29466.8 48833.2 29250.2 49266.4 29250.2 49483 29466.8 49483 29683.4 49266.4 29900 48616.6 29900 M 1400 30449.8 966.8 30449.8 1183.4 30449.8 1183.4 29366.8 966.8 29150.2 750.2 29150.2 533.6 29366.8 M 1833.2 29150.2 2266.4 29150.2 2049.8 29150.2 2049.8 30449.8 1833.2 30233.2 M 14600 10792.2 14600 11807.8 14346.1 12061.8 13838.3 12061.8 13584.3 11807.8 13584.3 10792.2 13838.3 10538.2 14346.1 10538.2 M 14092.2 11046.1 14600 10538.2 M 14346.1 10538.2 14600 10792.2 M 15107.8 10538.2 15615.7 10538.2 15361.7 10538.2 15361.7 12061.8 15107.8 11807.8 M 14646.1 34692.2 14646.1 35707.8 14392.2 35961.8 13884.3 35961.8 13630.4 35707.8 13630.4 34692.2 13884.3 34438.3 14392.2 34438.3 M 14138.3 34946.1 14646.1 34438.3 M 14392.2 34438.3 14646.1 34692.2 M 16169.6 34438.3 15153.9 34438.3 16169.6 35453.9 16169.6 35707.8 15915.7 35961.8 15407.8 35961.8 15153.9 35707.8 M 24430.4 45461.8 24430.4 43938.3 25446.1 43938.3 M 26969.6 43938.3 25953.9 43938.3 26969.6 44953.9 26969.6 45207.8 26715.7 45461.8 26207.8 45461.8 25953.9 45207.8 M 15246.1 47907.8 14992.2 48161.8 14484.3 48161.8 14230.4 47907.8 14230.4 46892.2 14484.3 46638.2 14992.2 46638.2 15246.1 46892.2 M 16769.6 48161.8 16261.7 47907.8 15753.9 47400 15753.9 46892.2 16007.8 46638.2 16515.7 46638.2 16769.6 46892.2 16769.6 47146.1 16515.7 47400 15753.9 47400 M 36959.1 40743.6 36705.2 40997.5 36197.3 40997.5 35943.4 40743.6 35943.4 39727.9 36197.3 39474 36705.2 39474 36959.1 39727.9 M 37466.9 39474 37974.7 39474 37720.8 39474 37720.8 40997.5 37466.9 40743.6 M 38736.5 40743.6 38990.4 40997.5 39498.2 40997.5 39752.2 40743.6 39752.2 39727.9 39498.2 39474 38990.4 39474 38736.5 39727.9 38736.5 40743.6 M 37263.9 24335.2 37009.9 24589.1 36502.1 24589.1 36248.2 24335.2 36248.2 23319.5 36502.1 23065.6 37009.9 23065.6 37263.9 23319.5 M 37771.7 23319.5 38025.6 23065.6 38533.5 23065.6 38787.4 23319.5 38787.4 24335.2 38533.5 24589.1 38025.6 24589.1 37771.7 24335.2 37771.7 24081.3 38025.6 23827.4 38787.4 23827.4 M 15369.1 23725.6 15115.2 23979.5 14607.3 23979.5 14353.4 23725.6 14353.4 22709.9 14607.3 22456 15115.2 22456 15369.1 22709.9 M 16892.6 23979.5 15876.9 23979.5 15876.9 23217.8 16384.7 23471.7 16638.7 23471.7 16892.6 23217.8 16892.6 22709.9 16638.7 22456 16130.8 22456 15876.9 22709.9" fill="none" stroke-width="254"/></g><g id="no0_-f79qrCfYWbMv2QV_top_soldermask"><use xlink:href="#VXr6A-kQPrIZebmAOxfO_pad-16" x="32275" y="13000"/><use xlink:href="#VXr6A-kQPrIZebmAOxfO_pad-16" x="22325" y="13000"/><use xlink:href="#VXr6A-kQPrIZebmAOxfO_pad-16" x="22325" y="37000"/><use xlink:href="#VXr6A-kQPrIZebmAOxfO_pad-16" x="32275" y="37000"/><use xlink:href="#VXr6A-kQPrIZebmAOxfO_pad-17" x="12273" y="16905"/><use xlink:href="#VXr6A-kQPrIZebmAOxfO_pad-17" x="12273" y="15635"/><use xlink:href="#VXr6A-kQPrIZebmAOxfO_pad-17" x="12273" y="14365"/><use xlink:href="#VXr6A-kQPrIZebmAOxfO_pad-17" x="12273" y="13095"/><use xlink:href="#VXr6A-kQPrIZebmAOxfO_pad-17" x="17327" y="16905"/><use xlink:href="#VXr6A-kQPrIZebmAOxfO_pad-17" x="17327" y="15635"/><use xlink:href="#VXr6A-kQPrIZebmAOxfO_pad-17" x="17327" y="14365"/><use xlink:href="#VXr6A-kQPrIZebmAOxfO_pad-17" x="17327" y="13095"/><use xlink:href="#VXr6A-kQPrIZebmAOxfO_pad-17" x="12173" y="40905"/><use xlink:href="#VXr6A-kQPrIZebmAOxfO_pad-17" x="12173" y="39635"/><use xlink:href="#VXr6A-kQPrIZebmAOxfO_pad-17" x="12173" y="38365"/><use xlink:href="#VXr6A-kQPrIZebmAOxfO_pad-17" x="12173" y="37095"/><use xlink:href="#VXr6A-kQPrIZebmAOxfO_pad-17" x="17227" y="40905"/><use xlink:href="#VXr6A-kQPrIZebmAOxfO_pad-17" x="17227" y="39635"/><use xlink:href="#VXr6A-kQPrIZebmAOxfO_pad-17" x="17227" y="38365"/><use xlink:href="#VXr6A-kQPrIZebmAOxfO_pad-17" x="17227" y="37095"/><use xlink:href="#VXr6A-kQPrIZebmAOxfO_pad-18" x="15050" y="44000"/><use xlink:href="#VXr6A-kQPrIZebmAOxfO_pad-18" x="18150" y="44000"/><use xlink:href="#VXr6A-kQPrIZebmAOxfO_pad-18" x="18150" y="20000"/><use xlink:href="#VXr6A-kQPrIZebmAOxfO_pad-18" x="15050" y="20000"/><use xlink:href="#VXr6A-kQPrIZebmAOxfO_pad-19" x="38600" y="30300"/><use xlink:href="#VXr6A-kQPrIZebmAOxfO_pad-19" x="38600" y="35700"/><use xlink:href="#VXr6A-kQPrIZebmAOxfO_pad-19" x="38900" y="14400"/><use xlink:href="#VXr6A-kQPrIZebmAOxfO_pad-19" x="38900" y="19800"/><use xlink:href="#VXr6A-kQPrIZebmAOxfO_pad-20" x="5000" y="20000"/><use xlink:href="#VXr6A-kQPrIZebmAOxfO_pad-20" x="45000" y="20000"/><use xlink:href="#VXr6A-kQPrIZebmAOxfO_pad-20" x="45000" y="14000"/><use xlink:href="#VXr6A-kQPrIZebmAOxfO_pad-20" x="45000" y="36000"/><use xlink:href="#VXr6A-kQPrIZebmAOxfO_pad-20" x="45000" y="30000"/><use xlink:href="#VXr6A-kQPrIZebmAOxfO_pad-20" x="5000" y="30000"/></g><g id="no0_-f79qrCfYWbMv2QV_top_solderpaste"><use xlink:href="#fvmRz5uC-F0aZxWLSIHO_pad-12" x="32275" y="13000"/><use xlink:href="#fvmRz5uC-F0aZxWLSIHO_pad-12" x="22325" y="13000"/><use xlink:href="#fvmRz5uC-F0aZxWLSIHO_pad-12" x="22325" y="37000"/><use xlink:href="#fvmRz5uC-F0aZxWLSIHO_pad-12" x="32275" y="37000"/><use xlink:href="#fvmRz5uC-F0aZxWLSIHO_pad-13" x="12273" y="16905"/><use xlink:href="#fvmRz5uC-F0aZxWLSIHO_pad-13" x="12273" y="15635"/><use xlink:href="#fvmRz5uC-F0aZxWLSIHO_pad-13" x="12273" y="14365"/><use xlink:href="#fvmRz5uC-F0aZxWLSIHO_pad-13" x="12273" y="13095"/><use xlink:href="#fvmRz5uC-F0aZxWLSIHO_pad-13" x="17327" y="16905"/><use xlink:href="#fvmRz5uC-F0aZxWLSIHO_pad-13" x="17327" y="15635"/><use xlink:href="#fvmRz5uC-F0aZxWLSIHO_pad-13" x="17327" y="14365"/><use xlink:href="#fvmRz5uC-F0aZxWLSIHO_pad-13" x="17327" y="13095"/><use xlink:href="#fvmRz5uC-F0aZxWLSIHO_pad-13" x="12173" y="40905"/><use xlink:href="#fvmRz5uC-F0aZxWLSIHO_pad-13" x="12173" y="39635"/><use xlink:href="#fvmRz5uC-F0aZxWLSIHO_pad-13" x="12173" y="38365"/><use xlink:href="#fvmRz5uC-F0aZxWLSIHO_pad-13" x="12173" y="37095"/><use xlink:href="#fvmRz5uC-F0aZxWLSIHO_pad-13" x="17227" y="40905"/><use xlink:href="#fvmRz5uC-F0aZxWLSIHO_pad-13" x="17227" y="39635"/><use xlink:href="#fvmRz5uC-F0aZxWLSIHO_pad-13" x="17227" y="38365"/><use xlink:href="#fvmRz5uC-F0aZxWLSIHO_pad-13" x="17227" y="37095"/><use xlink:href="#fvmRz5uC-F0aZxWLSIHO_pad-14" x="15050" y="44000"/><use xlink:href="#fvmRz5uC-F0aZxWLSIHO_pad-14" x="18150" y="44000"/><use xlink:href="#fvmRz5uC-F0aZxWLSIHO_pad-14" x="18150" y="20000"/><use xlink:href="#fvmRz5uC-F0aZxWLSIHO_pad-14" x="15050" y="20000"/><use xlink:href="#fvmRz5uC-F0aZxWLSIHO_pad-15" x="38600" y="30300"/><use xlink:href="#fvmRz5uC-F0aZxWLSIHO_pad-15" x="38600" y="35700"/><use xlink:href="#fvmRz5uC-F0aZxWLSIHO_pad-15" x="38900" y="14400"/><use xlink:href="#fvmRz5uC-F0aZxWLSIHO_pad-15" x="38900" y="19800"/></g><clipPath id="no0_-f79qrCfYWbMv2QV_top_outline"><path d="M 4746.1 20761.7 4238.2 20761.7 4492.2 20761.7 4492.2 19492.2 4238.2 19238.3 3984.3 19238.3 3730.4 19492.2 M 6269.6 19238.3 5253.9 19238.3 6269.6 20253.9 6269.6 20507.8 6015.7 20761.7 5507.8 20761.7 5253.9 20507.8 M 26284.3 13761.8 26284.3 12238.2 27300 12238.2 M 27807.8 12238.2 28315.7 12238.2 28061.8 12238.2 28061.8 13761.8 27807.8 13507.8 M 44746.1 20761.7 44238.3 20761.7 44492.2 20761.7 44492.2 19492.2 44238.3 19238.3 43984.3 19238.3 43730.4 19492.2 M 46269.6 20761.7 45253.9 20761.7 45253.9 20000 45761.7 20253.9 46015.7 20253.9 46269.6 20000 46269.6 19492.2 46015.7 19238.3 45507.8 19238.3 45253.9 19492.2 M 44746.1 14761.8 44238.3 14761.8 44492.2 14761.8 44492.2 13492.2 44238.3 13238.2 43984.3 13238.2 43730.4 13492.2 M 45253.9 14507.8 45507.8 14761.8 46015.7 14761.8 46269.6 14507.8 46269.6 14253.9 46015.7 14000 45761.7 14000 M 46015.7 14000 46269.6 13746.1 46269.6 13492.2 46015.7 13238.2 45507.8 13238.2 45253.9 13492.2 M 44746.1 36761.7 44238.3 36761.7 44492.2 36761.7 44492.2 35492.2 44238.3 35238.3 43984.3 35238.3 43730.4 35492.2 M 46015.7 35238.3 46015.7 36761.7 45253.9 36000 46269.6 36000 M 44746.1 30761.7 44238.3 30761.7 44492.2 30761.7 44492.2 29492.2 44238.3 29238.3 43984.3 29238.3 43730.4 29492.2 M 46269.6 30761.7 45761.7 30507.8 45253.9 30000 45253.9 29492.2 45507.8 29238.3 46015.7 29238.3 46269.6 29492.2 46269.6 29746.1 46015.7 30000 45253.9 30000 M 5000 30761.7 4492.2 30761.7 4746.1 30761.7 4746.1 29492.2 4492.2 29238.3 4238.2 29238.3 3984.3 29492.2 M 5507.8 29238.3 6015.7 29238.3 5761.8 29238.3 5761.8 30761.7 5507.8 30507.8 M 14800 14492.2 14800 15507.8 14546.1 15761.8 14038.2 15761.8 13784.3 15507.8 13784.3 14492.2 14038.2 14238.2 14546.1 14238.2 14800 14492.2 M 14292.2 14746.1 14800 14238.2 M 15307.8 14238.2 15815.7 14238.2 15561.8 14238.2 15561.8 15761.8 15307.8 15507.8 M 14446.1 38492.2 14446.1 39507.8 14192.2 39761.7 13684.3 39761.7 13430.4 39507.8 13430.4 38492.2 13684.3 38238.3 14192.2 38238.3 14446.1 38492.2 M 13938.2 38746.1 14446.1 38238.3 M 15969.6 38238.3 14953.9 38238.3 15969.6 39253.9 15969.6 39507.8 15715.7 39761.7 15207.8 39761.7 14953.9 39507.8 M 26030.4 37761.7 26030.4 36238.3 27046.1 36238.3 M 28569.6 36238.3 27553.9 36238.3 28569.6 37253.9 28569.6 37507.8 28315.7 37761.7 27807.8 37761.7 27553.9 37507.8 M 16346.1 44507.8 16092.2 44761.7 15584.3 44761.7 15330.4 44507.8 15330.4 43492.2 15584.3 43238.3 16092.2 43238.3 16346.1 43492.2 M 17869.6 44761.7 17361.7 44507.8 16853.9 44000 16853.9 43492.2 17107.8 43238.3 17615.7 43238.3 17869.6 43492.2 17869.6 43746.1 17615.7 44000 16853.9 44000 M 38092.2 32361.3 37838.2 32107.4 37838.2 31599.5 38092.2 31345.6 39107.8 31345.6 39361.8 31599.5 39361.8 32107.4 39107.8 32361.3 M 39361.8 32869.1 39361.8 33377 39361.8 33123 37838.2 33123 38092.2 32869.1 M 38092.2 34138.7 37838.2 34392.6 37838.2 34900.5 38092.2 35154.4 39107.8 35154.4 39361.8 34900.5 39361.8 34392.6 39107.8 34138.7 38092.2 34138.7 M 38392.2 16596.1 38138.2 16342.2 38138.2 15834.3 38392.2 15580.4 39407.8 15580.4 39661.8 15834.3 39661.8 16342.2 39407.8 16596.1 M 39407.8 17103.9 39661.8 17357.8 39661.8 17865.7 39407.8 18119.6 38392.2 18119.6 38138.2 17865.7 38138.2 17357.8 38392.2 17103.9 38646.1 17103.9 38900 17357.8 38900 18119.6 M 16346.1 20507.8 16092.2 20761.7 15584.3 20761.7 15330.4 20507.8 15330.4 19492.2 15584.3 19238.3 16092.2 19238.3 16346.1 19492.2 M 17869.6 20761.7 16853.9 20761.7 16853.9 20000 17361.7 20253.9 17615.7 20253.9 17869.6 20000 17869.6 19492.2 17615.7 19238.3 17107.8 19238.3 16853.9 19492.2" fill="none" stroke-width="254"/></clipPath><mask id="no0_-f79qrCfYWbMv2QV_top_mech-mask"><g fill="#000" stroke="#000"><rect x="3730.4" y="12238.2" width="42539.2" height="32523.5" fill="#fff"/></g></mask><mask id="no0_-f79qrCfYWbMv2QV_top_cf-mask"><g fill="#fff" stroke="#fff"><use xlink:href="#no0_-f79qrCfYWbMv2QV_top_soldermask"/></g></mask><mask id="no0_-f79qrCfYWbMv2QV_top_sm-mask"><g fill="#000" stroke="#000"><rect x="3730.4" y="12238.2" width="42539.2" height="32523.5" fill="#fff"/><use xlink:href="#no0_-f79qrCfYWbMv2QV_top_soldermask"/></g></mask></defs><g transform="translate(0,56999.899999999994) scale(1,-1)"><g mask="url(#no0_-f79qrCfYWbMv2QV_top_mech-mask)" clip-path="url(#no0_-f79qrCfYWbMv2QV_top_outline)"><rect x="3730.4" y="12238.2" width="42539.2" height="32523.5" fill="currentColor" class="no0_-f79qrCfYWbMv2QV_fr4"/><use xlink:href="#no0_-f79qrCfYWbMv2QV_top_copper" fill="currentColor" stroke="currentColor" class="no0_-f79qrCfYWbMv2QV_cu"/><use xlink:href="#no0_-f79qrCfYWbMv2QV_top_copper" fill="currentColor" stroke="currentColor" class="no0_-f79qrCfYWbMv2QV_cf" mask="url(#no0_-f79qrCfYWbMv2QV_top_cf-mask)"/><g mask="url(#no0_-f79qrCfYWbMv2QV_top_sm-mask)"><rect x="3730.4" y="12238.2" width="42539.2" height="32523.5" fill="currentColor" class="no0_-f79qrCfYWbMv2QV_sm"/><use xlink:href="#no0_-f79qrCfYWbMv2QV_top_silkscreen" fill="currentColor" stroke="currentColor" class="no0_-f79qrCfYWbMv2QV_ss"/></g><use xlink:href="#no0_-f79qrCfYWbMv2QV_top_solderpaste" fill="currentColor" stroke="currentColor" class="no0_-f79qrCfYWbMv2QV_sp"/></g></g></svg>